<svg xmlns="http://www.w3.org/2000/svg" xmlns:xlink="http://www.w3.org/1999/xlink" width="182" zoomAndPan="magnify" viewBox="0 0 136.5 116.249996" height="155" preserveAspectRatio="xMidYMid meet" version="1.0"><defs><clipPath id="51fca33dfe"><path d="M 0.1875 0 L 135.632812 0 L 135.632812 115.503906 L 0.1875 115.503906 Z M 0.1875 0 " clip-rule="nonzero"/></clipPath></defs><g clip-path="url(#51fca33dfe)"><path fill="#05abc4" d="M -231.085938 115.324219 C -231.382812 115.230469 -232.25 115.101562 -233.019531 115.035156 C -233.785156 114.96875 -234.570312 114.835938 -234.757812 114.738281 C -234.945312 114.640625 -235.433594 114.472656 -235.835938 114.359375 C -236.242188 114.246094 -236.6875 114.101562 -236.820312 114.039062 C -237.066406 113.921875 -238.15625 113.617188 -240.816406 112.925781 C -241.59375 112.722656 -242.375 112.5 -242.554688 112.429688 C -242.734375 112.359375 -243.425781 112.167969 -244.089844 112.007812 C -246.914062 111.328125 -248.265625 110.988281 -248.464844 110.90625 C -248.578125 110.859375 -249.214844 110.691406 -249.878906 110.53125 C -250.539062 110.367188 -251.828125 110.039062 -252.742188 109.792969 C -253.652344 109.550781 -254.980469 109.203125 -255.691406 109.019531 C -256.402344 108.835938 -257.039062 108.65625 -257.105469 108.613281 C -257.171875 108.574219 -257.753906 108.414062 -258.394531 108.261719 C -259.039062 108.109375 -259.664062 107.929688 -259.785156 107.867188 C -259.996094 107.761719 -261.296875 107.398438 -263.929688 106.71875 C -264.570312 106.550781 -265.183594 106.367188 -265.292969 106.304688 C -265.398438 106.242188 -265.953125 106.074219 -266.519531 105.925781 C -267.089844 105.777344 -267.722656 105.582031 -267.921875 105.492188 C -268.277344 105.335938 -269.710938 105.046875 -270.996094 104.878906 C -271.695312 104.785156 -273.066406 104.265625 -273.273438 104.015625 C -273.417969 103.84375 -274.050781 103.691406 -275.601562 103.464844 C -276.105469 103.394531 -276.574219 103.285156 -276.644531 103.226562 C -276.714844 103.171875 -277.191406 103.003906 -277.695312 102.859375 C -278.203125 102.710938 -278.820312 102.515625 -279.070312 102.421875 C -279.316406 102.324219 -279.980469 102.128906 -280.542969 101.984375 C -281.109375 101.84375 -281.625 101.683594 -281.691406 101.632812 C -281.757812 101.578125 -282.175781 101.441406 -282.613281 101.320312 C -283.054688 101.203125 -283.578125 101.03125 -283.78125 100.941406 C -283.984375 100.847656 -284.453125 100.65625 -284.828125 100.511719 C -286.066406 100.035156 -287.402344 99.078125 -289.285156 97.320312 C -290.117188 96.539062 -290.683594 95.71875 -290.507812 95.539062 C -290.460938 95.492188 -290.570312 95.332031 -290.75 95.1875 C -291.042969 94.953125 -291.097656 94.785156 -291.21875 93.816406 C -291.292969 93.207031 -291.402344 92.515625 -291.464844 92.277344 C -291.867188 90.707031 -291.894531 88.523438 -291.890625 58.34375 C -291.886719 35.816406 -291.847656 27.488281 -291.726562 24.714844 L -291.566406 21.023438 L -291.214844 20.472656 C -290.644531 19.582031 -290.34375 19.164062 -289.535156 18.144531 C -288.722656 17.117188 -286.75 15.308594 -286.109375 15.003906 C -285.898438 14.902344 -284.871094 14.625 -283.832031 14.390625 C -282.789062 14.152344 -281.707031 13.871094 -281.425781 13.765625 C -280.796875 13.53125 -279.128906 13.058594 -274.769531 11.875 C -274.003906 11.667969 -273.324219 11.464844 -273.253906 11.425781 C -273.070312 11.3125 -269.582031 10.363281 -266.265625 9.527344 C -263.945312 8.945312 -262.777344 8.570312 -262.628906 8.367188 C -262.527344 8.234375 -262.273438 8.175781 -261.761719 8.171875 C -261.363281 8.171875 -260.652344 8.066406 -260.179688 7.9375 C -259.347656 7.710938 -257.300781 7.144531 -254.09375 6.246094 C -251.714844 5.582031 -250.453125 5.230469 -249.113281 4.863281 C -246.273438 4.078125 -244.609375 3.613281 -243.335938 3.253906 C -242.59375 3.046875 -241.402344 2.714844 -240.695312 2.523438 C -239.984375 2.328125 -238.683594 1.972656 -237.804688 1.730469 C -232.894531 0.382812 -232.085938 0.234375 -228.632812 0.0625 C -225.96875 -0.0664062 -224.628906 -0.00390625 -223.296875 0.320312 C -222.757812 0.453125 -221.78125 0.613281 -221.132812 0.675781 C -220.382812 0.75 -219.59375 0.917969 -218.980469 1.144531 C -218.449219 1.339844 -217.070312 1.757812 -215.921875 2.078125 C -214.773438 2.398438 -213.472656 2.765625 -213.035156 2.890625 C -212.207031 3.128906 -210.386719 3.605469 -205.71875 4.800781 C -200.4375 6.152344 -199.972656 6.277344 -195.253906 7.613281 C -193.972656 7.976562 -193.027344 8.175781 -192.585938 8.175781 C -192.035156 8.175781 -191.910156 8.210938 -191.964844 8.351562 C -192.011719 8.480469 -191.882812 8.566406 -191.5 8.660156 C -191.207031 8.730469 -190.46875 8.925781 -189.859375 9.09375 C -189.253906 9.257812 -188.367188 9.480469 -187.894531 9.585938 C -187.421875 9.691406 -186.921875 9.828125 -186.789062 9.894531 C -186.515625 10.023438 -184.4375 10.550781 -183.105469 10.828125 C -182.632812 10.929688 -181.859375 11.199219 -181.382812 11.433594 C -180.839844 11.699219 -180.171875 11.910156 -179.59375 11.996094 C -178.691406 12.132812 -178.386719 12.214844 -175.785156 13.035156 C -171.597656 14.355469 -169.707031 15.011719 -168.777344 15.460938 C -168.203125 15.742188 -167.703125 16 -167.671875 16.039062 C -167.636719 16.078125 -167.289062 16.320312 -166.902344 16.582031 C -166.277344 17.003906 -165.230469 18.070312 -164.195312 19.34375 C -164.011719 19.570312 -163.859375 19.882812 -163.859375 20.042969 C -163.859375 20.207031 -163.765625 20.390625 -163.648438 20.453125 C -163.53125 20.519531 -163.296875 20.953125 -163.125 21.414062 L -162.816406 22.253906 L -162.839844 58.492188 L -162.863281 94.726562 L -163.84375 96.113281 C -164.6875 97.3125 -166.519531 99.277344 -167.496094 100.03125 C -168.191406 100.570312 -169.257812 101.023438 -170.09375 101.140625 C -170.585938 101.210938 -171.246094 101.34375 -171.570312 101.433594 C -171.894531 101.527344 -172.851562 101.804688 -173.695312 102.050781 C -174.539062 102.296875 -175.757812 102.636719 -176.398438 102.800781 C -177.042969 102.96875 -177.679688 103.15625 -177.8125 103.222656 C -177.949219 103.285156 -178.445312 103.421875 -178.917969 103.53125 C -179.394531 103.636719 -180.195312 103.855469 -180.703125 104.015625 C -183.296875 104.839844 -184.453125 105.160156 -187.386719 105.863281 C -188.050781 106.023438 -188.742188 106.210938 -188.921875 106.28125 C -189.101562 106.355469 -189.800781 106.550781 -190.476562 106.714844 C -191.609375 106.996094 -192.78125 107.3125 -196.191406 108.25 C -196.902344 108.445312 -198.035156 108.75 -198.710938 108.929688 C -199.386719 109.105469 -200.050781 109.304688 -200.1875 109.367188 C -200.324219 109.433594 -200.984375 109.625 -201.664062 109.796875 C -202.339844 109.964844 -203.582031 110.300781 -204.429688 110.539062 C -205.273438 110.777344 -206.546875 111.132812 -207.253906 111.328125 C -207.964844 111.523438 -209.15625 111.851562 -209.898438 112.058594 C -212.734375 112.847656 -214 113.191406 -215.371094 113.554688 C -216.148438 113.761719 -216.894531 113.980469 -217.027344 114.039062 C -217.296875 114.164062 -219.261719 114.667969 -220.847656 115.019531 C -222.433594 115.371094 -224.449219 115.515625 -227.609375 115.503906 C -229.726562 115.496094 -230.703125 115.445312 -231.085938 115.324219 Z M -226.058594 98.917969 C -225.605469 97.285156 -225.503906 95.933594 -225.269531 88.28125 C -225.167969 84.898438 -225.027344 81.191406 -224.957031 80.042969 C -224.886719 78.894531 -224.722656 74.023438 -224.589844 69.222656 C -224.457031 64.421875 -224.292969 59.96875 -224.222656 59.324219 C -224.15625 58.683594 -224.039062 57.132812 -223.96875 55.882812 C -223.820312 53.253906 -223.640625 51.429688 -223.484375 50.902344 C -223.425781 50.699219 -223.285156 50.0625 -223.171875 49.488281 C -222.941406 48.292969 -222.316406 46.867188 -221.65625 46.042969 C -221.027344 45.25 -218.21875 42.726562 -217.96875 42.726562 C -217.917969 42.726562 -217.761719 42.621094 -217.625 42.496094 C -217.382812 42.265625 -215.5 41.25 -215.320312 41.25 C -215.273438 41.25 -214.945312 41.117188 -214.59375 40.953125 C -214.242188 40.785156 -213.597656 40.515625 -213.15625 40.347656 C -212.171875 39.976562 -210.859375 39.453125 -209.414062 38.855469 C -208.808594 38.605469 -208.011719 38.351562 -207.636719 38.292969 C -207.265625 38.230469 -206.679688 38.046875 -206.339844 37.882812 C -205.421875 37.4375 -203.746094 36.8125 -201.601562 36.109375 C -199.457031 35.40625 -197.695312 34.785156 -197.421875 34.632812 C -197.320312 34.578125 -196.324219 34.238281 -195.207031 33.882812 C -194.09375 33.523438 -192.839844 33.097656 -192.421875 32.9375 C -192.003906 32.777344 -191.601562 32.644531 -191.527344 32.644531 C -191.453125 32.644531 -191.160156 32.535156 -190.875 32.402344 C -190.585938 32.273438 -190.046875 32.046875 -189.675781 31.902344 C -189.304688 31.757812 -188.945312 31.597656 -188.878906 31.542969 C -188.71875 31.417969 -186.582031 30.722656 -185.25 30.363281 C -183.808594 29.972656 -177.726562 27.835938 -177.460938 27.621094 C -177.382812 27.5625 -177.183594 27.46875 -177.015625 27.417969 C -176.847656 27.363281 -176.324219 27.144531 -175.847656 26.929688 C -175.375 26.714844 -174.808594 26.46875 -174.59375 26.382812 C -174.125 26.195312 -174.007812 25.957031 -174.261719 25.699219 C -174.617188 25.34375 -177.707031 25.480469 -179.65625 25.941406 C -180.0625 26.039062 -181.003906 26.230469 -181.746094 26.371094 C -182.492188 26.511719 -183.210938 26.675781 -183.34375 26.742188 C -183.480469 26.804688 -184.089844 26.96875 -184.699219 27.109375 C -185.304688 27.246094 -185.914062 27.414062 -186.050781 27.476562 C -186.183594 27.542969 -186.933594 27.757812 -187.710938 27.953125 C -190.160156 28.566406 -193.921875 29.628906 -194.285156 29.8125 C -194.519531 29.929688 -195.144531 30.113281 -198.148438 30.933594 C -198.851562 31.125 -199.597656 31.359375 -199.804688 31.457031 C -200.015625 31.554688 -200.320312 31.675781 -200.484375 31.722656 C -200.648438 31.773438 -200.953125 31.917969 -201.160156 32.042969 C -201.371094 32.171875 -201.691406 32.273438 -201.878906 32.273438 C -202.300781 32.277344 -204.519531 32.75 -204.785156 32.898438 C -204.894531 32.957031 -205.480469 33.140625 -206.089844 33.308594 C -206.695312 33.476562 -207.441406 33.695312 -207.746094 33.796875 C -208.292969 33.976562 -210.085938 34.527344 -212.480469 35.246094 C -213.15625 35.449219 -214.429688 35.835938 -215.308594 36.109375 C -216.1875 36.378906 -217.164062 36.679688 -217.480469 36.773438 C -217.800781 36.871094 -218.242188 36.949219 -218.464844 36.949219 C -219.003906 36.953125 -220.101562 37.25 -220.476562 37.492188 C -221.429688 38.117188 -227.117188 38.617188 -229.8125 38.308594 C -233.046875 37.941406 -233.855469 37.808594 -234.328125 37.5625 C -234.960938 37.234375 -236.058594 36.949219 -236.695312 36.949219 C -236.964844 36.949219 -237.828125 36.71875 -238.605469 36.441406 C -239.382812 36.160156 -240.523438 35.78125 -241.140625 35.59375 C -241.757812 35.410156 -242.324219 35.222656 -242.398438 35.175781 C -242.539062 35.085938 -244.597656 34.589844 -246.011719 34.300781 C -246.472656 34.207031 -247.273438 33.9375 -247.796875 33.703125 C -248.367188 33.449219 -249.109375 33.226562 -249.652344 33.152344 C -250.234375 33.074219 -250.648438 32.945312 -250.820312 32.792969 C -251.15625 32.488281 -251.792969 32.277344 -252.367188 32.277344 C -252.613281 32.277344 -252.867188 32.230469 -252.933594 32.171875 C -252.996094 32.113281 -253.378906 31.996094 -253.785156 31.910156 C -254.191406 31.824219 -255.65625 31.378906 -257.042969 30.921875 C -258.429688 30.464844 -259.757812 30.050781 -259.996094 30 C -260.230469 29.953125 -260.480469 29.867188 -260.546875 29.816406 C -260.613281 29.761719 -261.140625 29.59375 -261.714844 29.441406 C -262.289062 29.292969 -262.855469 29.121094 -262.96875 29.0625 C -263.082031 29.003906 -263.664062 28.820312 -264.257812 28.652344 C -264.855469 28.484375 -266.035156 28.148438 -266.878906 27.902344 C -267.722656 27.65625 -268.914062 27.320312 -269.523438 27.15625 C -270.128906 26.992188 -270.71875 26.808594 -270.832031 26.742188 C -270.945312 26.679688 -271.5 26.515625 -272.0625 26.375 C -272.625 26.234375 -273.238281 26.058594 -273.425781 25.984375 C -273.832031 25.824219 -274.132812 26.011719 -274.132812 26.425781 C -274.132812 26.8125 -273.304688 27.53125 -272.109375 28.183594 C -270.984375 28.796875 -268.328125 30.058594 -267.371094 30.433594 C -267 30.578125 -266.640625 30.738281 -266.570312 30.789062 C -266.503906 30.839844 -266.171875 30.980469 -265.832031 31.101562 C -265.496094 31.226562 -264.925781 31.457031 -264.570312 31.617188 C -264.214844 31.777344 -263.867188 31.90625 -263.804688 31.90625 C -263.742188 31.90625 -263.398438 32.039062 -263.039062 32.199219 C -262.683594 32.363281 -262.113281 32.585938 -261.777344 32.699219 C -261.4375 32.808594 -260.976562 32.988281 -260.746094 33.09375 C -260.519531 33.199219 -259.992188 33.390625 -259.578125 33.515625 C -257.332031 34.203125 -254.613281 35.144531 -253.910156 35.480469 C -252.953125 35.933594 -251.6875 36.433594 -251.144531 36.578125 C -250.042969 36.863281 -247.945312 37.585938 -247.945312 37.679688 C -247.945312 37.824219 -246.785156 38.300781 -246.441406 38.300781 C -246.070312 38.300781 -244.46875 38.839844 -243.964844 39.136719 C -243.753906 39.257812 -243.222656 39.488281 -242.785156 39.652344 C -242.34375 39.8125 -241.875 40.011719 -241.738281 40.097656 C -241.601562 40.179688 -241.160156 40.34375 -240.753906 40.457031 C -238.445312 41.117188 -234.710938 43.910156 -233.140625 46.15625 C -232.472656 47.113281 -231.898438 48.886719 -231.667969 50.722656 C -231.5625 51.566406 -231.417969 52.585938 -231.351562 52.992188 C -231.1875 53.972656 -231.019531 56.652344 -230.855469 60.925781 C -230.785156 62.851562 -230.671875 65.644531 -230.609375 67.132812 C -230.460938 70.578125 -230.277344 77.644531 -230.074219 87.789062 L -229.910156 95.78125 L -229.601562 96.464844 C -229.28125 97.179688 -228.316406 98.25 -227.394531 98.921875 C -226.746094 99.390625 -226.191406 99.386719 -226.058594 98.917969 Z M 68.730469 115.441406 C 54.679688 115.320312 41.414062 114.925781 37.875 114.519531 C 36.519531 114.363281 36.359375 114.292969 35.121094 113.296875 C 33.664062 112.125 32.34375 110.226562 26.871094 101.4375 C 25.398438 99.070312 23.332031 95.777344 22.28125 94.121094 C 10.726562 75.886719 2.097656 61.585938 1.40625 59.527344 C 0.867188 57.925781 1.277344 56.300781 3.144531 52.625 C 5.070312 48.832031 7.847656 44.082031 19.066406 25.390625 C 31.664062 4.402344 32.316406 3.363281 33.296875 2.664062 C 33.996094 2.164062 36.21875 1.167969 37.160156 0.929688 C 39.851562 0.25 42.070312 0.1875 64.613281 0.191406 C 89.230469 0.191406 95 0.308594 98.101562 0.871094 C 99.761719 1.175781 100.363281 1.589844 101.964844 3.542969 C 103.566406 5.488281 104.394531 6.699219 112.816406 19.367188 C 122.472656 33.882812 122.253906 33.566406 122.707031 33.753906 C 123.007812 33.878906 123.066406 33.972656 123.066406 34.335938 C 123.066406 34.691406 123.621094 35.613281 126.246094 39.636719 C 131.394531 47.527344 132.351562 49.066406 133.625 51.46875 C 134.550781 53.21875 134.925781 54.296875 135.242188 56.113281 C 135.496094 57.585938 135.5 57.515625 135.074219 59.882812 C 134.773438 61.5625 133.785156 63.707031 131.761719 67.070312 C 129.410156 70.984375 122.675781 81.480469 110.261719 100.578125 C 105.730469 107.546875 102.15625 112.59375 100.992188 113.664062 C 100.28125 114.320312 99.144531 114.855469 98.105469 115.015625 C 97.664062 115.085938 95.890625 115.199219 94.171875 115.261719 C 90.792969 115.390625 75.421875 115.496094 68.730469 115.441406 Z M 93.316406 109.0625 C 93.863281 108.539062 93.804688 108.207031 93.039062 107.464844 C 91.796875 106.261719 87.941406 104.136719 76.597656 98.40625 C 71.898438 96.03125 66.808594 93.4375 65.289062 92.644531 C 63.765625 91.851562 61.25 90.535156 59.695312 89.722656 C 56.476562 88.042969 55.945312 87.746094 55.945312 87.605469 C 55.945312 87.546875 56.152344 87.339844 56.40625 87.140625 C 57.671875 86.140625 60.042969 84.753906 68.117188 80.285156 C 70.582031 78.921875 73.597656 77.25 74.816406 76.574219 C 76.03125 75.898438 78.605469 74.472656 80.53125 73.402344 C 82.460938 72.332031 85.804688 70.476562 87.96875 69.28125 C 90.132812 68.085938 93.066406 66.457031 94.484375 65.660156 C 97.679688 63.871094 102.089844 61.660156 102.472656 61.660156 C 102.628906 61.660156 102.789062 61.75 102.832031 61.855469 C 103.0625 62.457031 102.773438 65.429688 100.886719 82.011719 C 99.484375 94.351562 98.890625 100.441406 98.820312 103.238281 C 98.785156 104.722656 98.933594 105.066406 99.621094 105.066406 C 100.835938 105.066406 101.585938 102.714844 102.476562 96.089844 C 102.863281 93.210938 103.5625 88.105469 105.546875 73.710938 C 105.847656 71.511719 106.269531 68.476562 106.480469 66.96875 C 107.167969 62.03125 107.617188 60.652344 108.703125 60.089844 C 109.386719 59.738281 111 59.527344 114.953125 59.265625 C 121.203125 58.855469 126.519531 58.199219 127.347656 57.738281 C 127.871094 57.445312 125.953125 57.101562 120.425781 56.5 C 112.964844 55.6875 111.5 55.496094 110.804688 55.253906 C 110.414062 55.121094 109.902344 54.953125 109.667969 54.882812 C 109.429688 54.8125 109.007812 54.621094 108.722656 54.457031 C 108.089844 54.089844 107.652344 53.261719 107.398438 51.933594 C 107.054688 50.148438 105.984375 42.492188 104.933594 34.367188 C 103.71875 24.921875 103.042969 20.066406 102.527344 17.027344 C 101.683594 12.089844 100.953125 10.265625 99.8125 10.265625 C 99.542969 10.265625 99.429688 10.34375 99.339844 10.582031 C 99.070312 11.289062 99.273438 15.3125 99.890625 21.578125 C 100.347656 26.195312 101.628906 38.515625 102.105469 42.851562 C 102.667969 47.984375 102.78125 49.386719 102.78125 51.167969 C 102.78125 52.8125 102.738281 53.054688 102.421875 53.054688 C 102 53.054688 98.554688 51.230469 94.179688 48.691406 C 93.332031 48.199219 91.203125 47.011719 89.445312 46.046875 C 87.6875 45.082031 85.308594 43.753906 84.160156 43.09375 C 83.007812 42.4375 80.742188 41.164062 79.117188 40.269531 C 77.496094 39.371094 75.476562 38.238281 74.632812 37.75 C 73.785156 37.261719 71.765625 36.128906 70.144531 35.226562 C 68.519531 34.328125 65.921875 32.859375 64.367188 31.96875 C 62.8125 31.074219 60.710938 29.886719 59.695312 29.324219 C 57.582031 28.152344 56.652344 27.542969 56.136719 27 C 55.785156 26.628906 55.78125 26.613281 56.015625 26.429688 C 56.285156 26.214844 63.640625 22.554688 69.097656 19.917969 C 81.242188 14.050781 88.554688 10.414062 91.617188 8.710938 C 93.226562 7.816406 93.761719 7.140625 93.488281 6.34375 C 93.242188 5.636719 91.761719 5.375 90.359375 5.792969 C 88.515625 6.335938 83.023438 8.664062 79.855469 10.242188 C 78.640625 10.847656 76.730469 11.742188 75.613281 12.234375 C 74.5 12.722656 73.089844 13.34375 72.480469 13.613281 C 71.871094 13.882812 69.960938 14.785156 68.238281 15.617188 C 64.082031 17.621094 55.164062 21.691406 53.257812 22.453125 C 51.375 23.207031 50.871094 23.292969 50.21875 22.953125 C 49.121094 22.386719 48.027344 20.96875 45.273438 16.539062 C 41.71875 10.828125 39.382812 7.59375 38.464844 7.121094 C 37.746094 6.746094 37.402344 7.179688 37.550781 8.269531 C 37.660156 9.070312 38.523438 11.03125 41.382812 16.976562 C 44.492188 23.445312 44.804688 24.207031 44.8125 25.265625 C 44.820312 26.019531 44.785156 26.117188 44.226562 26.957031 C 43.878906 27.476562 43.242188 28.1875 42.691406 28.667969 C 42.171875 29.117188 40.667969 30.492188 39.347656 31.722656 C 38.03125 32.949219 36.3125 34.535156 35.53125 35.238281 C 34.75 35.941406 32.292969 38.175781 30.074219 40.207031 C 27.855469 42.234375 25.285156 44.578125 24.367188 45.417969 C 21.421875 48.09375 17.136719 52.292969 16.742188 52.886719 C 16.324219 53.519531 16.253906 54.078125 16.539062 54.488281 C 17.132812 55.332031 19.035156 54.625 21.832031 52.523438 C 23.339844 51.386719 29.683594 45.972656 35.832031 40.574219 C 39.183594 37.632812 44.671875 33 45.242188 32.628906 C 45.957031 32.167969 46.433594 32.160156 46.636719 32.613281 C 46.839844 33.074219 46.816406 68.695312 46.605469 75.308594 C 46.433594 80.722656 46.40625 81.011719 46.015625 81.066406 C 45.5625 81.132812 44.964844 80.871094 43.875 80.144531 C 41.714844 78.699219 40.886719 78.035156 28.417969 67.761719 C 23.730469 63.898438 22.269531 62.738281 21.019531 61.898438 C 19.632812 60.96875 17.792969 60.0625 17.277344 60.0625 C 16.566406 60.0625 15.871094 60.914062 16.035156 61.574219 C 16.214844 62.285156 19.941406 65.886719 25.140625 70.378906 C 28.472656 73.253906 33.394531 77.496094 36.710938 80.347656 C 39.9375 83.125 43.679688 86.695312 44.28125 87.570312 C 45.109375 88.769531 45.207031 88.496094 39.996094 99.65625 C 37.492188 105.011719 36.886719 106.515625 36.796875 107.597656 C 36.742188 108.28125 36.761719 108.367188 37.027344 108.550781 C 37.890625 109.15625 38.910156 108.425781 40.601562 105.988281 C 41.632812 104.5 42.292969 103.410156 44.863281 98.945312 C 47.421875 94.507812 48.125 93.359375 48.78125 92.550781 C 49.320312 91.882812 50.324219 91.296875 50.929688 91.296875 C 51.78125 91.292969 54.007812 92.195312 58.648438 94.429688 C 60.375 95.257812 63.617188 96.796875 65.859375 97.851562 C 68.101562 98.902344 70.589844 100.09375 71.390625 100.492188 C 72.191406 100.894531 74.121094 101.820312 75.675781 102.542969 C 77.230469 103.269531 80.023438 104.597656 81.882812 105.496094 C 85.757812 107.363281 88.519531 108.578125 89.9375 109.035156 C 91.300781 109.476562 91.316406 109.480469 92.179688 109.445312 C 92.835938 109.421875 92.996094 109.367188 93.316406 109.0625 Z M 52.015625 82.691406 C 51.675781 82.0625 51.625 79.894531 51.5625 64.613281 C 51.492188 46.441406 51.640625 33.21875 51.929688 32.160156 C 52.121094 31.457031 52.375 31.167969 52.808594 31.167969 C 53.136719 31.167969 54.515625 31.835938 56.804688 33.101562 C 57.785156 33.644531 60.46875 35.125 62.769531 36.394531 C 65.066406 37.660156 67.695312 39.128906 68.609375 39.652344 C 69.519531 40.175781 71.566406 41.3125 73.15625 42.175781 C 75.820312 43.628906 87.933594 50.5 88.214844 50.722656 C 88.28125 50.773438 88.699219 50.996094 89.136719 51.21875 C 89.578125 51.4375 90.902344 52.171875 92.082031 52.84375 C 93.261719 53.519531 94.671875 54.292969 95.21875 54.5625 C 96.285156 55.09375 97.96875 56.203125 98.835938 56.945312 L 99.378906 57.410156 L 98.941406 57.785156 C 98.425781 58.230469 95.535156 59.882812 90.429688 62.648438 C 88.398438 63.746094 86.078125 65.015625 85.265625 65.472656 C 84.453125 65.929688 82.019531 67.257812 79.855469 68.425781 C 77.691406 69.59375 75.867188 70.589844 75.800781 70.640625 C 75.730469 70.691406 73.769531 71.769531 71.433594 73.039062 C 69.101562 74.304688 66.335938 75.824219 65.289062 76.414062 C 64.242188 77.003906 61.972656 78.234375 60.246094 79.148438 C 52.9375 83.027344 52.332031 83.285156 52.015625 82.691406 Z M -81.003906 115.179688 C -81.289062 115.128906 -108.523438 109.3125 -110.015625 108.984375 C -110.851562 108.800781 -112.097656 108.097656 -112.96875 107.316406 C -113.726562 106.636719 -116.007812 103.609375 -119.667969 98.425781 C -121.074219 96.429688 -123.425781 93.109375 -124.890625 91.046875 C -129.757812 84.199219 -133.796875 78.257812 -134.410156 77.046875 C -134.988281 75.910156 -136.601562 70.339844 -137.863281 65.140625 C -138.304688 63.328125 -139.023438 60.40625 -139.460938 58.648438 C -140.523438 54.382812 -140.789062 52.703125 -140.714844 50.71875 C -140.671875 49.589844 -140.589844 48.996094 -140.40625 48.480469 C -140.101562 47.644531 -138.210938 44.304688 -133.902344 37.007812 C -129.460938 29.488281 -129.070312 28.820312 -128.265625 27.355469 C -127.382812 25.761719 -122.519531 17.644531 -120.902344 15.074219 C -120.25 14.035156 -119.304688 12.625 -118.800781 11.941406 C -118.300781 11.257812 -117.804688 10.578125 -117.703125 10.429688 C -117.40625 10.003906 -116.441406 9.414062 -115.816406 9.273438 C -115.5 9.203125 -112.140625 8.3125 -108.355469 7.292969 C -104.570312 6.273438 -101.054688 5.332031 -100.550781 5.199219 C -100.042969 5.066406 -95.507812 3.847656 -90.46875 2.488281 C -81.949219 0.1875 -81.238281 0.015625 -80.265625 0.015625 C -79.347656 0.015625 -78.824219 0.125 -75.960938 0.910156 C -74.171875 1.398438 -71.929688 1.988281 -70.984375 2.21875 C -70.039062 2.445312 -67.933594 3 -66.3125 3.453125 C -64.691406 3.902344 -60.816406 4.953125 -57.707031 5.789062 C -47.0625 8.652344 -42.339844 9.921875 -41.707031 10.09375 C -41.09375 10.261719 -41.027344 10.324219 -39.917969 11.792969 C -39.285156 12.632812 -38.21875 14.28125 -37.546875 15.453125 C -36.183594 17.832031 -34.128906 21.320312 -27.800781 31.992188 C -22.511719 40.910156 -19.566406 45.96875 -18.746094 47.558594 L -18.125 48.761719 L -18.078125 50.175781 C -18.027344 51.847656 -18.175781 53.019531 -18.738281 55.269531 C -18.964844 56.179688 -19.679688 59.234375 -20.328125 62.058594 C -21.546875 67.355469 -22.753906 72.316406 -23.296875 74.242188 C -23.941406 76.53125 -24.335938 77.167969 -31.214844 86.929688 C -43.550781 104.429688 -45.503906 106.933594 -47.625 107.984375 C -49.613281 108.96875 -50.105469 109.101562 -58.457031 110.90625 C -62.980469 111.886719 -66.929688 112.746094 -67.234375 112.816406 C -67.539062 112.886719 -70.214844 113.46875 -73.183594 114.109375 C -77.832031 115.109375 -78.722656 115.269531 -79.636719 115.253906 C -80.21875 115.246094 -80.832031 115.210938 -81.003906 115.179688 Z M -78.789062 109.128906 C -77.757812 107.722656 -77.546875 105.910156 -77.128906 94.796875 C -76.804688 86.089844 -76.699219 85.484375 -75.238281 84.042969 C -74.492188 83.304688 -69.667969 79.632812 -59.796875 72.285156 C -51.554688 66.148438 -51.195312 65.890625 -49.945312 65.132812 C -48.4375 64.222656 -48.105469 64.140625 -47.296875 64.476562 C -46.308594 64.886719 -44.359375 66.089844 -39.511719 69.285156 C -33.105469 73.503906 -31.476562 74.441406 -30.539062 74.445312 C -30.066406 74.445312 -29.910156 74.339844 -29.746094 73.917969 C -29.144531 72.332031 -30.042969 71.339844 -36.929688 65.949219 C -39.488281 63.949219 -40.734375 62.945312 -43.3125 60.800781 C -45.789062 58.738281 -46.398438 57.527344 -48.546875 50.410156 C -49.078125 48.652344 -49.960938 45.71875 -50.511719 43.894531 C -51.0625 42.070312 -51.835938 39.578125 -52.230469 38.363281 C -53.640625 34.03125 -55.070312 28.945312 -55.554688 26.5625 C -56.144531 23.644531 -55.59375 22.855469 -49.941406 18.585938 C -48.101562 17.195312 -47.496094 16.609375 -47.367188 16.09375 C -47.257812 15.660156 -47.519531 14.847656 -47.890625 14.480469 C -48.148438 14.21875 -48.277344 14.183594 -48.703125 14.238281 C -49.292969 14.316406 -52.125 15.710938 -56.535156 18.085938 L -59.664062 19.773438 L -99.992188 19.59375 L -101.960938 18.46875 C -104.539062 17 -108.882812 14.804688 -109.886719 14.46875 C -110.949219 14.109375 -111.289062 14.121094 -111.617188 14.539062 C -111.839844 14.824219 -111.875 14.996094 -111.832031 15.609375 C -111.78125 16.3125 -111.753906 16.359375 -111.113281 16.9375 C -110.746094 17.269531 -109.507812 18.269531 -108.359375 19.160156 C -105.230469 21.585938 -103.789062 22.855469 -103.480469 23.457031 C -103.28125 23.847656 -103.203125 24.265625 -103.160156 25.144531 C -103.113281 26.195312 -103.144531 26.429688 -103.484375 27.480469 C -103.691406 28.121094 -104.296875 30.085938 -104.832031 31.84375 C -105.945312 35.503906 -109.109375 45.613281 -110.820312 50.964844 C -112.078125 54.902344 -113.042969 57.648438 -113.449219 58.449219 C -113.949219 59.425781 -115.539062 60.8125 -120.464844 64.558594 C -127.566406 69.957031 -130.15625 72.171875 -130.375 73.042969 C -130.539062 73.703125 -129.339844 74.816406 -128.460938 74.816406 C -127.652344 74.816406 -124.03125 72.527344 -117.515625 67.886719 C -115.65625 66.5625 -113.746094 65.269531 -113.273438 65.015625 C -112.515625 64.609375 -112.3125 64.554688 -111.550781 64.554688 C -110.796875 64.550781 -110.578125 64.609375 -109.769531 65.019531 C -108.367188 65.730469 -102.738281 69.652344 -91.144531 77.996094 C -85.875 81.789062 -83.742188 83.535156 -82.660156 84.953125 C -82.15625 85.613281 -81.96875 87.542969 -81.371094 98.242188 C -80.832031 107.855469 -80.808594 108 -79.808594 108.96875 C -79.488281 109.28125 -79.324219 109.359375 -79.121094 109.296875 C -78.972656 109.25 -78.824219 109.175781 -78.789062 109.128906 Z M -80.449219 79.875 C -81.324219 79.457031 -83.738281 77.789062 -89.976562 73.296875 C -98.894531 66.875 -103.261719 63.652344 -105.851562 61.582031 C -106.964844 60.691406 -107.324219 60.332031 -107.480469 59.941406 C -107.734375 59.308594 -107.738281 57.859375 -107.496094 56.464844 C -107.394531 55.886719 -105.992188 51.191406 -104.375 46.027344 C -102.757812 40.863281 -101.035156 35.367188 -100.550781 33.8125 C -98.949219 28.679688 -97.910156 26.03125 -97.332031 25.621094 C -96.449219 24.992188 -96.304688 24.984375 -79.03125 24.933594 L -62.980469 24.882812 L -62.355469 25.394531 C -60.933594 26.550781 -60.082031 28.371094 -58.507812 33.628906 C -54.960938 45.46875 -52.382812 53.988281 -51.96875 55.269531 C -51.300781 57.3125 -51.226562 58.296875 -51.660156 59.25 C -51.832031 59.628906 -52.242188 60.203125 -52.566406 60.527344 C -53.742188 61.699219 -62.007812 68.1875 -69.152344 73.550781 C -76.625 79.160156 -78.238281 80.222656 -79.28125 80.226562 C -79.519531 80.226562 -80.042969 80.070312 -80.449219 79.875 Z M -80.449219 79.875 " fill-opacity="1" fill-rule="nonzero"/></g></svg>