<svg xmlns="http://www.w3.org/2000/svg" xmlns:xlink="http://www.w3.org/1999/xlink" width="177" zoomAndPan="magnify" viewBox="0 0 132.75 116.249996" height="155" preserveAspectRatio="xMidYMid meet" version="1.0"><defs><clipPath id="0b2004dfce"><path d="M 0.300781 0 L 131.457031 0 L 131.457031 115.503906 L 0.300781 115.503906 Z M 0.300781 0 " clip-rule="nonzero"/></clipPath></defs><g clip-path="url(#0b2004dfce)"><path fill="#05abc4" d="M 61.320312 115.324219 C 61.027344 115.230469 60.15625 115.101562 59.390625 115.035156 C 58.621094 114.96875 57.839844 114.835938 57.652344 114.738281 C 57.464844 114.640625 56.976562 114.472656 56.570312 114.359375 C 56.164062 114.246094 55.722656 114.101562 55.585938 114.039062 C 55.34375 113.921875 54.253906 113.617188 51.59375 112.925781 C 50.816406 112.722656 50.03125 112.5 49.855469 112.429688 C 49.675781 112.359375 48.984375 112.167969 48.316406 112.007812 C 45.496094 111.328125 44.140625 110.988281 43.945312 110.90625 C 43.832031 110.859375 43.195312 110.691406 42.53125 110.53125 C 41.871094 110.367188 40.582031 110.039062 39.667969 109.792969 C 38.753906 109.550781 37.425781 109.203125 36.71875 109.019531 C 36.007812 108.835938 35.371094 108.65625 35.304688 108.613281 C 35.234375 108.574219 34.65625 108.414062 34.011719 108.261719 C 33.371094 108.109375 32.746094 107.929688 32.625 107.867188 C 32.414062 107.761719 31.113281 107.398438 28.480469 106.71875 C 27.839844 106.550781 27.226562 106.367188 27.117188 106.304688 C 27.011719 106.242188 26.457031 106.074219 25.886719 105.925781 C 25.320312 105.777344 24.6875 105.582031 24.484375 105.492188 C 24.132812 105.335938 22.699219 105.046875 21.414062 104.878906 C 20.714844 104.785156 19.339844 104.265625 19.132812 104.015625 C 18.988281 103.84375 18.359375 103.691406 16.808594 103.464844 C 16.304688 103.394531 15.835938 103.285156 15.761719 103.226562 C 15.691406 103.171875 15.21875 103.003906 14.710938 102.859375 C 14.207031 102.710938 13.585938 102.515625 13.339844 102.421875 C 13.09375 102.324219 12.429688 102.128906 11.863281 101.984375 C 11.300781 101.84375 10.785156 101.683594 10.71875 101.632812 C 10.648438 101.578125 10.234375 101.441406 9.792969 101.320312 C 9.355469 101.203125 8.828125 101.03125 8.628906 100.941406 C 8.425781 100.847656 7.953125 100.65625 7.582031 100.511719 C 6.34375 100.035156 5.007812 99.078125 3.125 97.320312 C 2.292969 96.539062 1.726562 95.71875 1.902344 95.539062 C 1.949219 95.492188 1.839844 95.332031 1.65625 95.1875 C 1.367188 94.953125 1.308594 94.785156 1.191406 93.816406 C 1.117188 93.207031 1.003906 92.515625 0.945312 92.277344 C 0.539062 90.707031 0.511719 88.523438 0.519531 58.34375 C 0.523438 35.816406 0.5625 27.488281 0.683594 24.714844 L 0.84375 21.023438 L 1.195312 20.472656 C 1.761719 19.582031 2.066406 19.164062 2.871094 18.144531 C 3.6875 17.117188 5.660156 15.308594 6.300781 15.003906 C 6.511719 14.902344 7.539062 14.625 8.578125 14.390625 C 9.621094 14.152344 10.703125 13.871094 10.984375 13.765625 C 11.613281 13.53125 13.28125 13.058594 17.640625 11.875 C 18.40625 11.667969 19.085938 11.464844 19.152344 11.425781 C 19.335938 11.3125 22.824219 10.363281 26.144531 9.527344 C 28.460938 8.945312 29.632812 8.570312 29.78125 8.367188 C 29.878906 8.234375 30.132812 8.175781 30.644531 8.171875 C 31.042969 8.171875 31.757812 8.066406 32.230469 7.9375 C 33.0625 7.710938 35.109375 7.144531 38.316406 6.246094 C 40.695312 5.582031 41.957031 5.230469 43.292969 4.863281 C 46.136719 4.078125 47.796875 3.613281 49.070312 3.253906 C 49.816406 3.046875 51.003906 2.714844 51.714844 2.523438 C 52.425781 2.328125 53.726562 1.972656 54.605469 1.730469 C 59.515625 0.382812 60.320312 0.234375 63.777344 0.0625 C 66.441406 -0.0664062 67.78125 -0.00390625 69.109375 0.320312 C 69.652344 0.453125 70.625 0.613281 71.277344 0.675781 C 72.027344 0.75 72.8125 0.917969 73.429688 1.144531 C 73.960938 1.339844 75.335938 1.757812 76.488281 2.078125 C 77.636719 2.398438 78.9375 2.765625 79.375 2.890625 C 80.199219 3.128906 82.023438 3.605469 86.691406 4.800781 C 91.972656 6.152344 92.4375 6.277344 97.15625 7.613281 C 98.4375 7.976562 99.378906 8.175781 99.824219 8.175781 C 100.371094 8.175781 100.5 8.210938 100.445312 8.351562 C 100.394531 8.480469 100.527344 8.566406 100.910156 8.660156 C 101.203125 8.730469 101.941406 8.925781 102.546875 9.09375 C 103.15625 9.257812 104.042969 9.480469 104.515625 9.585938 C 104.988281 9.691406 105.488281 9.828125 105.621094 9.894531 C 105.894531 10.023438 107.972656 10.550781 109.304688 10.828125 C 109.777344 10.929688 110.550781 11.199219 111.027344 11.433594 C 111.566406 11.699219 112.234375 11.910156 112.8125 11.996094 C 113.71875 12.132812 114.023438 12.214844 116.625 13.035156 C 120.8125 14.355469 122.703125 15.011719 123.632812 15.460938 C 124.207031 15.742188 124.703125 16 124.738281 16.039062 C 124.773438 16.078125 125.117188 16.320312 125.507812 16.582031 C 126.128906 17.003906 127.175781 18.070312 128.214844 19.34375 C 128.398438 19.570312 128.550781 19.882812 128.550781 20.042969 C 128.550781 20.207031 128.644531 20.390625 128.761719 20.453125 C 128.875 20.519531 129.113281 20.953125 129.28125 21.414062 L 129.59375 22.253906 L 129.570312 58.492188 L 129.546875 94.726562 L 128.566406 96.113281 C 127.71875 97.3125 125.890625 99.277344 124.914062 100.03125 C 124.21875 100.570312 123.152344 101.023438 122.3125 101.140625 C 121.824219 101.210938 121.160156 101.34375 120.839844 101.433594 C 120.515625 101.527344 119.558594 101.804688 118.714844 102.050781 C 117.867188 102.296875 116.652344 102.636719 116.007812 102.800781 C 115.367188 102.96875 114.730469 103.15625 114.597656 103.222656 C 114.460938 103.285156 113.960938 103.421875 113.488281 103.53125 C 113.015625 103.636719 112.214844 103.855469 111.707031 104.015625 C 109.113281 104.839844 107.953125 105.160156 105.023438 105.863281 C 104.355469 106.023438 103.664062 106.210938 103.488281 106.28125 C 103.308594 106.355469 102.609375 106.550781 101.933594 106.714844 C 100.800781 106.996094 99.628906 107.3125 96.21875 108.25 C 95.507812 108.445312 94.375 108.75 93.695312 108.929688 C 93.019531 109.105469 92.355469 109.304688 92.222656 109.367188 C 92.085938 109.433594 91.421875 109.625 90.746094 109.796875 C 90.070312 109.964844 88.824219 110.300781 87.980469 110.539062 C 87.136719 110.777344 85.863281 111.132812 85.152344 111.328125 C 84.441406 111.523438 83.253906 111.851562 82.511719 112.058594 C 79.675781 112.847656 78.40625 113.191406 77.039062 113.554688 C 76.261719 113.761719 75.515625 113.980469 75.378906 114.039062 C 75.113281 114.164062 73.148438 114.667969 71.558594 115.019531 C 69.976562 115.371094 67.957031 115.515625 64.800781 115.503906 C 62.679688 115.496094 61.707031 115.445312 61.320312 115.324219 Z M 66.351562 98.917969 C 66.804688 97.285156 66.90625 95.933594 67.136719 88.28125 C 67.242188 84.898438 67.382812 81.191406 67.453125 80.042969 C 67.519531 78.894531 67.6875 74.023438 67.820312 69.222656 C 67.953125 64.421875 68.117188 59.96875 68.183594 59.324219 C 68.253906 58.683594 68.367188 57.132812 68.441406 55.882812 C 68.589844 53.253906 68.765625 51.429688 68.925781 50.902344 C 68.984375 50.699219 69.125 50.0625 69.234375 49.488281 C 69.46875 48.292969 70.09375 46.867188 70.75 46.042969 C 71.382812 45.25 74.191406 42.726562 74.441406 42.726562 C 74.492188 42.726562 74.648438 42.621094 74.785156 42.496094 C 75.027344 42.265625 76.910156 41.25 77.085938 41.25 C 77.136719 41.25 77.464844 41.117188 77.816406 40.953125 C 78.167969 40.785156 78.8125 40.515625 79.253906 40.347656 C 80.238281 39.976562 81.550781 39.453125 82.996094 38.855469 C 83.601562 38.605469 84.398438 38.351562 84.769531 38.292969 C 85.144531 38.230469 85.726562 38.046875 86.070312 37.882812 C 86.988281 37.4375 88.660156 36.8125 90.808594 36.109375 C 92.949219 35.40625 94.710938 34.785156 94.988281 34.632812 C 95.089844 34.578125 96.085938 34.238281 97.199219 33.882812 C 98.316406 33.523438 99.570312 33.097656 99.988281 32.9375 C 100.40625 32.777344 100.804688 32.644531 100.878906 32.644531 C 100.953125 32.644531 101.25 32.535156 101.535156 32.402344 C 101.820312 32.273438 102.359375 32.046875 102.734375 31.902344 C 103.105469 31.757812 103.464844 31.597656 103.53125 31.542969 C 103.691406 31.417969 105.824219 30.722656 107.160156 30.363281 C 108.601562 29.972656 114.679688 27.835938 114.945312 27.621094 C 115.023438 27.5625 115.226562 27.46875 115.394531 27.417969 C 115.5625 27.363281 116.085938 27.144531 116.5625 26.929688 C 117.035156 26.714844 117.597656 26.46875 117.8125 26.382812 C 118.285156 26.195312 118.402344 25.957031 118.148438 25.699219 C 117.789062 25.34375 114.703125 25.480469 112.75 25.941406 C 112.347656 26.039062 111.40625 26.230469 110.660156 26.371094 C 109.917969 26.511719 109.199219 26.675781 109.0625 26.742188 C 108.929688 26.804688 108.320312 26.96875 107.710938 27.109375 C 107.101562 27.246094 106.496094 27.414062 106.359375 27.476562 C 106.222656 27.542969 105.476562 27.757812 104.699219 27.953125 C 102.246094 28.566406 98.484375 29.628906 98.121094 29.8125 C 97.890625 29.929688 97.265625 30.113281 94.261719 30.933594 C 93.558594 31.125 92.8125 31.359375 92.601562 31.457031 C 92.394531 31.554688 92.085938 31.675781 91.921875 31.722656 C 91.757812 31.773438 91.453125 31.917969 91.246094 32.042969 C 91.039062 32.171875 90.714844 32.273438 90.53125 32.273438 C 90.109375 32.277344 87.890625 32.75 87.625 32.898438 C 87.515625 32.957031 86.929688 33.140625 86.320312 33.308594 C 85.710938 33.476562 84.964844 33.695312 84.660156 33.796875 C 84.117188 33.976562 82.324219 34.527344 79.929688 35.246094 C 79.253906 35.449219 77.980469 35.835938 77.101562 36.109375 C 76.222656 36.378906 75.242188 36.679688 74.925781 36.773438 C 74.609375 36.871094 74.167969 36.949219 73.941406 36.949219 C 73.40625 36.953125 72.304688 37.25 71.933594 37.492188 C 70.980469 38.117188 65.289062 38.617188 62.59375 38.308594 C 59.363281 37.941406 58.554688 37.808594 58.082031 37.5625 C 57.449219 37.234375 56.351562 36.949219 55.714844 36.949219 C 55.441406 36.949219 54.582031 36.71875 53.804688 36.441406 C 53.027344 36.160156 51.886719 35.78125 51.269531 35.59375 C 50.652344 35.410156 50.085938 35.222656 50.011719 35.175781 C 49.867188 35.085938 47.8125 34.589844 46.394531 34.300781 C 45.9375 34.207031 45.136719 33.9375 44.613281 33.703125 C 44.042969 33.449219 43.300781 33.226562 42.757812 33.152344 C 42.171875 33.074219 41.757812 32.945312 41.589844 32.792969 C 41.253906 32.488281 40.613281 32.277344 40.042969 32.277344 C 39.796875 32.277344 39.542969 32.230469 39.476562 32.171875 C 39.414062 32.113281 39.027344 31.996094 38.621094 31.910156 C 38.21875 31.824219 36.75 31.378906 35.363281 30.921875 C 33.980469 30.464844 32.652344 30.050781 32.414062 30 C 32.179688 29.953125 31.929688 29.867188 31.863281 29.816406 C 31.792969 29.761719 31.269531 29.59375 30.695312 29.441406 C 30.117188 29.292969 29.554688 29.121094 29.441406 29.0625 C 29.328125 29.003906 28.746094 28.820312 28.148438 28.652344 C 27.554688 28.484375 26.375 28.148438 25.53125 27.902344 C 24.683594 27.65625 23.496094 27.320312 22.886719 27.15625 C 22.277344 26.992188 21.6875 26.808594 21.574219 26.742188 C 21.460938 26.679688 20.910156 26.515625 20.347656 26.375 C 19.78125 26.234375 19.171875 26.058594 18.984375 25.984375 C 18.578125 25.824219 18.277344 26.011719 18.277344 26.425781 C 18.277344 26.8125 19.105469 27.53125 20.300781 28.183594 C 21.425781 28.796875 24.082031 30.058594 25.039062 30.433594 C 25.410156 30.578125 25.769531 30.738281 25.835938 30.789062 C 25.90625 30.839844 26.238281 30.980469 26.574219 31.101562 C 26.914062 31.226562 27.480469 31.457031 27.839844 31.617188 C 28.195312 31.777344 28.539062 31.90625 28.605469 31.90625 C 28.667969 31.90625 29.011719 32.039062 29.367188 32.199219 C 29.726562 32.363281 30.292969 32.585938 30.632812 32.699219 C 30.96875 32.808594 31.433594 32.988281 31.660156 33.09375 C 31.890625 33.199219 32.414062 33.390625 32.828125 33.515625 C 35.074219 34.203125 37.796875 35.144531 38.5 35.480469 C 39.457031 35.933594 40.71875 36.433594 41.265625 36.578125 C 42.367188 36.863281 44.460938 37.585938 44.460938 37.679688 C 44.460938 37.824219 45.625 38.300781 45.96875 38.300781 C 46.339844 38.300781 47.941406 38.839844 48.445312 39.136719 C 48.65625 39.257812 49.1875 39.488281 49.625 39.652344 C 50.066406 39.8125 50.535156 40.011719 50.671875 40.097656 C 50.804688 40.179688 51.25 40.34375 51.652344 40.457031 C 53.964844 41.117188 57.695312 43.910156 59.269531 46.15625 C 59.9375 47.113281 60.507812 48.886719 60.742188 50.722656 C 60.847656 51.566406 60.988281 52.585938 61.058594 52.992188 C 61.222656 53.972656 61.390625 56.652344 61.550781 60.925781 C 61.625 62.851562 61.738281 65.644531 61.800781 67.132812 C 61.949219 70.578125 62.132812 77.644531 62.335938 87.789062 L 62.496094 95.78125 L 62.804688 96.464844 C 63.128906 97.179688 64.09375 98.25 65.015625 98.921875 C 65.664062 99.390625 66.21875 99.386719 66.351562 98.917969 Z M 361.140625 115.441406 C 347.089844 115.320312 333.820312 114.925781 330.285156 114.519531 C 328.929688 114.363281 328.765625 114.292969 327.53125 113.296875 C 326.070312 112.125 324.75 110.226562 319.28125 101.4375 C 317.804688 99.070312 315.742188 95.777344 314.691406 94.121094 C 303.136719 75.886719 294.507812 61.585938 293.816406 59.527344 C 293.277344 57.925781 293.6875 56.300781 295.554688 52.625 C 297.480469 48.832031 300.257812 44.082031 311.476562 25.390625 C 324.074219 4.402344 324.722656 3.363281 325.707031 2.664062 C 326.40625 2.164062 328.628906 1.167969 329.570312 0.929688 C 332.257812 0.25 334.480469 0.1875 357.019531 0.191406 C 381.640625 0.191406 387.40625 0.308594 390.511719 0.871094 C 392.171875 1.175781 392.769531 1.589844 394.375 3.542969 C 395.972656 5.488281 396.804688 6.699219 405.226562 19.367188 C 414.878906 33.882812 414.664062 33.566406 415.117188 33.753906 C 415.417969 33.878906 415.476562 33.972656 415.476562 34.335938 C 415.476562 34.691406 416.03125 35.613281 418.65625 39.636719 C 423.800781 47.527344 424.761719 49.066406 426.035156 51.46875 C 426.957031 53.21875 427.332031 54.296875 427.648438 56.113281 C 427.90625 57.585938 427.90625 57.515625 427.484375 59.882812 C 427.183594 61.5625 426.195312 63.707031 424.171875 67.070312 C 421.820312 70.984375 415.085938 81.480469 402.667969 100.578125 C 398.140625 107.546875 394.566406 112.59375 393.402344 113.664062 C 392.691406 114.320312 391.550781 114.855469 390.515625 115.015625 C 390.070312 115.085938 388.300781 115.199219 386.582031 115.261719 C 383.203125 115.390625 367.832031 115.496094 361.140625 115.441406 Z M 385.722656 109.0625 C 386.269531 108.539062 386.214844 108.207031 385.449219 107.464844 C 384.207031 106.261719 380.351562 104.136719 369.007812 98.40625 C 364.308594 96.03125 359.21875 93.4375 357.695312 92.644531 C 356.175781 91.851562 353.660156 90.535156 352.105469 89.722656 C 348.886719 88.042969 348.355469 87.746094 348.355469 87.605469 C 348.355469 87.546875 348.5625 87.339844 348.816406 87.140625 C 350.082031 86.140625 352.449219 84.753906 360.523438 80.285156 C 362.992188 78.921875 366.007812 77.25 367.226562 76.574219 C 368.441406 75.898438 371.015625 74.472656 372.941406 73.402344 C 374.867188 72.332031 378.214844 70.476562 380.378906 69.28125 C 382.542969 68.085938 385.472656 66.457031 386.894531 65.660156 C 390.089844 63.871094 394.5 61.660156 394.882812 61.660156 C 395.039062 61.660156 395.199219 61.75 395.242188 61.855469 C 395.46875 62.457031 395.183594 65.429688 393.296875 82.011719 C 391.890625 94.351562 391.300781 100.441406 391.230469 103.238281 C 391.191406 104.722656 391.34375 105.066406 392.03125 105.066406 C 393.246094 105.066406 393.992188 102.714844 394.882812 96.089844 C 395.269531 93.210938 395.972656 88.105469 397.953125 73.710938 C 398.257812 71.511719 398.675781 68.476562 398.890625 66.96875 C 399.578125 62.03125 400.023438 60.652344 401.109375 60.089844 C 401.796875 59.738281 403.40625 59.527344 407.363281 59.265625 C 413.609375 58.855469 418.929688 58.199219 419.757812 57.738281 C 420.28125 57.445312 418.359375 57.101562 412.832031 56.5 C 405.371094 55.6875 403.910156 55.496094 403.210938 55.253906 C 402.824219 55.121094 402.3125 54.953125 402.078125 54.882812 C 401.839844 54.8125 401.414062 54.621094 401.132812 54.457031 C 400.496094 54.089844 400.0625 53.261719 399.808594 51.933594 C 399.464844 50.148438 398.390625 42.492188 397.34375 34.367188 C 396.125 24.921875 395.453125 20.066406 394.933594 17.027344 C 394.09375 12.089844 393.363281 10.265625 392.222656 10.265625 C 391.953125 10.265625 391.835938 10.34375 391.746094 10.582031 C 391.480469 11.289062 391.679688 15.3125 392.300781 21.578125 C 392.757812 26.195312 394.039062 38.515625 394.511719 42.851562 C 395.074219 47.984375 395.1875 49.386719 395.191406 51.167969 C 395.191406 52.8125 395.144531 53.054688 394.832031 53.054688 C 394.410156 53.054688 390.964844 51.230469 386.585938 48.691406 C 385.742188 48.199219 383.613281 47.011719 381.855469 46.046875 C 380.097656 45.082031 377.71875 43.753906 376.566406 43.09375 C 375.417969 42.4375 373.148438 41.164062 371.527344 40.269531 C 369.90625 39.371094 367.886719 38.238281 367.039062 37.75 C 366.195312 37.261719 364.175781 36.128906 362.554688 35.226562 C 360.929688 34.328125 358.332031 32.859375 356.773438 31.96875 C 355.21875 31.074219 353.117188 29.886719 352.105469 29.324219 C 349.992188 28.152344 349.058594 27.542969 348.546875 27 C 348.195312 26.628906 348.191406 26.613281 348.421875 26.429688 C 348.691406 26.214844 356.050781 22.554688 361.507812 19.917969 C 373.648438 14.050781 380.964844 10.414062 384.027344 8.710938 C 385.636719 7.816406 386.171875 7.140625 385.894531 6.34375 C 385.652344 5.636719 384.171875 5.375 382.765625 5.792969 C 380.925781 6.335938 375.433594 8.664062 372.265625 10.242188 C 371.046875 10.847656 369.140625 11.742188 368.023438 12.234375 C 366.90625 12.722656 365.496094 13.34375 364.890625 13.613281 C 364.28125 13.882812 362.371094 14.785156 360.648438 15.617188 C 356.488281 17.621094 347.574219 21.691406 345.667969 22.453125 C 343.785156 23.207031 343.28125 23.292969 342.628906 22.953125 C 341.53125 22.386719 340.4375 20.96875 337.683594 16.539062 C 334.128906 10.828125 331.792969 7.59375 330.875 7.121094 C 330.15625 6.746094 329.8125 7.179688 329.960938 8.269531 C 330.070312 9.070312 330.933594 11.03125 333.789062 16.976562 C 336.898438 23.445312 337.214844 24.207031 337.222656 25.265625 C 337.230469 26.019531 337.195312 26.117188 336.636719 26.957031 C 336.289062 27.476562 335.648438 28.1875 335.097656 28.667969 C 334.582031 29.117188 333.078125 30.492188 331.757812 31.722656 C 330.441406 32.949219 328.722656 34.535156 327.941406 35.238281 C 327.15625 35.941406 324.703125 38.175781 322.484375 40.207031 C 320.265625 42.234375 317.695312 44.578125 316.773438 45.417969 C 313.828125 48.09375 309.546875 52.292969 309.152344 52.886719 C 308.734375 53.519531 308.664062 54.078125 308.949219 54.488281 C 309.542969 55.332031 311.445312 54.625 314.242188 52.523438 C 315.746094 51.386719 322.09375 45.972656 328.238281 40.574219 C 331.589844 37.632812 337.078125 33 337.652344 32.628906 C 338.367188 32.167969 338.84375 32.160156 339.046875 32.613281 C 339.25 33.074219 339.226562 68.695312 339.015625 75.308594 C 338.84375 80.722656 338.8125 81.011719 338.425781 81.066406 C 337.972656 81.132812 337.371094 80.871094 336.285156 80.144531 C 334.121094 78.699219 333.296875 78.035156 320.828125 67.761719 C 316.140625 63.898438 314.675781 62.738281 313.429688 61.898438 C 312.042969 60.96875 310.199219 60.0625 309.6875 60.0625 C 308.976562 60.0625 308.277344 60.914062 308.445312 61.574219 C 308.625 62.285156 312.351562 65.886719 317.550781 70.378906 C 320.882812 73.253906 325.804688 77.496094 329.117188 80.347656 C 332.34375 83.125 336.089844 86.695312 336.691406 87.570312 C 337.519531 88.769531 337.617188 88.496094 332.402344 99.65625 C 329.902344 105.011719 329.296875 106.515625 329.207031 107.597656 C 329.152344 108.28125 329.171875 108.367188 329.433594 108.550781 C 330.300781 109.15625 331.320312 108.425781 333.011719 105.988281 C 334.042969 104.5 334.703125 103.410156 337.273438 98.945312 C 339.828125 94.507812 340.535156 93.359375 341.1875 92.550781 C 341.730469 91.882812 342.734375 91.296875 343.339844 91.296875 C 344.191406 91.292969 346.417969 92.195312 351.058594 94.429688 C 352.78125 95.257812 356.027344 96.796875 358.269531 97.851562 C 360.507812 98.902344 363 100.09375 363.800781 100.492188 C 364.601562 100.894531 366.53125 101.820312 368.085938 102.542969 C 369.640625 103.269531 372.433594 104.597656 374.292969 105.496094 C 378.167969 107.363281 380.929688 108.578125 382.34375 109.035156 C 383.707031 109.476562 383.726562 109.480469 384.585938 109.445312 C 385.242188 109.421875 385.40625 109.367188 385.722656 109.0625 Z M 344.421875 82.691406 C 344.085938 82.0625 344.03125 79.894531 343.972656 64.613281 C 343.898438 46.441406 344.050781 33.21875 344.335938 32.160156 C 344.527344 31.457031 344.785156 31.167969 345.21875 31.167969 C 345.546875 31.167969 346.921875 31.835938 349.214844 33.101562 C 350.195312 33.644531 352.878906 35.125 355.175781 36.394531 C 357.476562 37.660156 360.105469 39.128906 361.015625 39.652344 C 361.929688 40.175781 363.976562 41.3125 365.566406 42.175781 C 368.230469 43.628906 380.34375 50.5 380.625 50.722656 C 380.691406 50.773438 381.105469 50.996094 381.546875 51.21875 C 381.984375 51.4375 383.3125 52.171875 384.492188 52.84375 C 385.671875 53.519531 387.082031 54.292969 387.625 54.5625 C 388.695312 55.09375 390.378906 56.203125 391.246094 56.945312 L 391.785156 57.410156 L 391.347656 57.785156 C 390.835938 58.230469 387.945312 59.882812 382.835938 62.648438 C 380.808594 63.746094 378.484375 65.015625 377.675781 65.472656 C 376.863281 65.929688 374.429688 67.257812 372.265625 68.425781 C 370.101562 69.59375 368.277344 70.589844 368.207031 70.640625 C 368.140625 70.691406 366.175781 71.769531 363.84375 73.039062 C 361.511719 74.304688 358.746094 75.824219 357.699219 76.414062 C 356.648438 77.003906 354.382812 78.234375 352.65625 79.148438 C 345.347656 83.027344 344.742188 83.285156 344.421875 82.691406 Z M 211.40625 115.179688 C 211.121094 115.128906 183.886719 109.3125 182.394531 108.984375 C 181.558594 108.800781 180.3125 108.097656 179.441406 107.316406 C 178.679688 106.636719 176.402344 103.609375 172.742188 98.425781 C 171.335938 96.429688 168.984375 93.109375 167.519531 91.046875 C 162.652344 84.199219 158.613281 78.257812 158 77.046875 C 157.421875 75.910156 155.804688 70.339844 154.542969 65.140625 C 154.105469 63.328125 153.386719 60.40625 152.949219 58.648438 C 151.886719 54.382812 151.621094 52.703125 151.695312 50.71875 C 151.734375 49.589844 151.816406 48.996094 152.003906 48.480469 C 152.308594 47.644531 154.199219 44.304688 158.507812 37.007812 C 162.949219 29.488281 163.339844 28.820312 164.144531 27.355469 C 165.023438 25.761719 169.890625 17.644531 171.503906 15.074219 C 172.160156 14.035156 173.105469 12.625 173.605469 11.941406 C 174.109375 11.257812 174.601562 10.578125 174.707031 10.429688 C 175 10.003906 175.964844 9.414062 176.59375 9.273438 C 176.910156 9.203125 180.265625 8.3125 184.054688 7.292969 C 187.839844 6.273438 191.351562 5.332031 191.859375 5.199219 C 192.367188 5.066406 196.902344 3.847656 201.941406 2.488281 C 210.460938 0.1875 211.171875 0.015625 212.144531 0.015625 C 213.0625 0.015625 213.585938 0.125 216.445312 0.910156 C 218.238281 1.398438 220.480469 1.988281 221.425781 2.21875 C 222.371094 2.445312 224.472656 3 226.097656 3.453125 C 227.71875 3.902344 231.59375 4.953125 234.703125 5.789062 C 245.347656 8.652344 250.070312 9.921875 250.703125 10.09375 C 251.3125 10.261719 251.378906 10.324219 252.488281 11.792969 C 253.125 12.632812 254.191406 14.28125 254.863281 15.453125 C 256.226562 17.832031 258.28125 21.320312 264.609375 31.992188 C 269.898438 40.910156 272.839844 45.96875 273.664062 47.558594 L 274.285156 48.761719 L 274.332031 50.175781 C 274.382812 51.847656 274.230469 53.019531 273.671875 55.269531 C 273.445312 56.179688 272.726562 59.234375 272.078125 62.058594 C 270.863281 67.355469 269.65625 72.316406 269.113281 74.242188 C 268.46875 76.53125 268.070312 77.167969 261.191406 86.929688 C 248.855469 104.429688 246.90625 106.933594 244.78125 107.984375 C 242.796875 108.96875 242.304688 109.101562 233.953125 110.90625 C 229.429688 111.886719 225.480469 112.746094 225.175781 112.816406 C 224.871094 112.886719 222.195312 113.46875 219.226562 114.109375 C 214.578125 115.109375 213.6875 115.269531 212.773438 115.253906 C 212.191406 115.246094 211.574219 115.210938 211.40625 115.179688 Z M 213.617188 109.128906 C 214.652344 107.722656 214.863281 105.910156 215.277344 94.796875 C 215.605469 86.089844 215.710938 85.484375 217.171875 84.042969 C 217.917969 83.304688 222.742188 79.632812 232.613281 72.285156 C 240.855469 66.148438 241.214844 65.890625 242.464844 65.132812 C 243.96875 64.222656 244.304688 64.140625 245.113281 64.476562 C 246.101562 64.886719 248.046875 66.089844 252.894531 69.285156 C 259.304688 73.503906 260.929688 74.441406 261.871094 74.445312 C 262.34375 74.445312 262.5 74.339844 262.660156 73.917969 C 263.261719 72.332031 262.367188 71.339844 255.476562 65.949219 C 252.917969 63.949219 251.675781 62.945312 249.097656 60.800781 C 246.617188 58.738281 246.007812 57.527344 243.863281 50.410156 C 243.332031 48.652344 242.449219 45.71875 241.898438 43.894531 C 241.347656 42.070312 240.574219 39.578125 240.175781 38.363281 C 238.769531 34.03125 237.335938 28.945312 236.855469 26.5625 C 236.261719 23.644531 236.816406 22.855469 242.464844 18.585938 C 244.308594 17.195312 244.914062 16.609375 245.042969 16.09375 C 245.152344 15.660156 244.886719 14.847656 244.519531 14.480469 C 244.257812 14.21875 244.132812 14.183594 243.707031 14.238281 C 243.117188 14.316406 240.285156 15.710938 235.875 18.085938 L 232.746094 19.773438 L 192.417969 19.59375 L 190.449219 18.46875 C 187.871094 17 183.527344 14.804688 182.523438 14.46875 C 181.457031 14.109375 181.121094 14.121094 180.792969 14.539062 C 180.570312 14.824219 180.535156 14.996094 180.578125 15.609375 C 180.628906 16.3125 180.652344 16.359375 181.296875 16.9375 C 181.664062 17.269531 182.902344 18.269531 184.050781 19.160156 C 187.175781 21.585938 188.621094 22.855469 188.925781 23.457031 C 189.128906 23.847656 189.207031 24.265625 189.25 25.144531 C 189.296875 26.195312 189.265625 26.429688 188.925781 27.480469 C 188.71875 28.121094 188.113281 30.085938 187.578125 31.84375 C 186.464844 35.503906 183.296875 45.613281 181.589844 50.964844 C 180.332031 54.902344 179.367188 57.648438 178.960938 58.449219 C 178.460938 59.425781 176.867188 60.8125 171.945312 64.558594 C 164.84375 69.957031 162.253906 72.171875 162.035156 73.042969 C 161.871094 73.703125 163.070312 74.816406 163.949219 74.816406 C 164.757812 74.816406 168.378906 72.527344 174.894531 67.886719 C 176.753906 66.5625 178.664062 65.269531 179.136719 65.015625 C 179.894531 64.609375 180.097656 64.554688 180.855469 64.554688 C 181.609375 64.550781 181.832031 64.609375 182.640625 65.019531 C 184.042969 65.730469 189.671875 69.652344 201.265625 77.996094 C 206.535156 81.789062 208.667969 83.535156 209.75 84.953125 C 210.253906 85.613281 210.441406 87.542969 211.039062 98.242188 C 211.578125 107.855469 211.597656 108 212.597656 108.96875 C 212.917969 109.28125 213.085938 109.359375 213.289062 109.296875 C 213.4375 109.25 213.585938 109.175781 213.617188 109.128906 Z M 211.960938 79.875 C 211.082031 79.457031 208.667969 77.789062 202.433594 73.296875 C 193.515625 66.875 189.148438 63.652344 186.558594 61.582031 C 185.441406 60.691406 185.085938 60.332031 184.929688 59.941406 C 184.675781 59.308594 184.667969 57.859375 184.914062 56.464844 C 185.011719 55.886719 186.417969 51.191406 188.035156 46.027344 C 189.652344 40.863281 191.375 35.367188 191.859375 33.8125 C 193.457031 28.679688 194.5 26.03125 195.078125 25.621094 C 195.960938 24.992188 196.105469 24.984375 213.378906 24.933594 L 229.425781 24.882812 L 230.054688 25.394531 C 231.476562 26.550781 232.328125 28.371094 233.902344 33.628906 C 237.449219 45.46875 240.023438 53.988281 240.441406 55.269531 C 241.109375 57.3125 241.183594 58.296875 240.75 59.25 C 240.574219 59.628906 240.167969 60.203125 239.84375 60.527344 C 238.667969 61.699219 230.402344 68.1875 223.257812 73.550781 C 215.785156 79.160156 214.171875 80.222656 213.128906 80.226562 C 212.890625 80.226562 212.363281 80.070312 211.960938 79.875 Z M 211.960938 79.875 " fill-opacity="1" fill-rule="nonzero"/></g></svg>