<svg xmlns="http://www.w3.org/2000/svg" xmlns:xlink="http://www.w3.org/1999/xlink" width="175" zoomAndPan="magnify" viewBox="0 0 131.25 116.249996" height="155" preserveAspectRatio="xMidYMid meet" version="1.0"><defs><clipPath id="25199d9780"><path d="M 0.046875 0 L 129.710938 0 L 129.710938 115.503906 L 0.046875 115.503906 Z M 0.046875 0 " clip-rule="nonzero"/></clipPath></defs><g clip-path="url(#25199d9780)"><path fill="#05abc4" d="M -85.855469 115.324219 C -86.152344 115.230469 -87.019531 115.101562 -87.789062 115.035156 C -88.554688 114.96875 -89.339844 114.835938 -89.527344 114.738281 C -89.714844 114.640625 -90.203125 114.472656 -90.605469 114.359375 C -91.011719 114.246094 -91.457031 114.101562 -91.589844 114.039062 C -91.835938 113.921875 -92.925781 113.617188 -95.585938 112.925781 C -96.363281 112.722656 -97.144531 112.5 -97.324219 112.429688 C -97.5 112.359375 -98.191406 112.167969 -98.859375 112.007812 C -101.683594 111.328125 -103.035156 110.988281 -103.234375 110.90625 C -103.347656 110.859375 -103.984375 110.691406 -104.648438 110.53125 C -105.308594 110.367188 -106.597656 110.039062 -107.511719 109.792969 C -108.421875 109.550781 -109.75 109.203125 -110.460938 109.019531 C -111.171875 108.835938 -111.808594 108.65625 -111.875 108.613281 C -111.941406 108.574219 -112.523438 108.414062 -113.164062 108.261719 C -113.808594 108.109375 -114.433594 107.929688 -114.554688 107.867188 C -114.765625 107.761719 -116.066406 107.398438 -118.699219 106.71875 C -119.339844 106.550781 -119.953125 106.367188 -120.058594 106.304688 C -120.167969 106.242188 -120.722656 106.074219 -121.289062 105.925781 C -121.859375 105.777344 -122.488281 105.582031 -122.691406 105.492188 C -123.046875 105.335938 -124.480469 105.046875 -125.761719 104.878906 C -126.460938 104.785156 -127.835938 104.265625 -128.042969 104.015625 C -128.1875 103.84375 -128.820312 103.691406 -130.371094 103.464844 C -130.875 103.394531 -131.34375 103.285156 -131.414062 103.226562 C -131.484375 103.171875 -131.957031 103.003906 -132.464844 102.859375 C -132.972656 102.710938 -133.589844 102.515625 -133.835938 102.421875 C -134.085938 102.324219 -134.75 102.128906 -135.3125 101.984375 C -135.878906 101.84375 -136.394531 101.683594 -136.460938 101.632812 C -136.527344 101.578125 -136.945312 101.441406 -137.382812 101.320312 C -137.824219 101.203125 -138.347656 101.03125 -138.550781 100.941406 C -138.753906 100.847656 -139.222656 100.65625 -139.597656 100.511719 C -140.835938 100.035156 -142.171875 99.078125 -144.054688 97.320312 C -144.886719 96.539062 -145.453125 95.71875 -145.277344 95.539062 C -145.230469 95.492188 -145.339844 95.332031 -145.519531 95.1875 C -145.8125 94.953125 -145.867188 94.785156 -145.988281 93.816406 C -146.0625 93.207031 -146.171875 92.515625 -146.234375 92.277344 C -146.636719 90.707031 -146.664062 88.523438 -146.660156 58.34375 C -146.65625 35.816406 -146.617188 27.488281 -146.496094 24.714844 L -146.335938 21.023438 L -145.984375 20.472656 C -145.414062 19.582031 -145.113281 19.164062 -144.304688 18.144531 C -143.492188 17.117188 -141.519531 15.308594 -140.878906 15.003906 C -140.664062 14.902344 -139.640625 14.625 -138.597656 14.390625 C -137.558594 14.152344 -136.476562 13.871094 -136.195312 13.765625 C -135.566406 13.53125 -133.898438 13.058594 -129.539062 11.875 C -128.773438 11.667969 -128.09375 11.464844 -128.023438 11.425781 C -127.839844 11.3125 -124.351562 10.363281 -121.03125 9.527344 C -118.714844 8.945312 -117.546875 8.570312 -117.398438 8.367188 C -117.296875 8.234375 -117.042969 8.175781 -116.53125 8.171875 C -116.132812 8.171875 -115.421875 8.066406 -114.949219 7.9375 C -114.117188 7.710938 -112.070312 7.144531 -108.863281 6.246094 C -106.484375 5.582031 -105.21875 5.230469 -103.882812 4.863281 C -101.039062 4.078125 -99.378906 3.613281 -98.105469 3.253906 C -97.363281 3.046875 -96.171875 2.714844 -95.464844 2.523438 C -94.753906 2.328125 -93.453125 1.972656 -92.574219 1.730469 C -87.664062 0.382812 -86.855469 0.234375 -83.402344 0.0625 C -80.738281 -0.0664062 -79.398438 -0.00390625 -78.066406 0.320312 C -77.527344 0.453125 -76.550781 0.613281 -75.902344 0.675781 C -75.152344 0.75 -74.363281 0.917969 -73.75 1.144531 C -73.21875 1.339844 -71.839844 1.757812 -70.691406 2.078125 C -69.542969 2.398438 -68.242188 2.765625 -67.804688 2.890625 C -66.976562 3.128906 -65.15625 3.605469 -60.488281 4.800781 C -55.207031 6.152344 -54.742188 6.277344 -50.023438 7.613281 C -48.738281 7.976562 -47.796875 8.175781 -47.351562 8.175781 C -46.804688 8.175781 -46.679688 8.210938 -46.734375 8.351562 C -46.78125 8.480469 -46.652344 8.566406 -46.269531 8.660156 C -45.976562 8.730469 -45.238281 8.925781 -44.628906 9.09375 C -44.019531 9.257812 -43.136719 9.480469 -42.664062 9.585938 C -42.191406 9.691406 -41.691406 9.828125 -41.554688 9.894531 C -41.285156 10.023438 -39.207031 10.550781 -37.875 10.828125 C -37.402344 10.929688 -36.628906 11.199219 -36.152344 11.433594 C -35.609375 11.699219 -34.941406 11.910156 -34.363281 11.996094 C -33.460938 12.132812 -33.15625 12.214844 -30.554688 13.035156 C -26.367188 14.355469 -24.476562 15.011719 -23.546875 15.460938 C -22.972656 15.742188 -22.472656 16 -22.441406 16.039062 C -22.40625 16.078125 -22.058594 16.320312 -21.671875 16.582031 C -21.046875 17.003906 -20 18.070312 -18.960938 19.34375 C -18.78125 19.570312 -18.628906 19.882812 -18.628906 20.042969 C -18.628906 20.207031 -18.535156 20.390625 -18.417969 20.453125 C -18.300781 20.519531 -18.066406 20.953125 -17.894531 21.414062 L -17.585938 22.253906 L -17.609375 58.492188 L -17.628906 94.726562 L -18.609375 96.113281 C -19.457031 97.3125 -21.289062 99.277344 -22.265625 100.03125 C -22.960938 100.570312 -24.027344 101.023438 -24.863281 101.140625 C -25.351562 101.210938 -26.015625 101.34375 -26.339844 101.433594 C -26.664062 101.527344 -27.617188 101.804688 -28.464844 102.050781 C -29.308594 102.296875 -30.527344 102.636719 -31.167969 102.800781 C -31.8125 102.96875 -32.445312 103.15625 -32.582031 103.222656 C -32.71875 103.285156 -33.214844 103.421875 -33.6875 103.53125 C -34.160156 103.636719 -34.964844 103.855469 -35.472656 104.015625 C -38.066406 104.839844 -39.222656 105.160156 -42.15625 105.863281 C -42.820312 106.023438 -43.511719 106.210938 -43.691406 106.28125 C -43.871094 106.355469 -44.570312 106.550781 -45.246094 106.714844 C -46.378906 106.996094 -47.550781 107.3125 -50.960938 108.25 C -51.671875 108.445312 -52.804688 108.75 -53.480469 108.929688 C -54.15625 109.105469 -54.820312 109.304688 -54.957031 109.367188 C -55.089844 109.433594 -55.753906 109.625 -56.429688 109.796875 C -57.109375 109.964844 -58.351562 110.300781 -59.199219 110.539062 C -60.042969 110.777344 -61.316406 111.132812 -62.023438 111.328125 C -62.734375 111.523438 -63.925781 111.851562 -64.667969 112.058594 C -67.503906 112.847656 -68.769531 113.191406 -70.136719 113.554688 C -70.917969 113.761719 -71.664062 113.980469 -71.796875 114.039062 C -72.066406 114.164062 -74.03125 114.667969 -75.617188 115.019531 C -77.203125 115.371094 -79.21875 115.515625 -82.378906 115.503906 C -84.496094 115.496094 -85.472656 115.445312 -85.855469 115.324219 Z M -80.828125 98.917969 C -80.371094 97.285156 -80.273438 95.933594 -80.039062 88.28125 C -79.9375 84.898438 -79.796875 81.191406 -79.726562 80.042969 C -79.65625 78.894531 -79.492188 74.023438 -79.359375 69.222656 C -79.226562 64.421875 -79.0625 59.96875 -78.992188 59.324219 C -78.925781 58.683594 -78.808594 57.132812 -78.738281 55.882812 C -78.589844 53.253906 -78.410156 51.429688 -78.253906 50.902344 C -78.195312 50.699219 -78.054688 50.0625 -77.941406 49.488281 C -77.710938 48.292969 -77.085938 46.867188 -76.425781 46.042969 C -75.796875 45.25 -72.988281 42.726562 -72.738281 42.726562 C -72.683594 42.726562 -72.53125 42.621094 -72.394531 42.496094 C -72.148438 42.265625 -70.269531 41.25 -70.089844 41.25 C -70.042969 41.25 -69.714844 41.117188 -69.363281 40.953125 C -69.011719 40.785156 -68.367188 40.515625 -67.925781 40.347656 C -66.941406 39.976562 -65.628906 39.453125 -64.183594 38.855469 C -63.578125 38.605469 -62.777344 38.351562 -62.40625 38.292969 C -62.035156 38.230469 -61.449219 38.046875 -61.109375 37.882812 C -60.191406 37.4375 -58.515625 36.8125 -56.371094 36.109375 C -54.226562 35.40625 -52.464844 34.785156 -52.191406 34.632812 C -52.089844 34.578125 -51.09375 34.238281 -49.976562 33.882812 C -48.863281 33.523438 -47.609375 33.097656 -47.191406 32.9375 C -46.773438 32.777344 -46.371094 32.644531 -46.296875 32.644531 C -46.222656 32.644531 -45.929688 32.535156 -45.644531 32.402344 C -45.355469 32.273438 -44.816406 32.046875 -44.445312 31.902344 C -44.074219 31.757812 -43.714844 31.597656 -43.648438 31.542969 C -43.484375 31.417969 -41.351562 30.722656 -40.019531 30.363281 C -38.578125 29.972656 -32.496094 27.835938 -32.230469 27.621094 C -32.152344 27.5625 -31.953125 27.46875 -31.785156 27.417969 C -31.617188 27.363281 -31.09375 27.144531 -30.617188 26.929688 C -30.144531 26.714844 -29.578125 26.46875 -29.363281 26.382812 C -28.894531 26.195312 -28.777344 25.957031 -29.03125 25.699219 C -29.386719 25.34375 -32.476562 25.480469 -34.425781 25.941406 C -34.832031 26.039062 -35.773438 26.230469 -36.515625 26.371094 C -37.261719 26.511719 -37.980469 26.675781 -38.113281 26.742188 C -38.25 26.804688 -38.859375 26.96875 -39.464844 27.109375 C -40.074219 27.246094 -40.683594 27.414062 -40.820312 27.476562 C -40.953125 27.542969 -41.699219 27.757812 -42.480469 27.953125 C -44.929688 28.566406 -48.691406 29.628906 -49.054688 29.8125 C -49.289062 29.929688 -49.914062 30.113281 -52.917969 30.933594 C -53.621094 31.125 -54.367188 31.359375 -54.574219 31.457031 C -54.785156 31.554688 -55.089844 31.675781 -55.253906 31.722656 C -55.417969 31.773438 -55.722656 31.917969 -55.929688 32.042969 C -56.140625 32.171875 -56.460938 32.273438 -56.648438 32.273438 C -57.070312 32.277344 -59.289062 32.75 -59.554688 32.898438 C -59.664062 32.957031 -60.25 33.140625 -60.855469 33.308594 C -61.464844 33.476562 -62.210938 33.695312 -62.515625 33.796875 C -63.0625 33.976562 -64.855469 34.527344 -67.25 35.246094 C -67.925781 35.449219 -69.199219 35.835938 -70.078125 36.109375 C -70.957031 36.378906 -71.933594 36.679688 -72.25 36.773438 C -72.570312 36.871094 -73.011719 36.949219 -73.234375 36.949219 C -73.773438 36.953125 -74.871094 37.25 -75.246094 37.492188 C -76.199219 38.117188 -81.886719 38.617188 -84.582031 38.308594 C -87.816406 37.941406 -88.625 37.808594 -89.097656 37.5625 C -89.730469 37.234375 -90.828125 36.949219 -91.460938 36.949219 C -91.734375 36.949219 -92.59375 36.71875 -93.375 36.441406 C -94.152344 36.160156 -95.292969 35.78125 -95.910156 35.59375 C -96.527344 35.410156 -97.09375 35.222656 -97.167969 35.175781 C -97.308594 35.085938 -99.367188 34.589844 -100.78125 34.300781 C -101.242188 34.207031 -102.042969 33.9375 -102.566406 33.703125 C -103.136719 33.449219 -103.878906 33.226562 -104.421875 33.152344 C -105.003906 33.074219 -105.417969 32.945312 -105.589844 32.792969 C -105.925781 32.488281 -106.5625 32.277344 -107.136719 32.277344 C -107.382812 32.277344 -107.636719 32.230469 -107.699219 32.171875 C -107.765625 32.113281 -108.148438 31.996094 -108.554688 31.910156 C -108.960938 31.824219 -110.425781 31.378906 -111.8125 30.921875 C -113.199219 30.464844 -114.527344 30.050781 -114.761719 30 C -115 29.953125 -115.25 29.867188 -115.316406 29.816406 C -115.382812 29.761719 -115.910156 29.59375 -116.484375 29.441406 C -117.058594 29.292969 -117.625 29.121094 -117.738281 29.0625 C -117.851562 29.003906 -118.433594 28.820312 -119.027344 28.652344 C -119.625 28.484375 -120.800781 28.148438 -121.648438 27.902344 C -122.492188 27.65625 -123.683594 27.320312 -124.289062 27.15625 C -124.898438 26.992188 -125.488281 26.808594 -125.601562 26.742188 C -125.714844 26.679688 -126.269531 26.515625 -126.832031 26.375 C -127.394531 26.234375 -128.007812 26.058594 -128.195312 25.984375 C -128.601562 25.824219 -128.902344 26.011719 -128.902344 26.425781 C -128.902344 26.8125 -128.074219 27.53125 -126.878906 28.183594 C -125.753906 28.796875 -123.09375 30.058594 -122.140625 30.433594 C -121.769531 30.578125 -121.410156 30.738281 -121.339844 30.789062 C -121.273438 30.839844 -120.941406 30.980469 -120.601562 31.101562 C -120.265625 31.226562 -119.695312 31.457031 -119.339844 31.617188 C -118.980469 31.777344 -118.636719 31.90625 -118.574219 31.90625 C -118.511719 31.90625 -118.167969 32.039062 -117.808594 32.199219 C -117.453125 32.363281 -116.882812 32.585938 -116.546875 32.699219 C -116.207031 32.808594 -115.746094 32.988281 -115.515625 33.09375 C -115.289062 33.199219 -114.761719 33.390625 -114.347656 33.515625 C -112.101562 34.203125 -109.382812 35.144531 -108.679688 35.480469 C -107.722656 35.933594 -106.457031 36.433594 -105.914062 36.578125 C -104.8125 36.863281 -102.714844 37.585938 -102.714844 37.679688 C -102.714844 37.824219 -101.554688 38.300781 -101.207031 38.300781 C -100.839844 38.300781 -99.238281 38.839844 -98.730469 39.136719 C -98.523438 39.257812 -97.992188 39.488281 -97.554688 39.652344 C -97.113281 39.8125 -96.644531 40.011719 -96.507812 40.097656 C -96.371094 40.179688 -95.929688 40.34375 -95.523438 40.457031 C -93.214844 41.117188 -89.480469 43.910156 -87.910156 46.15625 C -87.242188 47.113281 -86.667969 48.886719 -86.4375 50.722656 C -86.332031 51.566406 -86.1875 52.585938 -86.121094 52.992188 C -85.953125 53.972656 -85.789062 56.652344 -85.625 60.925781 C -85.554688 62.851562 -85.441406 65.644531 -85.378906 67.132812 C -85.230469 70.578125 -85.046875 77.644531 -84.84375 87.789062 L -84.679688 95.78125 L -84.371094 96.464844 C -84.050781 97.179688 -83.085938 98.25 -82.164062 98.921875 C -81.515625 99.390625 -80.960938 99.386719 -80.828125 98.917969 Z M 213.960938 115.441406 C 199.910156 115.320312 186.644531 114.925781 183.105469 114.519531 C 181.75 114.363281 181.589844 114.292969 180.351562 113.296875 C 178.894531 112.125 177.574219 110.226562 172.101562 101.4375 C 170.628906 99.070312 168.5625 95.777344 167.511719 94.121094 C 155.957031 75.886719 147.332031 61.585938 146.636719 59.527344 C 146.097656 57.925781 146.507812 56.300781 148.375 52.625 C 150.300781 48.832031 153.078125 44.082031 164.296875 25.390625 C 176.894531 4.402344 177.546875 3.363281 178.527344 2.664062 C 179.226562 2.164062 181.449219 1.167969 182.390625 0.929688 C 185.082031 0.25 187.300781 0.1875 209.84375 0.191406 C 234.460938 0.191406 240.230469 0.308594 243.332031 0.871094 C 244.992188 1.175781 245.59375 1.589844 247.195312 3.542969 C 248.796875 5.488281 249.625 6.699219 258.046875 19.367188 C 267.703125 33.882812 267.488281 33.566406 267.9375 33.753906 C 268.238281 33.878906 268.296875 33.972656 268.296875 34.335938 C 268.296875 34.691406 268.851562 35.613281 271.476562 39.636719 C 276.625 47.527344 277.582031 49.066406 278.855469 51.46875 C 279.78125 53.21875 280.15625 54.296875 280.472656 56.113281 C 280.726562 57.585938 280.730469 57.515625 280.304688 59.882812 C 280.003906 61.5625 279.015625 63.707031 276.992188 67.070312 C 274.640625 70.984375 267.90625 81.480469 255.492188 100.578125 C 250.960938 107.546875 247.386719 112.59375 246.222656 113.664062 C 245.511719 114.320312 244.375 114.855469 243.335938 115.015625 C 242.894531 115.085938 241.121094 115.199219 239.402344 115.261719 C 236.023438 115.390625 220.652344 115.496094 213.960938 115.441406 Z M 238.546875 109.0625 C 239.09375 108.539062 239.035156 108.207031 238.269531 107.464844 C 237.027344 106.261719 233.171875 104.136719 221.828125 98.40625 C 217.128906 96.03125 212.039062 93.4375 210.519531 92.644531 C 208.996094 91.851562 206.480469 90.535156 204.925781 89.722656 C 201.707031 88.042969 201.175781 87.746094 201.175781 87.605469 C 201.175781 87.546875 201.382812 87.339844 201.636719 87.140625 C 202.902344 86.140625 205.273438 84.753906 213.347656 80.285156 C 215.8125 78.921875 218.828125 77.25 220.046875 76.574219 C 221.261719 75.898438 223.835938 74.472656 225.761719 73.402344 C 227.691406 72.332031 231.035156 70.476562 233.199219 69.28125 C 235.363281 68.085938 238.296875 66.457031 239.714844 65.660156 C 242.910156 63.871094 247.324219 61.660156 247.703125 61.660156 C 247.859375 61.660156 248.019531 61.75 248.0625 61.855469 C 248.292969 62.457031 248.003906 65.429688 246.117188 82.011719 C 244.714844 94.351562 244.121094 100.441406 244.050781 103.238281 C 244.015625 104.722656 244.164062 105.066406 244.851562 105.066406 C 246.066406 105.066406 246.816406 102.714844 247.707031 96.089844 C 248.09375 93.210938 248.792969 88.105469 250.777344 73.710938 C 251.078125 71.511719 251.5 68.476562 251.710938 66.96875 C 252.402344 62.03125 252.847656 60.652344 253.933594 60.089844 C 254.617188 59.738281 256.230469 59.527344 260.183594 59.265625 C 266.433594 58.855469 271.75 58.199219 272.578125 57.738281 C 273.101562 57.445312 271.183594 57.101562 265.65625 56.5 C 258.195312 55.6875 256.730469 55.496094 256.035156 55.253906 C 255.644531 55.121094 255.136719 54.953125 254.898438 54.882812 C 254.660156 54.8125 254.238281 54.621094 253.953125 54.457031 C 253.320312 54.089844 252.882812 53.261719 252.628906 51.933594 C 252.289062 50.148438 251.214844 42.492188 250.167969 34.367188 C 248.949219 24.921875 248.273438 20.066406 247.757812 17.027344 C 246.917969 12.089844 246.183594 10.265625 245.042969 10.265625 C 244.777344 10.265625 244.660156 10.34375 244.570312 10.582031 C 244.300781 11.289062 244.503906 15.3125 245.121094 21.578125 C 245.578125 26.195312 246.859375 38.515625 247.335938 42.851562 C 247.898438 47.984375 248.011719 49.386719 248.011719 51.167969 C 248.015625 52.8125 247.96875 53.054688 247.652344 53.054688 C 247.230469 53.054688 243.785156 51.230469 239.410156 48.691406 C 238.5625 48.199219 236.433594 47.011719 234.675781 46.046875 C 232.917969 45.082031 230.539062 43.753906 229.390625 43.09375 C 228.238281 42.4375 225.972656 41.164062 224.347656 40.269531 C 222.726562 39.371094 220.707031 38.238281 219.863281 37.75 C 219.015625 37.261719 216.996094 36.128906 215.375 35.226562 C 213.753906 34.328125 211.152344 32.859375 209.597656 31.96875 C 208.042969 31.074219 205.941406 29.886719 204.925781 29.324219 C 202.8125 28.152344 201.882812 27.542969 201.367188 27 C 201.015625 26.628906 201.011719 26.613281 201.246094 26.429688 C 201.515625 26.214844 208.871094 22.554688 214.328125 19.917969 C 226.472656 14.050781 233.785156 10.414062 236.847656 8.710938 C 238.460938 7.816406 238.992188 7.140625 238.71875 6.34375 C 238.472656 5.636719 236.992188 5.375 235.589844 5.792969 C 233.746094 6.335938 228.253906 8.664062 225.085938 10.242188 C 223.871094 10.847656 221.960938 11.742188 220.84375 12.234375 C 219.730469 12.722656 218.320312 13.34375 217.710938 13.613281 C 217.101562 13.882812 215.195312 14.785156 213.46875 15.617188 C 209.3125 17.621094 200.394531 21.691406 198.492188 22.453125 C 196.609375 23.207031 196.101562 23.292969 195.449219 22.953125 C 194.351562 22.386719 193.257812 20.96875 190.503906 16.539062 C 186.949219 10.828125 184.613281 7.59375 183.695312 7.121094 C 182.976562 6.746094 182.632812 7.179688 182.78125 8.269531 C 182.890625 9.070312 183.753906 11.03125 186.613281 16.976562 C 189.722656 23.445312 190.039062 24.207031 190.042969 25.265625 C 190.050781 26.019531 190.015625 26.117188 189.457031 26.957031 C 189.113281 27.476562 188.472656 28.1875 187.921875 28.667969 C 187.402344 29.117188 185.898438 30.492188 184.582031 31.722656 C 183.261719 32.949219 181.542969 34.535156 180.761719 35.238281 C 179.980469 35.941406 177.523438 38.175781 175.304688 40.207031 C 173.085938 42.234375 170.515625 44.578125 169.597656 45.417969 C 166.652344 48.09375 162.367188 52.292969 161.972656 52.886719 C 161.554688 53.519531 161.484375 54.078125 161.769531 54.488281 C 162.363281 55.332031 164.265625 54.625 167.0625 52.523438 C 168.570312 51.386719 174.914062 45.972656 181.0625 40.574219 C 184.414062 37.632812 189.902344 33 190.472656 32.628906 C 191.1875 32.167969 191.664062 32.160156 191.867188 32.613281 C 192.070312 33.074219 192.046875 68.695312 191.835938 75.308594 C 191.664062 80.722656 191.636719 81.011719 191.246094 81.066406 C 190.792969 81.132812 190.195312 80.871094 189.105469 80.144531 C 186.945312 78.699219 186.117188 78.035156 173.648438 67.761719 C 168.964844 63.898438 167.5 62.738281 166.25 61.898438 C 164.863281 60.96875 163.023438 60.0625 162.507812 60.0625 C 161.796875 60.0625 161.101562 60.914062 161.265625 61.574219 C 161.445312 62.285156 165.171875 65.886719 170.371094 70.378906 C 173.703125 73.253906 178.625 77.496094 181.941406 80.347656 C 185.167969 83.125 188.910156 86.695312 189.511719 87.570312 C 190.339844 88.769531 190.4375 88.496094 185.226562 99.65625 C 182.722656 105.011719 182.117188 106.515625 182.03125 107.597656 C 181.972656 108.28125 181.992188 108.367188 182.257812 108.550781 C 183.121094 109.15625 184.140625 108.425781 185.832031 105.988281 C 186.863281 104.5 187.523438 103.410156 190.09375 98.945312 C 192.652344 94.507812 193.355469 93.359375 194.011719 92.550781 C 194.550781 91.882812 195.554688 91.296875 196.160156 91.296875 C 197.011719 91.292969 199.238281 92.195312 203.878906 94.429688 C 205.605469 95.257812 208.847656 96.796875 211.089844 97.851562 C 213.332031 98.902344 215.820312 100.09375 216.621094 100.492188 C 217.425781 100.894531 219.351562 101.820312 220.90625 102.542969 C 222.460938 103.269531 225.253906 104.597656 227.113281 105.496094 C 230.988281 107.363281 233.75 108.578125 235.167969 109.035156 C 236.53125 109.476562 236.550781 109.480469 237.410156 109.445312 C 238.066406 109.421875 238.226562 109.367188 238.546875 109.0625 Z M 197.246094 82.691406 C 196.910156 82.0625 196.855469 79.894531 196.792969 64.613281 C 196.722656 46.441406 196.871094 33.21875 197.160156 32.160156 C 197.351562 31.457031 197.605469 31.167969 198.039062 31.167969 C 198.367188 31.167969 199.746094 31.835938 202.035156 33.101562 C 203.015625 33.644531 205.699219 35.125 208 36.394531 C 210.296875 37.660156 212.925781 39.128906 213.839844 39.652344 C 214.75 40.175781 216.796875 41.3125 218.386719 42.175781 C 221.050781 43.628906 233.164062 50.5 233.445312 50.722656 C 233.515625 50.773438 233.929688 50.996094 234.367188 51.21875 C 234.808594 51.4375 236.132812 52.171875 237.3125 52.84375 C 238.492188 53.519531 239.902344 54.292969 240.449219 54.5625 C 241.515625 55.09375 243.199219 56.203125 244.066406 56.945312 L 244.609375 57.410156 L 244.171875 57.785156 C 243.65625 58.230469 240.765625 59.882812 235.660156 62.648438 C 233.628906 63.746094 231.308594 65.015625 230.496094 65.472656 C 229.683594 65.929688 227.25 67.257812 225.085938 68.425781 C 222.921875 69.59375 221.097656 70.589844 221.03125 70.640625 C 220.960938 70.691406 219 71.769531 216.664062 73.039062 C 214.332031 74.304688 211.566406 75.824219 210.519531 76.414062 C 209.472656 77.003906 207.203125 78.234375 205.480469 79.148438 C 198.167969 83.027344 197.5625 83.285156 197.246094 82.691406 Z M 64.226562 115.179688 C 63.941406 115.128906 36.707031 109.3125 35.214844 108.984375 C 34.378906 108.800781 33.132812 108.097656 32.261719 107.316406 C 31.503906 106.636719 29.222656 103.609375 25.566406 98.425781 C 24.15625 96.429688 21.804688 93.109375 20.339844 91.046875 C 15.472656 84.199219 11.433594 78.257812 10.820312 77.046875 C 10.246094 75.910156 8.628906 70.339844 7.367188 65.140625 C 6.925781 63.328125 6.207031 60.40625 5.769531 58.648438 C 4.707031 54.382812 4.441406 52.703125 4.515625 50.71875 C 4.558594 49.589844 4.640625 48.996094 4.824219 48.480469 C 5.128906 47.644531 7.019531 44.304688 11.328125 37.007812 C 15.769531 29.488281 16.160156 28.820312 16.964844 27.355469 C 17.847656 25.761719 22.714844 17.644531 24.328125 15.074219 C 24.980469 14.035156 25.925781 12.625 26.429688 11.941406 C 26.929688 11.257812 27.425781 10.578125 27.527344 10.429688 C 27.824219 10.003906 28.789062 9.414062 29.414062 9.273438 C 29.730469 9.203125 33.089844 8.3125 36.875 7.292969 C 40.660156 6.273438 44.175781 5.332031 44.679688 5.199219 C 45.1875 5.066406 49.726562 3.847656 54.761719 2.488281 C 63.28125 0.1875 63.992188 0.015625 64.964844 0.015625 C 65.882812 0.015625 66.40625 0.125 69.269531 0.910156 C 71.058594 1.398438 73.300781 1.988281 74.246094 2.21875 C 75.195312 2.445312 77.296875 3 78.917969 3.453125 C 80.542969 3.902344 84.414062 4.953125 87.523438 5.789062 C 98.171875 8.652344 102.890625 9.921875 103.523438 10.09375 C 104.136719 10.261719 104.203125 10.324219 105.3125 11.792969 C 105.945312 12.632812 107.011719 14.28125 107.683594 15.453125 C 109.046875 17.832031 111.101562 21.320312 117.429688 31.992188 C 122.71875 40.910156 125.664062 45.96875 126.484375 47.558594 L 127.105469 48.761719 L 127.152344 50.175781 C 127.203125 51.847656 127.054688 53.019531 126.492188 55.269531 C 126.265625 56.179688 125.550781 59.234375 124.902344 62.058594 C 123.683594 67.355469 122.476562 72.316406 121.933594 74.242188 C 121.289062 76.53125 120.894531 77.167969 114.015625 86.929688 C 101.679688 104.429688 99.730469 106.933594 97.605469 107.984375 C 95.621094 108.96875 95.125 109.101562 86.777344 110.90625 C 82.25 111.886719 78.300781 112.746094 77.996094 112.816406 C 77.691406 112.886719 75.015625 113.46875 72.050781 114.109375 C 67.398438 115.109375 66.507812 115.269531 65.59375 115.253906 C 65.011719 115.246094 64.398438 115.210938 64.226562 115.179688 Z M 66.441406 109.128906 C 67.472656 107.722656 67.683594 105.910156 68.101562 94.796875 C 68.425781 86.089844 68.53125 85.484375 69.992188 84.042969 C 70.738281 83.304688 75.5625 79.632812 85.433594 72.285156 C 93.675781 66.148438 94.035156 65.890625 95.285156 65.132812 C 96.792969 64.222656 97.125 64.140625 97.933594 64.476562 C 98.921875 64.886719 100.871094 66.089844 105.71875 69.285156 C 112.125 73.503906 113.753906 74.441406 114.691406 74.445312 C 115.164062 74.445312 115.320312 74.339844 115.484375 73.917969 C 116.085938 72.332031 115.1875 71.339844 108.300781 65.949219 C 105.742188 63.949219 104.496094 62.945312 101.917969 60.800781 C 99.441406 58.738281 98.832031 57.527344 96.683594 50.410156 C 96.152344 48.652344 95.269531 45.71875 94.71875 43.894531 C 94.167969 42.070312 93.394531 39.578125 93 38.363281 C 91.589844 34.03125 90.160156 28.945312 89.675781 26.5625 C 89.085938 23.644531 89.640625 22.855469 95.289062 18.585938 C 97.128906 17.195312 97.734375 16.609375 97.863281 16.09375 C 97.972656 15.660156 97.710938 14.847656 97.339844 14.480469 C 97.082031 14.21875 96.953125 14.183594 96.527344 14.238281 C 95.941406 14.316406 93.109375 15.710938 88.695312 18.085938 L 85.566406 19.773438 L 45.238281 19.59375 L 43.269531 18.46875 C 40.691406 17 36.347656 14.804688 35.34375 14.46875 C 34.28125 14.109375 33.941406 14.121094 33.613281 14.539062 C 33.390625 14.824219 33.355469 14.996094 33.398438 15.609375 C 33.449219 16.3125 33.476562 16.359375 34.117188 16.9375 C 34.484375 17.269531 35.726562 18.269531 36.875 19.160156 C 40 21.585938 41.441406 22.855469 41.75 23.457031 C 41.949219 23.847656 42.027344 24.265625 42.070312 25.144531 C 42.117188 26.195312 42.085938 26.429688 41.746094 27.480469 C 41.539062 28.121094 40.933594 30.085938 40.398438 31.84375 C 39.285156 35.503906 36.121094 45.613281 34.410156 50.964844 C 33.15625 54.902344 32.1875 57.648438 31.78125 58.449219 C 31.28125 59.425781 29.691406 60.8125 24.765625 64.558594 C 17.664062 69.957031 15.074219 72.171875 14.855469 73.042969 C 14.691406 73.703125 15.890625 74.816406 16.769531 74.816406 C 17.578125 74.816406 21.199219 72.527344 27.714844 67.886719 C 29.574219 66.5625 31.484375 65.269531 31.957031 65.015625 C 32.71875 64.609375 32.917969 64.554688 33.679688 64.554688 C 34.433594 64.550781 34.652344 64.609375 35.460938 65.019531 C 36.863281 65.730469 42.492188 69.652344 54.085938 77.996094 C 59.359375 81.789062 61.488281 83.535156 62.570312 84.953125 C 63.074219 85.613281 63.261719 87.542969 63.859375 98.242188 C 64.398438 107.855469 64.421875 108 65.421875 108.96875 C 65.742188 109.28125 65.90625 109.359375 66.109375 109.296875 C 66.257812 109.25 66.40625 109.175781 66.441406 109.128906 Z M 64.78125 79.875 C 63.90625 79.457031 61.492188 77.789062 55.253906 73.296875 C 46.335938 66.875 41.96875 63.652344 39.378906 61.582031 C 38.265625 60.691406 37.90625 60.332031 37.75 59.941406 C 37.496094 59.308594 37.492188 57.859375 37.734375 56.464844 C 37.835938 55.886719 39.238281 51.191406 40.859375 46.027344 C 42.476562 40.863281 44.195312 35.367188 44.679688 33.8125 C 46.28125 28.679688 47.320312 26.03125 47.898438 25.621094 C 48.78125 24.992188 48.925781 24.984375 66.199219 24.933594 L 82.25 24.882812 L 82.875 25.394531 C 84.296875 26.550781 85.148438 28.371094 86.722656 33.628906 C 90.269531 45.46875 92.847656 53.988281 93.261719 55.269531 C 93.929688 57.3125 94.007812 58.296875 93.570312 59.25 C 93.398438 59.628906 92.988281 60.203125 92.664062 60.527344 C 91.488281 61.699219 83.222656 68.1875 76.078125 73.550781 C 68.605469 79.160156 66.992188 80.222656 65.949219 80.226562 C 65.710938 80.226562 65.1875 80.070312 64.78125 79.875 Z M 64.78125 79.875 " fill-opacity="1" fill-rule="nonzero"/></g></svg>