<svg xmlns="http://www.w3.org/2000/svg" xmlns:xlink="http://www.w3.org/1999/xlink" width="1249" zoomAndPan="magnify" viewBox="0 0 936.75 351.749992" height="469" preserveAspectRatio="xMidYMid meet" version="1.0"><defs><g/><clipPath id="e0adeb983b"><path d="M 0.207031 0 L 936.292969 0 L 936.292969 351.5 L 0.207031 351.5 Z M 0.207031 0 " clip-rule="nonzero"/></clipPath><clipPath id="9ac99b131b"><rect x="0" width="811" y="0" height="191"/></clipPath><clipPath id="11209695ff"><path d="M 259.230469 0 L 689.425781 0 L 689.425781 116.167969 L 259.230469 116.167969 Z M 259.230469 0 " clip-rule="nonzero"/></clipPath></defs><g clip-path="url(#e0adeb983b)"><path fill="#ffffff" d="M 0.207031 0 L 936.292969 0 L 936.292969 351.5 L 0.207031 351.5 Z M 0.207031 0 " fill-opacity="1" fill-rule="nonzero"/></g><g transform="matrix(1, 0, 0, 1, 63, 97)"><g clip-path="url(#9ac99b131b)"><g fill="#ffffff" fill-opacity="1"><g transform="translate(0.298501, 155.354874)"><g><path d="M 105.578125 -110.96875 L 105.578125 0 L 73.875 0 L 39.15625 -59.125 L 38.515625 -59.125 L 38.515625 0 L 7.765625 0 L 7.765625 -110.96875 L 38.203125 -110.96875 L 74.1875 -49.78125 L 74.8125 -49.78125 L 74.8125 -110.96875 Z M 105.578125 -110.96875 "/></g></g></g><g fill="#ffffff" fill-opacity="1"><g transform="translate(113.636353, 155.354874)"><g><path d="M 86.703125 -36.78125 C 86.703125 -35.925781 86.703125 -35.15625 86.703125 -34.46875 C 86.703125 -33.789062 86.648438 -33.082031 86.546875 -32.34375 L 32.171875 -32.34375 C 33.023438 -28.113281 34.640625 -25.070312 37.015625 -23.21875 C 39.390625 -21.375 42.796875 -20.453125 47.234375 -20.453125 C 51.035156 -20.453125 53.96875 -21.082031 56.03125 -22.34375 C 58.09375 -23.613281 59.335938 -25.097656 59.765625 -26.796875 L 84.8125 -26.796875 C 83.007812 -17.492188 78.753906 -10.515625 72.046875 -5.859375 C 65.335938 -1.210938 56.488281 1.109375 45.5 1.109375 C 41.0625 1.109375 36.410156 0.394531 31.546875 -1.03125 C 26.679688 -2.457031 22.160156 -4.804688 17.984375 -8.078125 C 13.816406 -11.359375 10.410156 -15.664062 7.765625 -21 C 5.117188 -26.34375 3.796875 -32.921875 3.796875 -40.734375 C 3.796875 -48.660156 5.09375 -55.316406 7.6875 -60.703125 C 10.28125 -66.097656 13.660156 -70.457031 17.828125 -73.78125 C 22.003906 -77.113281 26.550781 -79.519531 31.46875 -81 C 36.382812 -82.476562 41.21875 -83.21875 45.96875 -83.21875 C 51.144531 -83.21875 56.160156 -82.453125 61.015625 -80.921875 C 65.878906 -79.390625 70.238281 -76.851562 74.09375 -73.3125 C 77.957031 -69.769531 81.023438 -65.015625 83.296875 -59.046875 C 85.566406 -53.078125 86.703125 -45.65625 86.703125 -36.78125 Z M 32.34375 -49.9375 L 58.8125 -49.9375 C 58.707031 -53 57.648438 -55.742188 55.640625 -58.171875 C 53.628906 -60.609375 50.40625 -61.828125 45.96875 -61.828125 C 38.46875 -61.828125 33.925781 -57.863281 32.34375 -49.9375 Z M 32.34375 -49.9375 "/></g></g></g><g fill="#ffffff" fill-opacity="1"><g transform="translate(204.148139, 155.354874)"><g><path d="M 94.15625 0 L 62.453125 0 L 48.5 -22.1875 L 34.71875 0 L 3.015625 0 L 32.171875 -43.28125 L 6.03125 -82.421875 L 37.890625 -82.421875 L 48.5 -64.359375 L 59.28125 -82.421875 L 91.140625 -82.421875 L 64.984375 -43.28125 Z M 94.15625 0 "/></g></g></g><g fill="#05abc4" fill-opacity="1"><g transform="translate(301.326226, 155.354874)"><g><path d="M 38.515625 -26.3125 L 85.4375 -26.3125 L 85.4375 0 L 7.765625 0 L 7.765625 -110.96875 L 38.515625 -110.96875 Z M 38.515625 -26.3125 "/></g></g></g><g fill="#05abc4" fill-opacity="1"><g transform="translate(390.569883, 155.354874)"><g><path d="M 61.1875 -82.421875 L 90.515625 -82.421875 L 90.515625 0 L 61.1875 0 L 61.1875 -14.421875 C 60.238281 -12.628906 58.679688 -10.488281 56.515625 -8 C 54.347656 -5.519531 51.597656 -3.378906 48.265625 -1.578125 C 44.941406 0.210938 40.953125 1.109375 36.296875 1.109375 C 30.585938 1.109375 25.539062 0 21.15625 -2.21875 C 16.769531 -4.4375 13.304688 -8.003906 10.765625 -12.921875 C 8.234375 -17.835938 6.96875 -24.414062 6.96875 -32.65625 L 6.96875 -82.421875 L 36.296875 -82.421875 L 36.296875 -34.5625 C 36.296875 -30.644531 37.429688 -27.734375 39.703125 -25.828125 C 41.972656 -23.929688 44.59375 -22.984375 47.5625 -22.984375 C 50.726562 -22.984375 53.285156 -23.722656 55.234375 -25.203125 C 57.191406 -26.679688 58.644531 -28.394531 59.59375 -30.34375 C 60.550781 -32.300781 61.082031 -33.914062 61.1875 -35.1875 Z M 61.1875 -82.421875 "/></g></g></g><g fill="#05abc4" fill-opacity="1"><g transform="translate(488.848866, 155.354874)"><g><path d="M 59.4375 -111.90625 L 88.765625 -111.90625 L 88.765625 0 L 59.4375 0 L 59.4375 -8.25 C 58.8125 -7.1875 57.726562 -5.914062 56.1875 -4.4375 C 54.65625 -2.957031 52.617188 -1.660156 50.078125 -0.546875 C 47.546875 0.554688 44.378906 1.109375 40.578125 1.109375 C 37.085938 1.109375 33.226562 0.367188 29 -1.109375 C 24.78125 -2.585938 20.765625 -4.9375 16.953125 -8.15625 C 13.148438 -11.382812 10.003906 -15.71875 7.515625 -21.15625 C 5.035156 -26.601562 3.796875 -33.289062 3.796875 -41.21875 C 3.796875 -48.925781 5.007812 -55.472656 7.4375 -60.859375 C 9.875 -66.253906 12.992188 -70.585938 16.796875 -73.859375 C 20.609375 -77.140625 24.597656 -79.519531 28.765625 -81 C 32.941406 -82.476562 36.722656 -83.21875 40.109375 -83.21875 C 43.804688 -83.21875 47 -82.632812 49.6875 -81.46875 C 52.382812 -80.3125 54.578125 -79.070312 56.265625 -77.75 C 57.960938 -76.425781 59.019531 -75.445312 59.4375 -74.8125 Z M 46.765625 -22.34375 C 50.773438 -22.34375 54.101562 -23.875 56.75 -26.9375 C 59.394531 -30.007812 60.71875 -34.769531 60.71875 -41.21875 C 60.71875 -47.34375 59.394531 -51.988281 56.75 -55.15625 C 54.101562 -58.332031 50.773438 -59.921875 46.765625 -59.921875 C 42.429688 -59.921875 38.914062 -58.441406 36.21875 -55.484375 C 33.519531 -52.523438 32.171875 -47.769531 32.171875 -41.21875 C 32.171875 -34.5625 33.519531 -29.75 36.21875 -26.78125 C 38.914062 -23.820312 42.429688 -22.34375 46.765625 -22.34375 Z M 46.765625 -22.34375 "/></g></g></g><g fill="#05abc4" fill-opacity="1"><g transform="translate(585.384183, 155.354874)"><g><path d="M 7.765625 -112.390625 L 37.09375 -112.390625 L 37.09375 -91.46875 L 7.765625 -91.46875 Z M 7.765625 -82.421875 L 37.09375 -82.421875 L 37.09375 0 L 7.765625 0 Z M 7.765625 -82.421875 "/></g></g></g><g fill="#05abc4" fill-opacity="1"><g transform="translate(630.24378, 155.354874)"><g><path d="M 45.8125 -22.515625 C 50.039062 -22.515625 52.867188 -23.539062 54.296875 -25.59375 C 55.722656 -27.65625 56.644531 -29.847656 57.0625 -32.171875 L 83.375 -32.171875 C 82.425781 -25.304688 80.601562 -19.707031 77.90625 -15.375 C 75.21875 -11.039062 72.019531 -7.65625 68.3125 -5.21875 C 64.613281 -2.789062 60.753906 -1.128906 56.734375 -0.234375 C 52.722656 0.660156 48.976562 1.109375 45.5 1.109375 C 40.84375 1.109375 36.054688 0.394531 31.140625 -1.03125 C 26.234375 -2.457031 21.71875 -4.78125 17.59375 -8 C 13.46875 -11.226562 10.132812 -15.535156 7.59375 -20.921875 C 5.0625 -26.316406 3.796875 -33.03125 3.796875 -41.0625 C 3.796875 -48.976562 5.0625 -55.628906 7.59375 -61.015625 C 10.132812 -66.410156 13.46875 -70.742188 17.59375 -74.015625 C 21.71875 -77.296875 26.207031 -79.648438 31.0625 -81.078125 C 35.925781 -82.503906 40.679688 -83.21875 45.328125 -83.21875 C 49.035156 -83.21875 52.84375 -82.796875 56.75 -81.953125 C 60.65625 -81.109375 64.378906 -79.519531 67.921875 -77.1875 C 71.460938 -74.863281 74.523438 -71.585938 77.109375 -67.359375 C 79.703125 -63.140625 81.53125 -57.648438 82.59375 -50.890625 L 55.796875 -50.890625 C 55.585938 -53.109375 54.875 -55.113281 53.65625 -56.90625 C 52.4375 -58.707031 49.769531 -59.609375 45.65625 -59.609375 C 40.789062 -59.609375 37.300781 -57.914062 35.1875 -54.53125 C 33.070312 -51.144531 32.015625 -46.65625 32.015625 -41.0625 C 32.015625 -35.25 33.097656 -30.703125 35.265625 -27.421875 C 37.429688 -24.148438 40.945312 -22.515625 45.8125 -22.515625 Z M 45.8125 -22.515625 "/></g></g></g><g fill="#05abc4" fill-opacity="1"><g transform="translate(718.377836, 155.354874)"><g><path d="M 83.0625 -25.515625 C 83.0625 -23.085938 83.613281 -21.210938 84.71875 -19.890625 C 85.832031 -18.566406 87.234375 -17.800781 88.921875 -17.59375 L 88.921875 -1.109375 C 87.234375 -0.367188 85.625 0.101562 84.09375 0.3125 C 82.5625 0.53125 80.789062 0.640625 78.78125 0.640625 C 72.96875 0.640625 67.894531 -0.570312 63.5625 -3 C 59.226562 -5.4375 57.0625 -8.875 57.0625 -13.3125 L 57.0625 -10.9375 C 56.957031 -10.832031 56.484375 -10.144531 55.640625 -8.875 C 54.796875 -7.601562 53.445312 -6.203125 51.59375 -4.671875 C 49.75 -3.140625 47.265625 -1.789062 44.140625 -0.625 C 41.023438 0.53125 37.09375 1.109375 32.34375 1.109375 C 27.789062 1.109375 23.320312 0.289062 18.9375 -1.34375 C 14.550781 -2.976562 10.929688 -5.695312 8.078125 -9.5 C 5.222656 -13.3125 3.796875 -18.390625 3.796875 -24.734375 C 3.796875 -30.015625 4.800781 -34.160156 6.8125 -37.171875 C 8.820312 -40.179688 11.4375 -42.476562 14.65625 -44.0625 C 17.882812 -45.644531 21.296875 -46.804688 24.890625 -47.546875 C 28.484375 -48.296875 31.863281 -48.984375 35.03125 -49.609375 C 39.363281 -50.460938 43.0625 -51.148438 46.125 -51.671875 C 49.1875 -52.203125 51.722656 -53.101562 53.734375 -54.375 C 53.628906 -57.125 52.941406 -59.023438 51.671875 -60.078125 C 50.410156 -61.128906 49.09375 -61.734375 47.71875 -61.890625 C 46.34375 -62.054688 45.390625 -62.140625 44.859375 -62.140625 C 43.378906 -62.140625 41.609375 -61.742188 39.546875 -60.953125 C 37.484375 -60.160156 36.191406 -58.019531 35.671875 -54.53125 L 8.078125 -54.53125 C 8.816406 -63.9375 12.195312 -71.066406 18.21875 -75.921875 C 24.25 -80.785156 33.179688 -83.21875 45.015625 -83.21875 C 54.523438 -83.21875 62.050781 -81.921875 67.59375 -79.328125 C 73.144531 -76.742188 77.109375 -72.78125 79.484375 -67.4375 C 81.867188 -62.101562 83.0625 -55.265625 83.0625 -46.921875 Z M 53.734375 -25.84375 L 53.734375 -37.5625 C 51.617188 -36.507812 49.847656 -35.742188 48.421875 -35.265625 C 46.992188 -34.796875 45.644531 -34.398438 44.375 -34.078125 C 43.113281 -33.765625 41.582031 -33.34375 39.78125 -32.8125 C 37.5625 -32.070312 35.894531 -31.171875 34.78125 -30.109375 C 33.675781 -29.054688 33.125 -27.6875 33.125 -26 C 33.125 -24.726562 33.648438 -23.328125 34.703125 -21.796875 C 35.765625 -20.265625 37.773438 -19.5 40.734375 -19.5 C 44.429688 -19.5 47.335938 -20.289062 49.453125 -21.875 C 51.566406 -23.457031 52.992188 -24.78125 53.734375 -25.84375 Z M 53.734375 -25.84375 "/></g></g></g></g></g><g clip-path="url(#11209695ff)"><path fill="#05abc4" d="M 320.601562 115.984375 C 320.304688 115.890625 319.429688 115.761719 318.660156 115.695312 C 317.886719 115.625 317.101562 115.492188 316.910156 115.394531 C 316.71875 115.300781 316.230469 115.128906 315.824219 115.015625 C 315.414062 114.902344 314.96875 114.757812 314.835938 114.691406 C 314.585938 114.574219 313.492188 114.269531 310.816406 113.574219 C 310.035156 113.371094 309.246094 113.144531 309.070312 113.074219 C 308.890625 113.003906 308.195312 112.8125 307.523438 112.652344 C 304.683594 111.96875 303.324219 111.625 303.125 111.542969 C 303.007812 111.496094 302.371094 111.324219 301.703125 111.164062 C 301.039062 111.003906 299.742188 110.667969 298.824219 110.425781 C 297.90625 110.179688 296.570312 109.828125 295.855469 109.644531 C 295.140625 109.460938 294.5 109.277344 294.433594 109.238281 C 294.367188 109.199219 293.78125 109.039062 293.136719 108.882812 C 292.488281 108.726562 291.859375 108.550781 291.738281 108.488281 C 291.527344 108.378906 290.21875 108.015625 287.570312 107.328125 C 286.925781 107.164062 286.308594 106.976562 286.199219 106.914062 C 286.09375 106.855469 285.535156 106.683594 284.964844 106.53125 C 284.394531 106.382812 283.757812 106.1875 283.554688 106.097656 C 283.199219 105.941406 281.757812 105.652344 280.464844 105.480469 C 279.761719 105.386719 278.378906 104.863281 278.171875 104.613281 C 278.027344 104.4375 277.394531 104.289062 275.832031 104.058594 C 275.324219 103.988281 274.851562 103.878906 274.78125 103.820312 C 274.710938 103.761719 274.234375 103.59375 273.722656 103.449219 C 273.214844 103.300781 272.59375 103.101562 272.34375 103.007812 C 272.097656 102.914062 271.429688 102.714844 270.859375 102.570312 C 270.292969 102.425781 269.773438 102.265625 269.707031 102.214844 C 269.636719 102.164062 269.222656 102.023438 268.777344 101.902344 C 268.335938 101.785156 267.808594 101.609375 267.605469 101.519531 C 267.398438 101.425781 266.925781 101.234375 266.554688 101.089844 C 265.304688 100.609375 263.964844 99.648438 262.070312 97.878906 C 261.234375 97.09375 260.664062 96.265625 260.839844 96.089844 C 260.886719 96.039062 260.777344 95.878906 260.59375 95.734375 C 260.300781 95.5 260.246094 95.328125 260.125 94.351562 C 260.050781 93.742188 259.9375 93.046875 259.878906 92.808594 C 259.472656 91.226562 259.445312 89.03125 259.449219 58.675781 C 259.453125 36.023438 259.492188 27.648438 259.613281 24.855469 L 259.773438 21.144531 L 260.128906 20.589844 C 260.703125 19.695312 261.003906 19.273438 261.816406 18.246094 C 262.636719 17.214844 264.621094 15.394531 265.261719 15.089844 C 265.476562 14.988281 266.507812 14.710938 267.554688 14.472656 C 268.601562 14.234375 269.691406 13.953125 269.976562 13.84375 C 270.605469 13.609375 272.285156 13.132812 276.667969 11.945312 C 277.4375 11.738281 278.125 11.53125 278.191406 11.492188 C 278.375 11.375 281.882812 10.425781 285.222656 9.582031 C 287.554688 8.996094 288.730469 8.621094 288.878906 8.417969 C 288.980469 8.28125 289.234375 8.222656 289.75 8.21875 C 290.148438 8.21875 290.867188 8.113281 291.34375 7.984375 C 292.179688 7.757812 294.238281 7.183594 297.464844 6.285156 C 299.855469 5.613281 301.125 5.261719 302.46875 4.890625 C 305.328125 4.101562 307 3.636719 308.28125 3.273438 C 309.03125 3.0625 310.226562 2.730469 310.941406 2.539062 C 311.652344 2.34375 312.960938 1.984375 313.84375 1.742188 C 318.785156 0.382812 319.59375 0.234375 323.070312 0.0625 C 325.75 -0.0664062 327.097656 -0.00390625 328.433594 0.324219 C 328.980469 0.457031 329.960938 0.617188 330.613281 0.679688 C 331.367188 0.753906 332.160156 0.925781 332.777344 1.148438 C 333.3125 1.347656 334.695312 1.769531 335.851562 2.089844 C 337.007812 2.414062 338.316406 2.78125 338.757812 2.910156 C 339.589844 3.148438 341.421875 3.625 346.113281 4.828125 C 351.429688 6.1875 351.894531 6.3125 356.640625 7.660156 C 357.929688 8.023438 358.878906 8.222656 359.324219 8.222656 C 359.875 8.222656 360.003906 8.257812 359.949219 8.402344 C 359.898438 8.527344 360.03125 8.617188 360.414062 8.710938 C 360.710938 8.78125 361.453125 8.976562 362.0625 9.144531 C 362.675781 9.3125 363.566406 9.535156 364.042969 9.640625 C 364.519531 9.746094 365.019531 9.886719 365.15625 9.949219 C 365.429688 10.078125 367.519531 10.609375 368.859375 10.890625 C 369.332031 10.992188 370.113281 11.265625 370.589844 11.5 C 371.136719 11.765625 371.808594 11.976562 372.386719 12.066406 C 373.296875 12.199219 373.605469 12.285156 376.222656 13.109375 C 380.433594 14.4375 382.335938 15.097656 383.269531 15.550781 C 383.847656 15.832031 384.347656 16.09375 384.382812 16.128906 C 384.414062 16.167969 384.761719 16.414062 385.15625 16.679688 C 385.78125 17.101562 386.835938 18.175781 387.878906 19.453125 C 388.0625 19.679688 388.214844 20 388.214844 20.160156 C 388.214844 20.320312 388.308594 20.507812 388.425781 20.574219 C 388.542969 20.636719 388.78125 21.070312 388.953125 21.535156 L 389.265625 22.382812 L 389.242188 58.824219 L 389.21875 95.269531 L 388.230469 96.664062 C 387.382812 97.871094 385.539062 99.847656 384.558594 100.605469 C 383.859375 101.144531 382.785156 101.605469 381.941406 101.722656 C 381.453125 101.789062 380.785156 101.921875 380.460938 102.015625 C 380.132812 102.109375 379.171875 102.390625 378.324219 102.636719 C 377.472656 102.886719 376.25 103.226562 375.601562 103.390625 C 374.957031 103.558594 374.316406 103.75 374.179688 103.8125 C 374.046875 103.878906 373.542969 104.015625 373.066406 104.125 C 372.59375 104.230469 371.785156 104.449219 371.277344 104.613281 C 368.664062 105.441406 367.5 105.765625 364.554688 106.46875 C 363.882812 106.632812 363.1875 106.820312 363.007812 106.890625 C 362.828125 106.964844 362.125 107.160156 361.445312 107.328125 C 360.304688 107.613281 359.125 107.929688 355.695312 108.871094 C 354.984375 109.070312 353.84375 109.375 353.164062 109.554688 C 352.484375 109.734375 351.816406 109.933594 351.679688 109.996094 C 351.542969 110.0625 350.875 110.253906 350.195312 110.425781 C 349.515625 110.597656 348.261719 110.933594 347.414062 111.171875 C 346.5625 111.414062 345.285156 111.769531 344.570312 111.964844 C 343.855469 112.164062 342.660156 112.492188 341.910156 112.703125 C 339.058594 113.492188 337.785156 113.84375 336.410156 114.207031 C 335.628906 114.414062 334.875 114.632812 334.742188 114.695312 C 334.472656 114.816406 332.496094 115.324219 330.898438 115.679688 C 329.304688 116.035156 327.277344 116.179688 324.101562 116.167969 C 321.96875 116.15625 320.988281 116.105469 320.601562 115.984375 Z M 325.65625 99.484375 C 326.117188 97.84375 326.21875 96.484375 326.449219 88.789062 C 326.554688 85.386719 326.695312 81.660156 326.765625 80.503906 C 326.835938 79.347656 327.003906 74.449219 327.136719 69.621094 C 327.269531 64.792969 327.433594 60.3125 327.503906 59.664062 C 327.574219 59.019531 327.6875 57.460938 327.761719 56.203125 C 327.910156 53.558594 328.089844 51.726562 328.246094 51.195312 C 328.308594 50.992188 328.449219 50.351562 328.5625 49.773438 C 328.792969 48.566406 329.421875 47.136719 330.085938 46.304688 C 330.71875 45.507812 333.542969 42.972656 333.796875 42.972656 C 333.847656 42.972656 334.003906 42.867188 334.140625 42.738281 C 334.386719 42.507812 336.277344 41.488281 336.457031 41.488281 C 336.507812 41.488281 336.835938 41.351562 337.191406 41.1875 C 337.542969 41.019531 338.191406 40.746094 338.636719 40.582031 C 339.625 40.207031 340.945312 39.679688 342.398438 39.078125 C 343.007812 38.828125 343.8125 38.574219 344.183594 38.511719 C 344.558594 38.453125 345.148438 38.265625 345.492188 38.097656 C 346.414062 37.652344 348.097656 37.023438 350.257812 36.316406 C 352.410156 35.609375 354.183594 34.984375 354.460938 34.832031 C 354.5625 34.777344 355.5625 34.4375 356.6875 34.074219 C 357.808594 33.714844 359.070312 33.289062 359.488281 33.125 C 359.910156 32.964844 360.3125 32.832031 360.386719 32.832031 C 360.460938 32.832031 360.757812 32.722656 361.046875 32.589844 C 361.335938 32.457031 361.875 32.230469 362.25 32.085938 C 362.625 31.941406 362.984375 31.777344 363.054688 31.722656 C 363.214844 31.597656 365.359375 30.898438 366.699219 30.535156 C 368.152344 30.144531 374.265625 27.996094 374.535156 27.78125 C 374.613281 27.71875 374.8125 27.625 374.984375 27.574219 C 375.152344 27.523438 375.679688 27.300781 376.15625 27.085938 C 376.632812 26.867188 377.203125 26.621094 377.417969 26.535156 C 377.890625 26.347656 378.007812 26.105469 377.753906 25.847656 C 377.394531 25.488281 374.289062 25.628906 372.328125 26.089844 C 371.917969 26.1875 370.972656 26.382812 370.226562 26.523438 C 369.476562 26.664062 368.753906 26.832031 368.617188 26.894531 C 368.480469 26.957031 367.871094 27.125 367.257812 27.261719 C 366.644531 27.402344 366.035156 27.570312 365.898438 27.636719 C 365.761719 27.703125 365.011719 27.917969 364.226562 28.113281 C 361.761719 28.730469 357.980469 29.800781 357.613281 29.984375 C 357.378906 30.101562 356.75 30.285156 353.730469 31.109375 C 353.023438 31.304688 352.273438 31.539062 352.0625 31.636719 C 351.851562 31.734375 351.542969 31.855469 351.378906 31.90625 C 351.210938 31.957031 350.90625 32.101562 350.699219 32.226562 C 350.488281 32.355469 350.164062 32.460938 349.976562 32.460938 C 349.550781 32.460938 347.324219 32.9375 347.054688 33.085938 C 346.945312 33.144531 346.355469 33.332031 345.742188 33.5 C 345.132812 33.667969 344.382812 33.890625 344.074219 33.992188 C 343.527344 34.171875 341.722656 34.722656 339.316406 35.449219 C 338.636719 35.652344 337.355469 36.042969 336.472656 36.316406 C 335.585938 36.585938 334.601562 36.886719 334.285156 36.984375 C 333.964844 37.082031 333.519531 37.160156 333.296875 37.160156 C 332.753906 37.164062 331.648438 37.460938 331.273438 37.707031 C 330.3125 38.335938 324.59375 38.835938 321.882812 38.53125 C 318.628906 38.160156 317.816406 38.027344 317.339844 37.777344 C 316.707031 37.449219 315.601562 37.160156 314.964844 37.160156 C 314.6875 37.160156 313.824219 36.929688 313.042969 36.648438 C 312.257812 36.367188 311.113281 35.984375 310.492188 35.800781 C 309.871094 35.613281 309.300781 35.421875 309.226562 35.378906 C 309.082031 35.289062 307.011719 34.789062 305.589844 34.496094 C 305.128906 34.402344 304.320312 34.132812 303.796875 33.898438 C 303.222656 33.640625 302.476562 33.417969 301.929688 33.34375 C 301.34375 33.261719 300.925781 33.132812 300.757812 32.980469 C 300.417969 32.675781 299.777344 32.460938 299.199219 32.460938 C 298.953125 32.460938 298.695312 32.414062 298.632812 32.355469 C 298.566406 32.300781 298.179688 32.179688 297.773438 32.09375 C 297.363281 32.007812 295.890625 31.558594 294.496094 31.101562 C 293.101562 30.640625 291.765625 30.222656 291.527344 30.175781 C 291.289062 30.125 291.039062 30.039062 290.972656 29.984375 C 290.902344 29.933594 290.375 29.765625 289.796875 29.613281 C 289.21875 29.460938 288.652344 29.285156 288.539062 29.226562 C 288.421875 29.167969 287.839844 28.984375 287.238281 28.816406 C 286.640625 28.648438 285.453125 28.308594 284.605469 28.0625 C 283.753906 27.816406 282.558594 27.480469 281.945312 27.3125 C 281.335938 27.148438 280.742188 26.960938 280.628906 26.898438 C 280.515625 26.835938 279.957031 26.667969 279.390625 26.527344 C 278.824219 26.382812 278.207031 26.207031 278.019531 26.132812 C 277.613281 25.972656 277.308594 26.160156 277.308594 26.578125 C 277.308594 26.964844 278.144531 27.6875 279.34375 28.34375 C 280.472656 28.960938 283.148438 30.230469 284.109375 30.609375 C 284.484375 30.753906 284.84375 30.914062 284.914062 30.964844 C 284.980469 31.015625 285.316406 31.160156 285.65625 31.28125 C 285.996094 31.402344 286.566406 31.636719 286.925781 31.796875 C 287.285156 31.957031 287.632812 32.089844 287.695312 32.089844 C 287.757812 32.089844 288.105469 32.222656 288.464844 32.386719 C 288.824219 32.546875 289.394531 32.773438 289.734375 32.886719 C 290.074219 32.996094 290.542969 33.175781 290.769531 33.28125 C 291 33.390625 291.527344 33.582031 291.945312 33.707031 C 294.203125 34.398438 296.941406 35.347656 297.648438 35.683594 C 298.609375 36.140625 299.882812 36.644531 300.429688 36.785156 C 301.539062 37.074219 303.644531 37.800781 303.644531 37.898438 C 303.644531 38.039062 304.8125 38.519531 305.160156 38.519531 C 305.53125 38.519531 307.144531 39.0625 307.652344 39.359375 C 307.863281 39.484375 308.394531 39.714844 308.835938 39.878906 C 309.28125 40.039062 309.753906 40.242188 309.890625 40.324219 C 310.023438 40.410156 310.46875 40.574219 310.878906 40.691406 C 313.199219 41.351562 316.957031 44.160156 318.535156 46.421875 C 319.207031 47.382812 319.785156 49.167969 320.015625 51.015625 C 320.125 51.863281 320.269531 52.890625 320.335938 53.296875 C 320.503906 54.285156 320.667969 56.976562 320.832031 61.273438 C 320.90625 63.210938 321.019531 66.023438 321.082031 67.519531 C 321.230469 70.984375 321.414062 78.089844 321.621094 88.292969 L 321.785156 96.332031 L 322.09375 97.019531 C 322.417969 97.738281 323.390625 98.816406 324.316406 99.488281 C 324.96875 99.960938 325.527344 99.957031 325.65625 99.484375 Z M 622.140625 116.101562 C 608.007812 115.980469 594.664062 115.582031 591.109375 115.175781 C 589.742188 115.019531 589.582031 114.949219 588.335938 113.945312 C 586.871094 112.765625 585.542969 110.859375 580.039062 102.019531 C 578.554688 99.640625 576.480469 96.328125 575.425781 94.660156 C 563.804688 76.320312 555.125 61.941406 554.429688 59.871094 C 553.886719 58.257812 554.300781 56.625 556.175781 52.925781 C 558.113281 49.113281 560.90625 44.335938 572.191406 25.535156 C 584.859375 4.425781 585.515625 3.382812 586.5 2.679688 C 587.207031 2.175781 589.441406 1.171875 590.386719 0.933594 C 593.09375 0.25 595.328125 0.191406 617.996094 0.191406 C 642.757812 0.191406 648.558594 0.308594 651.679688 0.878906 C 653.347656 1.179688 653.953125 1.597656 655.566406 3.5625 C 657.171875 5.523438 658.007812 6.738281 666.480469 19.476562 C 676.1875 34.074219 675.972656 33.761719 676.425781 33.949219 C 676.726562 34.074219 676.789062 34.167969 676.789062 34.53125 C 676.789062 34.890625 677.34375 35.820312 679.984375 39.863281 C 685.160156 47.800781 686.125 49.347656 687.40625 51.765625 C 688.335938 53.523438 688.714844 54.605469 689.03125 56.433594 C 689.289062 57.917969 689.289062 57.847656 688.863281 60.226562 C 688.5625 61.914062 687.570312 64.070312 685.535156 67.457031 C 683.167969 71.390625 676.394531 81.949219 663.90625 101.152344 C 659.351562 108.160156 655.757812 113.238281 654.585938 114.316406 C 653.871094 114.976562 652.726562 115.511719 651.683594 115.675781 C 651.238281 115.746094 649.457031 115.859375 647.726562 115.921875 C 644.328125 116.050781 628.867188 116.160156 622.140625 116.101562 Z M 646.863281 109.6875 C 647.414062 109.160156 647.355469 108.828125 646.585938 108.082031 C 645.335938 106.871094 641.460938 104.734375 630.050781 98.96875 C 625.324219 96.582031 620.207031 93.976562 618.675781 93.175781 C 617.148438 92.375 614.617188 91.054688 613.050781 90.238281 C 609.8125 88.550781 609.28125 88.246094 609.28125 88.105469 C 609.28125 88.050781 609.488281 87.839844 609.746094 87.640625 C 611.015625 86.636719 613.398438 85.242188 621.519531 80.746094 C 624.003906 79.375 627.035156 77.695312 628.257812 77.015625 C 629.484375 76.335938 632.070312 74.898438 634.007812 73.824219 C 635.945312 72.746094 639.3125 70.882812 641.488281 69.679688 C 643.664062 68.476562 646.613281 66.835938 648.042969 66.035156 C 651.253906 64.238281 655.691406 62.015625 656.074219 62.015625 C 656.230469 62.015625 656.394531 62.105469 656.433594 62.210938 C 656.667969 62.8125 656.378906 65.804688 654.480469 82.480469 C 653.066406 94.894531 652.472656 101.019531 652.402344 103.828125 C 652.363281 105.324219 652.515625 105.667969 653.207031 105.667969 C 654.429688 105.667969 655.179688 103.304688 656.078125 96.640625 C 656.464844 93.746094 657.171875 88.609375 659.164062 74.132812 C 659.46875 71.921875 659.890625 68.871094 660.105469 67.351562 C 660.800781 62.386719 661.246094 61 662.339844 60.4375 C 663.03125 60.082031 664.648438 59.867188 668.628906 59.605469 C 674.910156 59.195312 680.257812 58.535156 681.09375 58.066406 C 681.621094 57.773438 679.6875 57.429688 674.128906 56.824219 C 666.625 56.007812 665.15625 55.816406 664.453125 55.574219 C 664.0625 55.4375 663.546875 55.269531 663.3125 55.195312 C 663.074219 55.125 662.644531 54.933594 662.363281 54.769531 C 661.722656 54.402344 661.285156 53.566406 661.027344 52.230469 C 660.683594 50.433594 659.605469 42.738281 658.550781 34.5625 C 657.328125 25.066406 656.648438 20.179688 656.128906 17.125 C 655.28125 12.160156 654.546875 10.324219 653.398438 10.324219 C 653.128906 10.324219 653.011719 10.402344 652.921875 10.644531 C 652.652344 11.351562 652.855469 15.402344 653.480469 21.703125 C 653.9375 26.34375 655.226562 38.738281 655.703125 43.09375 C 656.269531 48.261719 656.382812 49.671875 656.386719 51.464844 C 656.386719 53.113281 656.339844 53.359375 656.023438 53.359375 C 655.601562 53.359375 652.132812 51.523438 647.730469 48.96875 C 646.882812 48.476562 644.738281 47.28125 642.972656 46.308594 C 641.203125 45.339844 638.8125 44.003906 637.65625 43.34375 C 636.5 42.679688 634.21875 41.402344 632.585938 40.5 C 630.953125 39.597656 628.921875 38.457031 628.074219 37.964844 C 627.222656 37.476562 625.191406 36.335938 623.5625 35.429688 C 621.929688 34.523438 619.3125 33.050781 617.75 32.152344 C 616.1875 31.253906 614.070312 30.054688 613.050781 29.492188 C 610.925781 28.3125 609.992188 27.703125 609.472656 27.15625 C 609.117188 26.78125 609.117188 26.765625 609.351562 26.582031 C 609.621094 26.367188 617.019531 22.683594 622.511719 20.03125 C 634.722656 14.132812 642.078125 10.472656 645.15625 8.761719 C 646.777344 7.859375 647.316406 7.179688 647.039062 6.382812 C 646.792969 5.671875 645.300781 5.40625 643.890625 5.824219 C 642.039062 6.375 636.515625 8.714844 633.328125 10.300781 C 632.105469 10.910156 630.183594 11.8125 629.0625 12.304688 C 627.941406 12.796875 626.523438 13.421875 625.910156 13.691406 C 625.296875 13.964844 623.378906 14.871094 621.644531 15.707031 C 617.460938 17.722656 608.496094 21.816406 606.578125 22.582031 C 604.6875 23.339844 604.175781 23.425781 603.523438 23.085938 C 602.417969 22.515625 601.316406 21.085938 598.546875 16.636719 C 594.972656 10.890625 592.625 7.636719 591.699219 7.160156 C 590.976562 6.785156 590.632812 7.222656 590.78125 8.316406 C 590.890625 9.121094 591.761719 11.09375 594.632812 17.074219 C 597.761719 23.578125 598.078125 24.347656 598.085938 25.410156 C 598.089844 26.171875 598.058594 26.265625 597.496094 27.113281 C 597.148438 27.636719 596.503906 28.351562 595.949219 28.832031 C 595.425781 29.285156 593.914062 30.667969 592.589844 31.902344 C 591.261719 33.140625 589.535156 34.730469 588.75 35.441406 C 587.960938 36.148438 585.492188 38.394531 583.261719 40.4375 C 581.027344 42.476562 578.445312 44.835938 577.519531 45.675781 C 574.558594 48.371094 570.25 52.59375 569.851562 53.191406 C 569.433594 53.828125 569.363281 54.386719 569.648438 54.800781 C 570.246094 55.648438 572.160156 54.941406 574.972656 52.824219 C 576.484375 51.683594 582.867188 46.234375 589.050781 40.808594 C 592.421875 37.847656 597.941406 33.1875 598.515625 32.816406 C 599.238281 32.351562 599.714844 32.347656 599.917969 32.800781 C 600.125 33.261719 600.097656 69.085938 599.886719 75.742188 C 599.714844 81.183594 599.6875 81.476562 599.292969 81.53125 C 598.839844 81.597656 598.234375 81.335938 597.140625 80.605469 C 594.96875 79.148438 594.136719 78.484375 581.59375 68.148438 C 576.882812 64.265625 575.410156 63.097656 574.15625 62.253906 C 572.761719 61.316406 570.90625 60.40625 570.390625 60.40625 C 569.675781 60.40625 568.976562 61.261719 569.140625 61.929688 C 569.320312 62.640625 573.070312 66.265625 578.300781 70.78125 C 581.652344 73.675781 586.601562 77.941406 589.933594 80.808594 C 593.179688 83.601562 596.945312 87.191406 597.550781 88.070312 C 598.382812 89.277344 598.480469 89.003906 593.238281 100.226562 C 590.722656 105.613281 590.113281 107.125 590.023438 108.214844 C 589.96875 108.902344 589.988281 108.988281 590.253906 109.175781 C 591.121094 109.785156 592.148438 109.046875 593.851562 106.59375 C 594.886719 105.101562 595.550781 104.003906 598.136719 99.515625 C 600.707031 95.050781 601.414062 93.894531 602.074219 93.082031 C 602.617188 92.410156 603.628906 91.820312 604.234375 91.820312 C 605.09375 91.816406 607.332031 92.726562 612 94.972656 C 613.734375 95.804688 616.996094 97.355469 619.25 98.410156 C 621.503906 99.46875 624.007812 100.667969 624.816406 101.070312 C 625.621094 101.472656 627.5625 102.402344 629.125 103.132812 C 630.6875 103.863281 633.5 105.199219 635.367188 106.101562 C 639.265625 107.980469 642.042969 109.199219 643.464844 109.660156 C 644.835938 110.101562 644.855469 110.105469 645.722656 110.074219 C 646.382812 110.050781 646.542969 109.996094 646.863281 109.6875 Z M 605.328125 83.167969 C 604.988281 82.535156 604.933594 80.351562 604.875 64.984375 C 604.800781 46.707031 604.949219 33.410156 605.242188 32.34375 C 605.433594 31.636719 605.691406 31.347656 606.128906 31.347656 C 606.457031 31.347656 607.839844 32.019531 610.144531 33.292969 C 611.132812 33.835938 613.832031 35.328125 616.140625 36.601562 C 618.453125 37.878906 621.097656 39.351562 622.015625 39.878906 C 622.933594 40.40625 624.992188 41.546875 626.589844 42.417969 C 629.269531 43.878906 641.453125 50.789062 641.734375 51.011719 C 641.804688 51.066406 642.222656 51.289062 642.664062 51.511719 C 643.105469 51.734375 644.4375 52.46875 645.625 53.148438 C 646.8125 53.828125 648.230469 54.605469 648.777344 54.875 C 649.851562 55.410156 651.546875 56.523438 652.417969 57.273438 L 652.960938 57.738281 L 652.523438 58.117188 C 652.003906 58.566406 649.097656 60.222656 643.960938 63.007812 C 641.921875 64.109375 639.585938 65.390625 638.769531 65.847656 C 637.953125 66.304688 635.503906 67.640625 633.328125 68.816406 C 631.152344 69.992188 629.316406 70.992188 629.25 71.046875 C 629.179688 71.097656 627.207031 72.179688 624.859375 73.457031 C 622.511719 74.730469 619.730469 76.261719 618.675781 76.851562 C 617.625 77.445312 615.34375 78.683594 613.609375 79.605469 C 606.257812 83.503906 605.648438 83.765625 605.328125 83.167969 Z M 471.546875 115.839844 C 471.257812 115.789062 443.867188 109.9375 442.367188 109.609375 C 441.527344 109.425781 440.273438 108.714844 439.398438 107.929688 C 438.632812 107.246094 436.339844 104.203125 432.660156 98.988281 C 431.246094 96.984375 428.882812 93.644531 427.40625 91.570312 C 422.515625 84.683594 418.449219 78.707031 417.835938 77.492188 C 417.253906 76.34375 415.628906 70.742188 414.359375 65.515625 C 413.914062 63.691406 413.195312 60.753906 412.753906 58.984375 C 411.6875 54.695312 411.417969 53.003906 411.492188 51.007812 C 411.535156 49.871094 411.617188 49.277344 411.804688 48.761719 C 412.109375 47.917969 414.011719 44.558594 418.34375 37.222656 C 422.808594 29.65625 423.203125 28.984375 424.015625 27.515625 C 424.898438 25.910156 429.792969 17.746094 431.417969 15.164062 C 432.074219 14.117188 433.023438 12.699219 433.53125 12.007812 C 434.035156 11.320312 434.53125 10.636719 434.636719 10.488281 C 434.933594 10.0625 435.902344 9.46875 436.535156 9.328125 C 436.851562 9.257812 440.230469 8.359375 444.035156 7.335938 C 447.84375 6.3125 451.378906 5.363281 451.886719 5.230469 C 452.398438 5.097656 456.960938 3.871094 462.027344 2.503906 C 470.597656 0.1875 471.3125 0.015625 472.289062 0.015625 C 473.210938 0.015625 473.738281 0.125 476.617188 0.914062 C 478.417969 1.410156 480.671875 2 481.625 2.230469 C 482.574219 2.460938 484.691406 3.019531 486.320312 3.472656 C 487.953125 3.925781 491.847656 4.984375 494.976562 5.824219 C 505.683594 8.703125 510.429688 9.980469 511.070312 10.152344 C 511.683594 10.320312 511.75 10.382812 512.867188 11.863281 C 513.503906 12.707031 514.578125 14.363281 515.253906 15.539062 C 516.625 17.933594 518.691406 21.441406 525.054688 32.175781 C 530.375 41.144531 533.335938 46.234375 534.160156 47.832031 L 534.785156 49.042969 L 534.832031 50.464844 C 534.886719 52.144531 534.734375 53.324219 534.167969 55.585938 C 533.941406 56.503906 533.21875 59.574219 532.566406 62.414062 C 531.34375 67.742188 530.128906 72.730469 529.585938 74.667969 C 528.9375 76.972656 528.539062 77.609375 521.617188 87.429688 C 509.210938 105.027344 507.25 107.546875 505.113281 108.605469 C 503.117188 109.59375 502.621094 109.726562 494.222656 111.542969 C 489.671875 112.527344 485.699219 113.390625 485.394531 113.464844 C 485.089844 113.535156 482.398438 114.121094 479.414062 114.761719 C 474.734375 115.769531 473.839844 115.929688 472.921875 115.914062 C 472.335938 115.90625 471.714844 115.871094 471.546875 115.839844 Z M 473.773438 109.753906 C 474.8125 108.339844 475.023438 106.519531 475.441406 95.34375 C 475.769531 86.582031 475.875 85.972656 477.34375 84.523438 C 478.09375 83.78125 482.945312 80.089844 492.875 72.699219 C 501.164062 66.53125 501.523438 66.269531 502.78125 65.507812 C 504.296875 64.589844 504.632812 64.507812 505.449219 64.847656 C 506.441406 65.257812 508.398438 66.46875 513.273438 69.683594 C 519.71875 73.925781 521.355469 74.867188 522.300781 74.871094 C 522.777344 74.871094 522.933594 74.765625 523.097656 74.339844 C 523.703125 72.75 522.796875 71.746094 515.871094 66.328125 C 513.296875 64.316406 512.046875 63.308594 509.453125 61.148438 C 506.960938 59.074219 506.347656 57.859375 504.1875 50.699219 C 503.65625 48.933594 502.765625 45.984375 502.214844 44.148438 C 501.660156 42.308594 500.882812 39.804688 500.484375 38.582031 C 499.066406 34.226562 497.625 29.113281 497.140625 26.714844 C 496.546875 23.777344 497.101562 22.988281 502.785156 18.695312 C 504.636719 17.292969 505.246094 16.703125 505.375 16.1875 C 505.484375 15.75 505.222656 14.933594 504.847656 14.5625 C 504.589844 14.300781 504.460938 14.261719 504.03125 14.320312 C 503.441406 14.398438 500.59375 15.800781 496.15625 18.1875 L 493.007812 19.886719 L 472.730469 19.796875 L 452.449219 19.707031 L 450.46875 18.578125 C 447.875 17.097656 443.507812 14.890625 442.5 14.550781 C 441.425781 14.191406 441.085938 14.203125 440.757812 14.621094 C 440.53125 14.90625 440.496094 15.082031 440.542969 15.699219 C 440.59375 16.40625 440.617188 16.453125 441.265625 17.035156 C 441.632812 17.367188 442.878906 18.371094 444.035156 19.269531 C 447.179688 21.707031 448.628906 22.988281 448.9375 23.589844 C 449.140625 23.984375 449.21875 24.40625 449.261719 25.289062 C 449.3125 26.347656 449.277344 26.578125 448.9375 27.636719 C 448.730469 28.285156 448.117188 30.257812 447.582031 32.027344 C 446.460938 35.707031 443.277344 45.875 441.558594 51.257812 C 440.292969 55.21875 439.324219 57.980469 438.914062 58.785156 C 438.414062 59.769531 436.8125 61.160156 431.859375 64.925781 C 424.714844 70.359375 422.113281 72.585938 421.894531 73.460938 C 421.726562 74.125 422.933594 75.246094 423.816406 75.246094 C 424.628906 75.246094 428.269531 72.941406 434.824219 68.273438 C 436.695312 66.945312 438.617188 65.644531 439.089844 65.390625 C 439.855469 64.980469 440.058594 64.925781 440.824219 64.921875 C 441.582031 64.921875 441.800781 64.980469 442.613281 65.394531 C 444.023438 66.109375 449.6875 70.054688 461.347656 78.441406 C 466.648438 82.257812 468.792969 84.015625 469.878906 85.441406 C 470.386719 86.105469 470.574219 88.046875 471.175781 98.804688 C 471.71875 108.476562 471.738281 108.617188 472.746094 109.59375 C 473.070312 109.910156 473.234375 109.988281 473.441406 109.921875 C 473.589844 109.875 473.738281 109.800781 473.773438 109.753906 Z M 472.101562 80.332031 C 471.222656 79.910156 468.792969 78.234375 462.519531 73.71875 C 453.550781 67.257812 449.160156 64.019531 446.554688 61.9375 C 445.433594 61.039062 445.074219 60.675781 444.917969 60.285156 C 444.664062 59.648438 444.65625 58.191406 444.902344 56.789062 C 445.003906 56.207031 446.414062 51.484375 448.042969 46.292969 C 449.667969 41.097656 451.398438 35.570312 451.886719 34.007812 C 453.496094 28.847656 454.542969 26.179688 455.125 25.765625 C 456.011719 25.136719 456.15625 25.128906 473.53125 25.078125 L 489.671875 25.027344 L 490.300781 25.539062 C 491.730469 26.703125 492.585938 28.535156 494.171875 33.820312 C 497.738281 45.730469 500.328125 54.300781 500.75 55.585938 C 501.417969 57.640625 501.496094 58.632812 501.058594 59.589844 C 500.882812 59.96875 500.472656 60.546875 500.144531 60.875 C 498.964844 62.054688 490.652344 68.582031 483.464844 73.976562 C 475.949219 79.617188 474.328125 80.683594 473.277344 80.6875 C 473.039062 80.6875 472.511719 80.527344 472.101562 80.332031 Z M 472.101562 80.332031 " fill-opacity="1" fill-rule="nonzero"/></g><g fill="#ffffff" fill-opacity="1"><g transform="translate(68.544772, 309.441192)"><g><path d="M 30.015625 -16.75 L 32.390625 -16.75 L 32.390625 -4.109375 C 30.910156 -2.691406 29.113281 -1.613281 27 -0.875 C 24.894531 -0.132812 22.664062 0.234375 20.3125 0.234375 C 16.96875 0.234375 13.953125 -0.503906 11.265625 -1.984375 C 8.578125 -3.460938 6.46875 -5.503906 4.9375 -8.109375 C 3.414062 -10.710938 2.65625 -13.640625 2.65625 -16.890625 C 2.65625 -20.140625 3.414062 -23.066406 4.9375 -25.671875 C 6.46875 -28.285156 8.578125 -30.332031 11.265625 -31.8125 C 13.953125 -33.289062 16.988281 -34.03125 20.375 -34.03125 C 22.84375 -34.03125 25.113281 -33.632812 27.1875 -32.84375 C 29.269531 -32.050781 31.050781 -30.898438 32.53125 -29.390625 L 30.984375 -27.75 C 29.566406 -29.164062 27.984375 -30.1875 26.234375 -30.8125 C 24.484375 -31.445312 22.546875 -31.765625 20.421875 -31.765625 C 17.523438 -31.765625 14.910156 -31.117188 12.578125 -29.828125 C 10.242188 -28.535156 8.414062 -26.753906 7.09375 -24.484375 C 5.769531 -22.222656 5.109375 -19.691406 5.109375 -16.890625 C 5.109375 -14.117188 5.773438 -11.597656 7.109375 -9.328125 C 8.453125 -7.066406 10.28125 -5.285156 12.59375 -3.984375 C 14.914062 -2.679688 17.523438 -2.03125 20.421875 -2.03125 C 24.273438 -2.03125 27.472656 -3.054688 30.015625 -5.109375 Z M 30.015625 -16.75 "/></g></g></g><g fill="#ffffff" fill-opacity="1"><g transform="translate(111.39998, 309.441192)"><g><path d="M 13.609375 -25.390625 C 16.734375 -25.390625 19.128906 -24.59375 20.796875 -23 C 22.472656 -21.40625 23.3125 -19.0625 23.3125 -15.96875 L 23.3125 0 L 21 0 L 21 -4.484375 C 20.1875 -3.003906 19.007812 -1.851562 17.46875 -1.03125 C 15.925781 -0.21875 14.078125 0.1875 11.921875 0.1875 C 9.117188 0.1875 6.90625 -0.46875 5.28125 -1.78125 C 3.65625 -3.101562 2.84375 -4.84375 2.84375 -7 C 2.84375 -9.09375 3.59375 -10.789062 5.09375 -12.09375 C 6.59375 -13.394531 8.984375 -14.046875 12.265625 -14.046875 L 20.90625 -14.046875 L 20.90625 -16.078125 C 20.90625 -18.421875 20.269531 -20.203125 19 -21.421875 C 17.726562 -22.648438 15.867188 -23.265625 13.421875 -23.265625 C 11.742188 -23.265625 10.140625 -22.972656 8.609375 -22.390625 C 7.085938 -21.816406 5.796875 -21.046875 4.734375 -20.078125 L 3.515625 -21.8125 C 4.773438 -22.9375 6.289062 -23.8125 8.0625 -24.4375 C 9.832031 -25.070312 11.679688 -25.390625 13.609375 -25.390625 Z M 12.265625 -1.78125 C 14.347656 -1.78125 16.117188 -2.265625 17.578125 -3.234375 C 19.046875 -4.203125 20.15625 -5.601562 20.90625 -7.4375 L 20.90625 -12.15625 L 12.3125 -12.15625 C 9.832031 -12.15625 8.035156 -11.703125 6.921875 -10.796875 C 5.816406 -9.898438 5.265625 -8.664062 5.265625 -7.09375 C 5.265625 -5.457031 5.875 -4.160156 7.09375 -3.203125 C 8.3125 -2.253906 10.035156 -1.78125 12.265625 -1.78125 Z M 12.265625 -1.78125 "/></g></g></g><g fill="#ffffff" fill-opacity="1"><g transform="translate(145.086027, 309.441192)"><g><path d="M 36.484375 -25.390625 C 39.609375 -25.390625 42.0625 -24.472656 43.84375 -22.640625 C 45.632812 -20.804688 46.53125 -18.164062 46.53125 -14.71875 L 46.53125 0 L 44.109375 0 L 44.109375 -14.53125 C 44.109375 -17.363281 43.414062 -19.519531 42.03125 -21 C 40.65625 -22.476562 38.726562 -23.21875 36.25 -23.21875 C 33.414062 -23.21875 31.171875 -22.332031 29.515625 -20.5625 C 27.859375 -18.789062 27.03125 -16.410156 27.03125 -13.421875 L 27.03125 0 L 24.609375 0 L 24.609375 -14.53125 C 24.609375 -17.363281 23.914062 -19.519531 22.53125 -21 C 21.15625 -22.476562 19.226562 -23.21875 16.75 -23.21875 C 13.914062 -23.21875 11.671875 -22.332031 10.015625 -20.5625 C 8.359375 -18.789062 7.53125 -16.410156 7.53125 -13.421875 L 7.53125 0 L 5.109375 0 L 5.109375 -25.1875 L 7.4375 -25.1875 L 7.4375 -19.78125 C 8.269531 -21.550781 9.515625 -22.925781 11.171875 -23.90625 C 12.828125 -24.894531 14.800781 -25.390625 17.09375 -25.390625 C 19.375 -25.390625 21.3125 -24.875 22.90625 -23.84375 C 24.5 -22.8125 25.632812 -21.300781 26.3125 -19.3125 C 27.144531 -21.175781 28.453125 -22.65625 30.234375 -23.75 C 32.023438 -24.84375 34.109375 -25.390625 36.484375 -25.390625 Z M 36.484375 -25.390625 "/></g></g></g><g fill="#ffffff" fill-opacity="1"><g transform="translate(201.984507, 309.441192)"><g><path d="M 26.40625 -12.015625 L 4.734375 -12.015625 C 4.796875 -10.054688 5.289062 -8.3125 6.21875 -6.78125 C 7.15625 -5.25 8.421875 -4.066406 10.015625 -3.234375 C 11.609375 -2.398438 13.398438 -1.984375 15.390625 -1.984375 C 17.035156 -1.984375 18.554688 -2.28125 19.953125 -2.875 C 21.359375 -3.46875 22.523438 -4.34375 23.453125 -5.5 L 24.859375 -3.90625 C 23.765625 -2.59375 22.390625 -1.582031 20.734375 -0.875 C 19.078125 -0.164062 17.28125 0.1875 15.34375 0.1875 C 12.832031 0.1875 10.597656 -0.359375 8.640625 -1.453125 C 6.679688 -2.546875 5.144531 -4.054688 4.03125 -5.984375 C 2.914062 -7.910156 2.359375 -10.113281 2.359375 -12.59375 C 2.359375 -15.039062 2.878906 -17.238281 3.921875 -19.1875 C 4.972656 -21.132812 6.414062 -22.65625 8.25 -23.75 C 10.082031 -24.84375 12.144531 -25.390625 14.4375 -25.390625 C 16.71875 -25.390625 18.765625 -24.847656 20.578125 -23.765625 C 22.398438 -22.691406 23.832031 -21.1875 24.875 -19.25 C 25.925781 -17.320312 26.453125 -15.132812 26.453125 -12.6875 Z M 14.4375 -23.265625 C 12.664062 -23.265625 11.070312 -22.867188 9.65625 -22.078125 C 8.238281 -21.296875 7.101562 -20.1875 6.25 -18.75 C 5.394531 -17.320312 4.90625 -15.707031 4.78125 -13.90625 L 24.078125 -13.90625 C 23.984375 -15.707031 23.5 -17.3125 22.625 -18.71875 C 21.757812 -20.132812 20.617188 -21.242188 19.203125 -22.046875 C 17.796875 -22.859375 16.207031 -23.265625 14.4375 -23.265625 Z M 14.4375 -23.265625 "/></g></g></g><g fill="#ffffff" fill-opacity="1"><g transform="translate(236.34618, 309.441192)"><g/></g></g><g fill="#ffffff" fill-opacity="1"><g transform="translate(254.299898, 309.441192)"><g><path d="M 5.890625 -35.8125 L 8.15625 -35.8125 L 8.15625 9.359375 L 5.890625 9.359375 Z M 5.890625 -35.8125 "/></g></g></g><g fill="#ffffff" fill-opacity="1"><g transform="translate(273.894415, 309.441192)"><g/></g></g><g fill="#ffffff" fill-opacity="1"><g transform="translate(291.848145, 309.441192)"><g><path d="M 29.34375 0 L 21.28125 -11.296875 C 20.09375 -11.128906 19 -11.046875 18 -11.046875 L 8.34375 -11.046875 L 8.34375 0 L 5.890625 0 L 5.890625 -33.78125 L 18 -33.78125 C 22.25 -33.78125 25.578125 -32.773438 27.984375 -30.765625 C 30.398438 -28.753906 31.609375 -25.960938 31.609375 -22.390625 C 31.609375 -19.722656 30.925781 -17.476562 29.5625 -15.65625 C 28.195312 -13.84375 26.242188 -12.566406 23.703125 -11.828125 L 32.140625 0 Z M 18 -13.21875 C 21.601562 -13.21875 24.351562 -14.015625 26.25 -15.609375 C 28.15625 -17.203125 29.109375 -19.460938 29.109375 -22.390625 C 29.109375 -25.316406 28.15625 -27.578125 26.25 -29.171875 C 24.351562 -30.765625 21.601562 -31.5625 18 -31.5625 L 8.34375 -31.5625 L 8.34375 -13.21875 Z M 18 -13.21875 "/></g></g></g><g fill="#ffffff" fill-opacity="1"><g transform="translate(332.145642, 309.441192)"><g><path d="M 26.40625 -12.015625 L 4.734375 -12.015625 C 4.796875 -10.054688 5.289062 -8.3125 6.21875 -6.78125 C 7.15625 -5.25 8.421875 -4.066406 10.015625 -3.234375 C 11.609375 -2.398438 13.398438 -1.984375 15.390625 -1.984375 C 17.035156 -1.984375 18.554688 -2.28125 19.953125 -2.875 C 21.359375 -3.46875 22.523438 -4.34375 23.453125 -5.5 L 24.859375 -3.90625 C 23.765625 -2.59375 22.390625 -1.582031 20.734375 -0.875 C 19.078125 -0.164062 17.28125 0.1875 15.34375 0.1875 C 12.832031 0.1875 10.597656 -0.359375 8.640625 -1.453125 C 6.679688 -2.546875 5.144531 -4.054688 4.03125 -5.984375 C 2.914062 -7.910156 2.359375 -10.113281 2.359375 -12.59375 C 2.359375 -15.039062 2.878906 -17.238281 3.921875 -19.1875 C 4.972656 -21.132812 6.414062 -22.65625 8.25 -23.75 C 10.082031 -24.84375 12.144531 -25.390625 14.4375 -25.390625 C 16.71875 -25.390625 18.765625 -24.847656 20.578125 -23.765625 C 22.398438 -22.691406 23.832031 -21.1875 24.875 -19.25 C 25.925781 -17.320312 26.453125 -15.132812 26.453125 -12.6875 Z M 14.4375 -23.265625 C 12.664062 -23.265625 11.070312 -22.867188 9.65625 -22.078125 C 8.238281 -21.296875 7.101562 -20.1875 6.25 -18.75 C 5.394531 -17.320312 4.90625 -15.707031 4.78125 -13.90625 L 24.078125 -13.90625 C 23.984375 -15.707031 23.5 -17.3125 22.625 -18.71875 C 21.757812 -20.132812 20.617188 -21.242188 19.203125 -22.046875 C 17.796875 -22.859375 16.207031 -23.265625 14.4375 -23.265625 Z M 14.4375 -23.265625 "/></g></g></g><g fill="#ffffff" fill-opacity="1"><g transform="translate(366.507304, 309.441192)"><g><path d="M 11.484375 0.1875 C 9.460938 0.1875 7.53125 -0.113281 5.6875 -0.71875 C 3.851562 -1.332031 2.425781 -2.109375 1.40625 -3.046875 L 2.515625 -4.96875 C 3.535156 -4.101562 4.859375 -3.378906 6.484375 -2.796875 C 8.109375 -2.222656 9.804688 -1.9375 11.578125 -1.9375 C 14.117188 -1.9375 15.992188 -2.351562 17.203125 -3.1875 C 18.410156 -4.019531 19.015625 -5.175781 19.015625 -6.65625 C 19.015625 -7.71875 18.679688 -8.554688 18.015625 -9.171875 C 17.359375 -9.785156 16.546875 -10.234375 15.578125 -10.515625 C 14.617188 -10.804688 13.285156 -11.113281 11.578125 -11.4375 C 9.585938 -11.789062 7.976562 -12.175781 6.75 -12.59375 C 5.53125 -13.007812 4.484375 -13.6875 3.609375 -14.625 C 2.742188 -15.5625 2.3125 -16.847656 2.3125 -18.484375 C 2.3125 -20.484375 3.140625 -22.132812 4.796875 -23.4375 C 6.453125 -24.738281 8.8125 -25.390625 11.875 -25.390625 C 13.476562 -25.390625 15.066406 -25.160156 16.640625 -24.703125 C 18.222656 -24.253906 19.515625 -23.660156 20.515625 -22.921875 L 19.40625 -21 C 18.375 -21.738281 17.195312 -22.300781 15.875 -22.6875 C 14.5625 -23.070312 13.210938 -23.265625 11.828125 -23.265625 C 9.472656 -23.265625 7.703125 -22.828125 6.515625 -21.953125 C 5.328125 -21.085938 4.734375 -19.945312 4.734375 -18.53125 C 4.734375 -17.40625 5.066406 -16.53125 5.734375 -15.90625 C 6.410156 -15.28125 7.238281 -14.8125 8.21875 -14.5 C 9.207031 -14.195312 10.585938 -13.867188 12.359375 -13.515625 C 14.316406 -13.160156 15.898438 -12.78125 17.109375 -12.375 C 18.316406 -11.976562 19.335938 -11.328125 20.171875 -10.421875 C 21.015625 -9.523438 21.4375 -8.285156 21.4375 -6.703125 C 21.4375 -4.617188 20.566406 -2.945312 18.828125 -1.6875 C 17.085938 -0.4375 14.640625 0.1875 11.484375 0.1875 Z M 11.484375 0.1875 "/></g></g></g><g fill="#ffffff" fill-opacity="1"><g transform="translate(395.12619, 309.441192)"><g><path d="M 26.40625 -12.015625 L 4.734375 -12.015625 C 4.796875 -10.054688 5.289062 -8.3125 6.21875 -6.78125 C 7.15625 -5.25 8.421875 -4.066406 10.015625 -3.234375 C 11.609375 -2.398438 13.398438 -1.984375 15.390625 -1.984375 C 17.035156 -1.984375 18.554688 -2.28125 19.953125 -2.875 C 21.359375 -3.46875 22.523438 -4.34375 23.453125 -5.5 L 24.859375 -3.90625 C 23.765625 -2.59375 22.390625 -1.582031 20.734375 -0.875 C 19.078125 -0.164062 17.28125 0.1875 15.34375 0.1875 C 12.832031 0.1875 10.597656 -0.359375 8.640625 -1.453125 C 6.679688 -2.546875 5.144531 -4.054688 4.03125 -5.984375 C 2.914062 -7.910156 2.359375 -10.113281 2.359375 -12.59375 C 2.359375 -15.039062 2.878906 -17.238281 3.921875 -19.1875 C 4.972656 -21.132812 6.414062 -22.65625 8.25 -23.75 C 10.082031 -24.84375 12.144531 -25.390625 14.4375 -25.390625 C 16.71875 -25.390625 18.765625 -24.847656 20.578125 -23.765625 C 22.398438 -22.691406 23.832031 -21.1875 24.875 -19.25 C 25.925781 -17.320312 26.453125 -15.132812 26.453125 -12.6875 Z M 14.4375 -23.265625 C 12.664062 -23.265625 11.070312 -22.867188 9.65625 -22.078125 C 8.238281 -21.296875 7.101562 -20.1875 6.25 -18.75 C 5.394531 -17.320312 4.90625 -15.707031 4.78125 -13.90625 L 24.078125 -13.90625 C 23.984375 -15.707031 23.5 -17.3125 22.625 -18.71875 C 21.757812 -20.132812 20.617188 -21.242188 19.203125 -22.046875 C 17.796875 -22.859375 16.207031 -23.265625 14.4375 -23.265625 Z M 14.4375 -23.265625 "/></g></g></g><g fill="#ffffff" fill-opacity="1"><g transform="translate(429.487874, 309.441192)"><g><path d="M 13.609375 -25.390625 C 16.734375 -25.390625 19.128906 -24.59375 20.796875 -23 C 22.472656 -21.40625 23.3125 -19.0625 23.3125 -15.96875 L 23.3125 0 L 21 0 L 21 -4.484375 C 20.1875 -3.003906 19.007812 -1.851562 17.46875 -1.03125 C 15.925781 -0.21875 14.078125 0.1875 11.921875 0.1875 C 9.117188 0.1875 6.90625 -0.46875 5.28125 -1.78125 C 3.65625 -3.101562 2.84375 -4.84375 2.84375 -7 C 2.84375 -9.09375 3.59375 -10.789062 5.09375 -12.09375 C 6.59375 -13.394531 8.984375 -14.046875 12.265625 -14.046875 L 20.90625 -14.046875 L 20.90625 -16.078125 C 20.90625 -18.421875 20.269531 -20.203125 19 -21.421875 C 17.726562 -22.648438 15.867188 -23.265625 13.421875 -23.265625 C 11.742188 -23.265625 10.140625 -22.972656 8.609375 -22.390625 C 7.085938 -21.816406 5.796875 -21.046875 4.734375 -20.078125 L 3.515625 -21.8125 C 4.773438 -22.9375 6.289062 -23.8125 8.0625 -24.4375 C 9.832031 -25.070312 11.679688 -25.390625 13.609375 -25.390625 Z M 12.265625 -1.78125 C 14.347656 -1.78125 16.117188 -2.265625 17.578125 -3.234375 C 19.046875 -4.203125 20.15625 -5.601562 20.90625 -7.4375 L 20.90625 -12.15625 L 12.3125 -12.15625 C 9.832031 -12.15625 8.035156 -11.703125 6.921875 -10.796875 C 5.816406 -9.898438 5.265625 -8.664062 5.265625 -7.09375 C 5.265625 -5.457031 5.875 -4.160156 7.09375 -3.203125 C 8.3125 -2.253906 10.035156 -1.78125 12.265625 -1.78125 Z M 12.265625 -1.78125 "/></g></g></g><g fill="#ffffff" fill-opacity="1"><g transform="translate(463.173922, 309.441192)"><g><path d="M 7.4375 -19.6875 C 8.207031 -21.519531 9.410156 -22.925781 11.046875 -23.90625 C 12.691406 -24.894531 14.6875 -25.390625 17.03125 -25.390625 L 17.03125 -23.015625 L 16.453125 -23.078125 C 13.660156 -23.078125 11.472656 -22.195312 9.890625 -20.4375 C 8.316406 -18.6875 7.53125 -16.25 7.53125 -13.125 L 7.53125 0 L 5.109375 0 L 5.109375 -25.1875 L 7.4375 -25.1875 Z M 7.4375 -19.6875 "/></g></g></g><g fill="#ffffff" fill-opacity="1"><g transform="translate(487.739056, 309.441192)"><g><path d="M 15.109375 0.1875 C 12.660156 0.1875 10.46875 -0.359375 8.53125 -1.453125 C 6.601562 -2.546875 5.09375 -4.0625 4 -6 C 2.90625 -7.945312 2.359375 -10.144531 2.359375 -12.59375 C 2.359375 -15.070312 2.90625 -17.285156 4 -19.234375 C 5.09375 -21.179688 6.601562 -22.691406 8.53125 -23.765625 C 10.46875 -24.847656 12.660156 -25.390625 15.109375 -25.390625 C 17.128906 -25.390625 18.96875 -24.992188 20.625 -24.203125 C 22.289062 -23.410156 23.632812 -22.257812 24.65625 -20.75 L 22.875 -19.453125 C 21.976562 -20.703125 20.859375 -21.640625 19.515625 -22.265625 C 18.179688 -22.898438 16.710938 -23.21875 15.109375 -23.21875 C 13.140625 -23.21875 11.375 -22.773438 9.8125 -21.890625 C 8.257812 -21.003906 7.039062 -19.753906 6.15625 -18.140625 C 5.269531 -16.535156 4.828125 -14.6875 4.828125 -12.59375 C 4.828125 -10.5 5.269531 -8.648438 6.15625 -7.046875 C 7.039062 -5.441406 8.257812 -4.195312 9.8125 -3.3125 C 11.375 -2.425781 13.140625 -1.984375 15.109375 -1.984375 C 16.710938 -1.984375 18.179688 -2.296875 19.515625 -2.921875 C 20.859375 -3.546875 21.976562 -4.488281 22.875 -5.75 L 24.65625 -4.4375 C 23.632812 -2.925781 22.289062 -1.773438 20.625 -0.984375 C 18.96875 -0.203125 17.128906 0.1875 15.109375 0.1875 Z M 15.109375 0.1875 "/></g></g></g><g fill="#ffffff" fill-opacity="1"><g transform="translate(520.073876, 309.441192)"><g><path d="M 17.421875 -25.390625 C 20.578125 -25.390625 23.070312 -24.472656 24.90625 -22.640625 C 26.738281 -20.804688 27.65625 -18.164062 27.65625 -14.71875 L 27.65625 0 L 25.25 0 L 25.25 -14.53125 C 25.25 -17.363281 24.53125 -19.519531 23.09375 -21 C 21.664062 -22.476562 19.664062 -23.21875 17.09375 -23.21875 C 14.125 -23.21875 11.785156 -22.332031 10.078125 -20.5625 C 8.378906 -18.789062 7.53125 -16.410156 7.53125 -13.421875 L 7.53125 0 L 5.109375 0 L 5.109375 -35.8125 L 7.53125 -35.8125 L 7.53125 -19.9375 C 8.394531 -21.675781 9.679688 -23.019531 11.390625 -23.96875 C 13.097656 -24.914062 15.109375 -25.390625 17.421875 -25.390625 Z M 17.421875 -25.390625 "/></g></g></g><g fill="#ffffff" fill-opacity="1"><g transform="translate(558.103211, 309.441192)"><g/></g></g><g fill="#ffffff" fill-opacity="1"><g transform="translate(576.056941, 309.441192)"><g><path d="M 5.890625 -35.8125 L 8.15625 -35.8125 L 8.15625 9.359375 L 5.890625 9.359375 Z M 5.890625 -35.8125 "/></g></g></g><g fill="#ffffff" fill-opacity="1"><g transform="translate(595.651457, 309.441192)"><g/></g></g><g fill="#ffffff" fill-opacity="1"><g transform="translate(613.605187, 309.441192)"><g><path d="M 5.890625 -33.78125 L 8.34375 -33.78125 L 8.34375 0 L 5.890625 0 Z M 5.890625 -33.78125 "/></g></g></g><g fill="#ffffff" fill-opacity="1"><g transform="translate(633.392697, 309.441192)"><g><path d="M 17.421875 -25.390625 C 20.578125 -25.390625 23.070312 -24.472656 24.90625 -22.640625 C 26.738281 -20.804688 27.65625 -18.164062 27.65625 -14.71875 L 27.65625 0 L 25.25 0 L 25.25 -14.53125 C 25.25 -17.363281 24.53125 -19.519531 23.09375 -21 C 21.664062 -22.476562 19.664062 -23.21875 17.09375 -23.21875 C 14.125 -23.21875 11.785156 -22.332031 10.078125 -20.5625 C 8.378906 -18.789062 7.53125 -16.410156 7.53125 -13.421875 L 7.53125 0 L 5.109375 0 L 5.109375 -25.1875 L 7.4375 -25.1875 L 7.4375 -19.734375 C 8.300781 -21.503906 9.59375 -22.890625 11.3125 -23.890625 C 13.039062 -24.890625 15.078125 -25.390625 17.421875 -25.390625 Z M 17.421875 -25.390625 "/></g></g></g><g fill="#ffffff" fill-opacity="1"><g transform="translate(671.422032, 309.441192)"><g><path d="M 15.109375 0.1875 C 12.660156 0.1875 10.46875 -0.359375 8.53125 -1.453125 C 6.601562 -2.546875 5.09375 -4.0625 4 -6 C 2.90625 -7.945312 2.359375 -10.144531 2.359375 -12.59375 C 2.359375 -15.070312 2.90625 -17.285156 4 -19.234375 C 5.09375 -21.179688 6.601562 -22.691406 8.53125 -23.765625 C 10.46875 -24.847656 12.660156 -25.390625 15.109375 -25.390625 C 17.128906 -25.390625 18.96875 -24.992188 20.625 -24.203125 C 22.289062 -23.410156 23.632812 -22.257812 24.65625 -20.75 L 22.875 -19.453125 C 21.976562 -20.703125 20.859375 -21.640625 19.515625 -22.265625 C 18.179688 -22.898438 16.710938 -23.21875 15.109375 -23.21875 C 13.140625 -23.21875 11.375 -22.773438 9.8125 -21.890625 C 8.257812 -21.003906 7.039062 -19.753906 6.15625 -18.140625 C 5.269531 -16.535156 4.828125 -14.6875 4.828125 -12.59375 C 4.828125 -10.5 5.269531 -8.648438 6.15625 -7.046875 C 7.039062 -5.441406 8.257812 -4.195312 9.8125 -3.3125 C 11.375 -2.425781 13.140625 -1.984375 15.109375 -1.984375 C 16.710938 -1.984375 18.179688 -2.296875 19.515625 -2.921875 C 20.859375 -3.546875 21.976562 -4.488281 22.875 -5.75 L 24.65625 -4.4375 C 23.632812 -2.925781 22.289062 -1.773438 20.625 -0.984375 C 18.96875 -0.203125 17.128906 0.1875 15.109375 0.1875 Z M 15.109375 0.1875 "/></g></g></g><g fill="#ffffff" fill-opacity="1"><g transform="translate(703.756852, 309.441192)"><g><path d="M 5.109375 -35.8125 L 7.53125 -35.8125 L 7.53125 0 L 5.109375 0 Z M 5.109375 -35.8125 "/></g></g></g><g fill="#ffffff" fill-opacity="1"><g transform="translate(721.903621, 309.441192)"><g><path d="M 27.171875 -25.1875 L 27.171875 0 L 24.859375 0 L 24.859375 -5.40625 C 24.023438 -3.632812 22.785156 -2.257812 21.140625 -1.28125 C 19.492188 -0.300781 17.5625 0.1875 15.34375 0.1875 C 12.0625 0.1875 9.488281 -0.726562 7.625 -2.5625 C 5.757812 -4.394531 4.828125 -7.03125 4.828125 -10.46875 L 4.828125 -25.1875 L 7.234375 -25.1875 L 7.234375 -10.671875 C 7.234375 -7.835938 7.957031 -5.679688 9.40625 -4.203125 C 10.851562 -2.722656 12.898438 -1.984375 15.546875 -1.984375 C 18.367188 -1.984375 20.609375 -2.863281 22.265625 -4.625 C 23.929688 -6.394531 24.765625 -8.78125 24.765625 -11.78125 L 24.765625 -25.1875 Z M 27.171875 -25.1875 "/></g></g></g><g fill="#ffffff" fill-opacity="1"><g transform="translate(759.739917, 309.441192)"><g><path d="M 11.484375 0.1875 C 9.460938 0.1875 7.53125 -0.113281 5.6875 -0.71875 C 3.851562 -1.332031 2.425781 -2.109375 1.40625 -3.046875 L 2.515625 -4.96875 C 3.535156 -4.101562 4.859375 -3.378906 6.484375 -2.796875 C 8.109375 -2.222656 9.804688 -1.9375 11.578125 -1.9375 C 14.117188 -1.9375 15.992188 -2.351562 17.203125 -3.1875 C 18.410156 -4.019531 19.015625 -5.175781 19.015625 -6.65625 C 19.015625 -7.71875 18.679688 -8.554688 18.015625 -9.171875 C 17.359375 -9.785156 16.546875 -10.234375 15.578125 -10.515625 C 14.617188 -10.804688 13.285156 -11.113281 11.578125 -11.4375 C 9.585938 -11.789062 7.976562 -12.175781 6.75 -12.59375 C 5.53125 -13.007812 4.484375 -13.6875 3.609375 -14.625 C 2.742188 -15.5625 2.3125 -16.847656 2.3125 -18.484375 C 2.3125 -20.484375 3.140625 -22.132812 4.796875 -23.4375 C 6.453125 -24.738281 8.8125 -25.390625 11.875 -25.390625 C 13.476562 -25.390625 15.066406 -25.160156 16.640625 -24.703125 C 18.222656 -24.253906 19.515625 -23.660156 20.515625 -22.921875 L 19.40625 -21 C 18.375 -21.738281 17.195312 -22.300781 15.875 -22.6875 C 14.5625 -23.070312 13.210938 -23.265625 11.828125 -23.265625 C 9.472656 -23.265625 7.703125 -22.828125 6.515625 -21.953125 C 5.328125 -21.085938 4.734375 -19.945312 4.734375 -18.53125 C 4.734375 -17.40625 5.066406 -16.53125 5.734375 -15.90625 C 6.410156 -15.28125 7.238281 -14.8125 8.21875 -14.5 C 9.207031 -14.195312 10.585938 -13.867188 12.359375 -13.515625 C 14.316406 -13.160156 15.898438 -12.78125 17.109375 -12.375 C 18.316406 -11.976562 19.335938 -11.328125 20.171875 -10.421875 C 21.015625 -9.523438 21.4375 -8.285156 21.4375 -6.703125 C 21.4375 -4.617188 20.566406 -2.945312 18.828125 -1.6875 C 17.085938 -0.4375 14.640625 0.1875 11.484375 0.1875 Z M 11.484375 0.1875 "/></g></g></g><g fill="#ffffff" fill-opacity="1"><g transform="translate(788.358781, 309.441192)"><g><path d="M 5.109375 -25.1875 L 7.53125 -25.1875 L 7.53125 0 L 5.109375 0 Z M 6.3125 -31.328125 C 5.769531 -31.328125 5.304688 -31.507812 4.921875 -31.875 C 4.535156 -32.25 4.34375 -32.707031 4.34375 -33.25 C 4.34375 -33.800781 4.535156 -34.269531 4.921875 -34.65625 C 5.304688 -35.039062 5.769531 -35.234375 6.3125 -35.234375 C 6.863281 -35.234375 7.332031 -35.046875 7.71875 -34.671875 C 8.101562 -34.304688 8.296875 -33.847656 8.296875 -33.296875 C 8.296875 -32.753906 8.101562 -32.289062 7.71875 -31.90625 C 7.332031 -31.519531 6.863281 -31.328125 6.3125 -31.328125 Z M 6.3125 -31.328125 "/></g></g></g><g fill="#ffffff" fill-opacity="1"><g transform="translate(806.505551, 309.441192)"><g><path d="M 14.96875 0.1875 C 12.582031 0.1875 10.429688 -0.359375 8.515625 -1.453125 C 6.597656 -2.546875 5.09375 -4.0625 4 -6 C 2.90625 -7.945312 2.359375 -10.144531 2.359375 -12.59375 C 2.359375 -15.039062 2.90625 -17.238281 4 -19.1875 C 5.09375 -21.132812 6.597656 -22.65625 8.515625 -23.75 C 10.429688 -24.84375 12.582031 -25.390625 14.96875 -25.390625 C 17.34375 -25.390625 19.488281 -24.84375 21.40625 -23.75 C 23.320312 -22.65625 24.828125 -21.132812 25.921875 -19.1875 C 27.015625 -17.238281 27.5625 -15.039062 27.5625 -12.59375 C 27.5625 -10.144531 27.015625 -7.945312 25.921875 -6 C 24.828125 -4.0625 23.320312 -2.546875 21.40625 -1.453125 C 19.488281 -0.359375 17.34375 0.1875 14.96875 0.1875 Z M 14.96875 -1.984375 C 16.894531 -1.984375 18.617188 -2.429688 20.140625 -3.328125 C 21.671875 -4.234375 22.878906 -5.488281 23.765625 -7.09375 C 24.648438 -8.707031 25.09375 -10.539062 25.09375 -12.59375 C 25.09375 -14.65625 24.648438 -16.488281 23.765625 -18.09375 C 22.878906 -19.707031 21.671875 -20.960938 20.140625 -21.859375 C 18.617188 -22.765625 16.894531 -23.21875 14.96875 -23.21875 C 13.03125 -23.21875 11.296875 -22.765625 9.765625 -21.859375 C 8.242188 -20.960938 7.039062 -19.707031 6.15625 -18.09375 C 5.269531 -16.488281 4.828125 -14.65625 4.828125 -12.59375 C 4.828125 -10.539062 5.269531 -8.707031 6.15625 -7.09375 C 7.039062 -5.488281 8.242188 -4.234375 9.765625 -3.328125 C 11.296875 -2.429688 13.03125 -1.984375 14.96875 -1.984375 Z M 14.96875 -1.984375 "/></g></g></g><g fill="#ffffff" fill-opacity="1"><g transform="translate(841.977164, 309.441192)"><g><path d="M 17.421875 -25.390625 C 20.578125 -25.390625 23.070312 -24.472656 24.90625 -22.640625 C 26.738281 -20.804688 27.65625 -18.164062 27.65625 -14.71875 L 27.65625 0 L 25.25 0 L 25.25 -14.53125 C 25.25 -17.363281 24.53125 -19.519531 23.09375 -21 C 21.664062 -22.476562 19.664062 -23.21875 17.09375 -23.21875 C 14.125 -23.21875 11.785156 -22.332031 10.078125 -20.5625 C 8.378906 -18.789062 7.53125 -16.410156 7.53125 -13.421875 L 7.53125 0 L 5.109375 0 L 5.109375 -25.1875 L 7.4375 -25.1875 L 7.4375 -19.734375 C 8.300781 -21.503906 9.59375 -22.890625 11.3125 -23.890625 C 13.039062 -24.890625 15.078125 -25.390625 17.421875 -25.390625 Z M 17.421875 -25.390625 "/></g></g></g></svg>