<?xml version="1.0" encoding="UTF-8" standalone="no"?>
<!-- Created with Inkscape (http://www.inkscape.org/) -->

<svg
   width="306.38751mm"
   height="122.2375mm"
   viewBox="0 0 306.38751 122.2375"
   version="1.1"
   id="svg1"
   xml:space="preserve"
   inkscape:version="1.3.2 (091e20e, 2023-11-25, custom)"
   sodipodi:docname="NexLudica.svg"
   xmlns:inkscape="http://www.inkscape.org/namespaces/inkscape"
   xmlns:sodipodi="http://sodipodi.sourceforge.net/DTD/sodipodi-0.dtd"
   xmlns="http://www.w3.org/2000/svg"
   xmlns:svg="http://www.w3.org/2000/svg"><sodipodi:namedview
     id="namedview1"
     pagecolor="#ffffff"
     bordercolor="#1b2528"
     borderopacity="0.25"
     inkscape:showpageshadow="2"
     inkscape:pageopacity="0.0"
     inkscape:pagecheckerboard="0"
     inkscape:deskcolor="#d1d1d1"
     inkscape:document-units="mm"
     inkscape:zoom="0.78395062"
     inkscape:cx="544.03937"
     inkscape:cy="497.48031"
     inkscape:window-width="1920"
     inkscape:window-height="1111"
     inkscape:window-x="-9"
     inkscape:window-y="-9"
     inkscape:window-maximized="1"
     inkscape:current-layer="layer1" /><defs
     id="defs1" /><g
     inkscape:label="Livello 1"
     inkscape:groupmode="layer"
     id="layer1"
     transform="translate(38.767727,-16.784376)"><path
       style="fill:#1b2528"
       d="m 33.904516,138.84549 c -0.09701,-0.097 -0.176389,-4.02608 -0.176389,-8.73125 0,-7.42794 0.05228,-8.55487 0.396875,-8.55487 0.34476,0 0.396875,1.14653 0.396875,8.73125 0,4.80219 -0.09922,8.73125 -0.220486,8.73125 -0.121267,0 -0.299861,-0.0794 -0.396875,-0.17638 z m 123.380194,0.0661 c -0.002,-0.0849 -0.006,-3.9941 -0.008,-8.68715 -0.003,-6.755 0.0667,-8.53281 0.33456,-8.53281 0.48914,0 0.49674,17.10104 0.008,17.26406 -0.1819,0.0606 -0.33245,0.0408 -0.33456,-0.0441 z m -191.782814,-3.94057 c -1.387385,-0.5264 -2.962413,-2.00374 -3.555533,-3.33501 -0.608688,-1.36621 -0.702448,-3.87705 -0.193458,-5.18071 1.199649,-3.07262 4.948427,-4.79342 8.404858,-3.85808 1.33819,0.36213 2.624353,1.37898 2.335453,1.84643 -0.152649,0.24699 -0.317635,0.21956 -0.686341,-0.11411 -1.167668,-1.05673 -3.663128,-1.45143 -5.56806,-0.8807 -4.981572,1.49251 -5.284041,8.64527 -0.450956,10.66417 1.343208,0.56109 3.531625,0.51149 4.903289,-0.11113 l 1.124479,-0.51042 v -2.2619 c 0,-1.83418 0.07505,-2.26189 0.396875,-2.26189 0.324686,0 0.396875,0.45327 0.396875,2.49196 v 2.49196 l -0.971752,0.60058 c -1.177029,0.72744 -4.690291,0.96727 -6.135729,0.41885 z m 13.662571,-0.0658 c -0.885799,-0.4807 -1.263423,-1.14824 -1.263423,-2.2334 0,-1.9833 1.123017,-2.64583 4.484777,-2.64583 h 2.39439 v -0.80689 c 0,-2.25452 -1.763193,-3.26833 -4.367474,-2.51125 -0.784535,0.22807 -1.500245,0.53412 -1.590467,0.6801 -0.183779,0.29736 -0.656643,0.0938 -0.656643,-0.28261 0,-0.34128 1.800901,-1.20915 2.910417,-1.40257 1.411415,-0.24604 2.944568,0.21686 3.770312,1.13835 0.722888,0.80671 0.727605,0.83681 0.727605,4.64425 0,3.23009 -0.06236,3.83229 -0.396875,3.83229 -0.245653,0 -0.396875,-0.249 -0.396875,-0.65349 v -0.65348 l -0.962964,0.65348 c -1.131068,0.76757 -3.460216,0.88824 -4.65278,0.24105 z m 3.283633,-0.39053 c 1.375515,-0.38204 2.381965,-1.64983 2.27975,-2.87174 l -0.07993,-0.9555 -1.455208,-0.0766 c -2.130936,-0.11215 -3.433748,0.23265 -4.062828,1.07523 -0.721023,0.96573 -0.369404,2.00755 0.890664,2.63896 1.078145,0.54025 1.146067,0.54555 2.427553,0.18963 z m 9.2112773,-3.95953 c 0,-4.05695 0.058796,-4.7625 0.396875,-4.7625 0.2754837,0 0.396875,0.27702 0.396875,0.90569 v 0.90569 l 0.7519414,-0.75195 c 0.8689631,-0.86896 2.6030763,-1.41809 3.6699164,-1.16212 1.2463585,0.29904 2.20200869,0.89191 2.50320273,1.55296 l 0.28753554,0.63107 0.83194023,-0.88211 c 2.1123805,-2.23978 6.0119276,-1.57035 6.7710571,1.16237 0.144488,0.52013 0.2633694,2.34467 0.2641809,4.05454 0.00139,2.93296 -0.028464,3.10886 -0.5276911,3.10886 -0.5027713,0 -0.5291666,-0.17639 -0.5291666,-3.5362 0,-3.16177 -0.057304,-3.60904 -0.5412015,-4.22422 -0.6695857,-0.85124 -2.0356975,-1.25491 -3.2897282,-0.97208 -2.08265735,0.46972 -2.51907031,1.43024 -2.51907031,5.54436 0,3.01175 -0.02927699,3.18814 -0.52916666,3.18814 -0.50144611,0 -0.52921848,-0.17672 -0.5301557,-3.37344 -8.4383e-4,-2.8782 -0.0767567,-3.4977 -0.51709983,-4.21989 -0.9395936,-1.54098 -3.4666831,-1.69622 -4.9486391,-0.30399 -0.8702149,0.81752 -1.1446787,2.05899 -1.1463798,5.18534 -0.00122,2.2336 -0.071482,2.71198 -0.3983505,2.71198 -0.3380787,0 -0.396875,-0.70556 -0.396875,-4.7625 z m 23.4162147,4.36026 c -1.848126,-0.99763 -2.599594,-2.25805 -2.599594,-4.36026 0,-2.41733 1.29924,-4.20775 3.445605,-4.74821 2.746683,-0.69162 5.635691,1.45776 5.635691,4.19288 v 0.81991 h -4.134115 -4.134114 l 0.171225,0.8599 c 0.09417,0.47294 0.579255,1.26858 1.07796,1.76808 0.788242,0.7895 1.114015,0.92318 2.492876,1.02292 1.309924,0.0948 1.753355,0.0114 2.546355,-0.47872 1.306443,-0.80743 1.847679,-0.31592 0.617057,0.56036 -1.137371,0.80987 -3.925004,1.00763 -5.118946,0.36314 z m 5.566751,-5.6009 c -0.499997,-1.99214 -2.618659,-3.27275 -4.552845,-2.75193 -1.384308,0.37275 -2.734288,1.87818 -2.734288,3.04913 0,0.3564 0.521491,0.41427 3.73285,0.41427 h 3.73285 z m 27.637867,-0.51109 v -6.51424 l 3.241146,0.11552 c 3.97613,0.14172 5.23057,0.64307 6.033346,2.41128 1.10202,2.42734 0.413427,4.44213 -2.011213,5.8847 -0.422963,0.25165 -0.342405,0.4511 0.854942,2.11667 1.77104,2.46361 1.78934,2.50094 1.223957,2.49675 -0.297603,-0.002 -1.029037,-0.79921 -1.933844,-2.10721 l -1.455209,-2.10368 -2.579687,-0.009 -2.579688,-0.009 v 2.11667 c 0,1.70509 -0.07717,2.11667 -0.396875,2.11667 -0.342031,0 -0.396875,-0.9002 -0.396875,-6.51423 z m 6.71095,1.12233 c 1.326055,-0.55406 2.021003,-1.60327 2.0164,-3.0443 -0.0087,-2.70812 -1.243044,-3.57034 -5.138638,-3.58935 l -2.66267,-0.013 -0.07382,3.50572 -0.07383,3.50573 h 2.529719 c 1.55128,0 2.867423,-0.1411 3.40284,-0.36481 z m 10.090092,5.01689 c -2.356923,-1.05203 -3.417788,-3.93189 -2.371159,-6.43683 0.802917,-1.92165 2.12653,-2.78876 4.256954,-2.78876 2.358072,0 4.095262,1.54519 4.486271,3.99042 l 0.177857,1.11226 h -4.284979 -4.284978 l 0.18364,0.59531 c 0.718664,2.32972 1.907928,3.17818 4.268814,3.04549 1.067973,-0.06 1.812397,-0.24932 2.1375,-0.54353 0.274357,-0.24829 0.648205,-0.45144 0.830774,-0.45144 0.549571,0 0.170485,0.62371 -0.763865,1.25677 -1.023985,0.69381 -3.330514,0.80339 -4.636829,0.22031 z m 5.423958,-5.56891 c 0,-0.35874 -0.368063,-1.07145 -0.817919,-1.58381 -2.046309,-2.33062 -5.472689,-1.53242 -6.33546,1.47589 l -0.218015,0.76017 h 3.685697 3.685697 z m 5.754688,5.50511 c -0.902436,-0.37431 -1.223587,-0.8291 -0.84958,-1.20311 0.07843,-0.0784 0.579859,0.0803 1.114277,0.35278 1.371705,0.69934 3.738344,0.67243 4.660559,-0.053 0.809524,-0.63677 0.903789,-1.56385 0.221769,-2.18107 -0.261454,-0.23662 -1.340872,-0.61227 -2.398707,-0.83479 -2.884866,-0.60685 -3.475923,-1.07509 -3.475923,-2.75362 0,-2.23458 3.461303,-3.33043 6.181964,-1.95721 1.246509,0.62915 0.462242,0.98759 -1.04283,0.47661 -2.212606,-0.7512 -4.345384,0.0217 -4.345384,1.57464 0,0.88756 0.841018,1.38651 3.341115,1.98215 2.283266,0.54399 3.008885,1.13152 3.008885,2.43628 0,1.778 -1.203774,2.60638 -3.757173,2.58549 -0.916732,-0.007 -2.113269,-0.19882 -2.658972,-0.42517 z m 12.88532,0.0667 c -3.239649,-1.41111 -3.603185,-6.56737 -0.603004,-8.55279 1.724115,-1.14097 4.496027,-0.83711 5.832176,0.63931 0.607786,0.6716 1.266237,2.29285 1.266237,3.11776 v 0.66996 h -4.101042 c -4.009269,0 -4.101042,0.0126 -4.101042,0.56408 0,0.89011 0.983186,2.25038 1.962386,2.71504 1.222771,0.58025 2.997501,0.53617 4.192136,-0.10412 1.181314,-0.63315 1.253812,-0.64111 1.253812,-0.13767 0,1.14073 -3.880769,1.88156 -5.701659,1.08843 z m 5.553678,-5.51482 c -0.653174,-2.11742 -2.369749,-3.30577 -4.262309,-2.95073 -1.240926,0.2328 -2.68614,1.57165 -2.899539,2.68614 l -0.16465,0.8599 h 3.755069 3.755069 z m 6.438484,5.47454 c -0.8858,-0.4807 -1.26342,-1.14824 -1.26342,-2.2334 0,-1.98998 1.12032,-2.64583 4.51961,-2.64583 h 2.42923 l -0.14737,-1.0987 c -0.0917,-0.68354 -0.40385,-1.35519 -0.82611,-1.77746 -0.56967,-0.56967 -0.9101,-0.67541 -2.11826,-0.65794 -0.95434,0.0138 -1.75525,0.2071 -2.37632,0.57354 -0.629,0.37112 -0.99521,0.45823 -1.11456,0.26513 -0.277347,-0.44876 0.95496,-1.22788 2.4119,-1.52492 1.67304,-0.34109 3.16367,-0.0121 4.07657,0.89986 0.66809,0.66737 0.68815,0.78833 0.77114,4.64868 0.0745,3.46357 0.0327,3.96348 -0.33073,3.96348 -0.29122,0 -0.41835,-0.25783 -0.42398,-0.8599 -0.007,-0.71228 -0.0543,-0.78041 -0.27773,-0.39687 -0.69123,1.18678 -3.7934,1.6782 -5.32997,0.84433 z m 3.28364,-0.39053 c 1.37551,-0.38204 2.38196,-1.64983 2.27975,-2.87174 -0.076,-0.90798 -0.13257,-0.95984 -1.13827,-1.04271 -2.89963,-0.23893 -4.89479,0.537 -4.89479,1.90361 0,0.80917 0.90401,1.95279 1.65892,2.09861 1.00533,0.19419 1.09235,0.19054 2.09439,-0.0878 z m 9.21127,-3.95953 c 0,-4.05695 0.0588,-4.7625 0.39688,-4.7625 0.2788,0 0.39687,0.28154 0.39687,0.94634 v 0.94634 l 0.66068,-0.78517 c 0.36337,-0.43184 0.98845,-0.86335 1.38906,-0.95891 0.40062,-0.0956 0.93675,-0.23563 1.19141,-0.31129 0.33602,-0.0998 0.46302,0.0125 0.46302,0.40944 0,0.42566 -0.16815,0.547 -0.75807,0.547 -0.41694,0 -1.08621,0.25811 -1.48727,0.57359 -1.15739,0.9104 -1.45883,1.99287 -1.45883,5.23874 0,2.4182 -0.0681,2.91892 -0.39687,2.91892 -0.33808,0 -0.39688,-0.70556 -0.39688,-4.7625 z m 10.98021,4.34642 c -1.31724,-0.68509 -1.97389,-1.46974 -2.38307,-2.84759 -0.86905,-2.92641 0.6546,-5.63491 3.5338,-6.28183 1.41136,-0.31711 3.22618,0.11365 4.01461,0.95288 0.87536,0.93179 0.40566,1.26812 -0.71187,0.50974 -1.98772,-1.3489 -4.78839,-0.70868 -5.74822,1.31401 -0.52415,1.10458 -0.54865,2.8534 -0.0533,3.80544 0.7344,1.41151 1.64017,1.99626 3.2699,2.111 1.29411,0.0911 1.66282,0.008 2.50239,-0.56561 0.99591,-0.68014 1.61735,-0.51679 0.97562,0.25645 -0.96134,1.15834 -3.84152,1.55598 -5.39986,0.74551 z m 10.71563,-6.48249 c 0,-6.42746 0.0316,-6.89251 0.46302,-6.80988 0.40149,0.0769 0.47305,0.47158 0.53853,2.97034 l 0.0755,2.88167 0.75524,-0.72356 c 2.12298,-2.03395 6.1883,-0.99253 6.7317,1.72446 0.092,0.45995 0.16726,2.1906 0.16726,3.8459 0,2.83325 -0.031,3.00964 -0.52917,3.00964 -0.50277,0 -0.52917,-0.17639 -0.52917,-3.5362 0,-3.16633 -0.0568,-3.60844 -0.54335,-4.22695 -0.66719,-0.8482 -2.22567,-1.31218 -3.33696,-0.99346 -2.38927,0.68523 -2.73427,1.38784 -2.73427,5.56847 0,3.01175 -0.0293,3.18814 -0.52917,3.18814 -0.51563,0 -0.52916,-0.17639 -0.52916,-6.89857 z m 36.24791,0.41628 c 0,-5.58565 0.0549,-6.4823 0.39688,-6.4823 0.34198,0 0.39687,0.89665 0.39687,6.4823 0,5.58564 -0.0549,6.48229 -0.39687,6.48229 -0.34198,0 -0.39688,-0.89665 -0.39688,-6.48229 z m 7.14375,1.71979 c 0,-4.58611 0.0196,-4.7625 0.52917,-4.7625 0.41496,0 0.52917,0.17639 0.52917,0.81727 v 0.81727 l 0.80578,-0.67802 c 1.09689,-0.92298 2.58618,-1.29392 3.95771,-0.98576 2.35672,0.52952 2.90942,1.71464 2.90942,6.23845 0,2.77098 -0.0652,3.31579 -0.39687,3.31579 -0.32838,0 -0.39945,-0.51376 -0.41181,-2.97657 -0.0168,-3.34984 -0.3221,-4.53857 -1.364,-5.31098 -0.88256,-0.65428 -2.65505,-0.70136 -3.81091,-0.10121 -1.33557,0.69345 -1.68932,1.80747 -1.68932,5.31989 0,2.89248 -0.0304,3.06887 -0.52917,3.06887 -0.50957,0 -0.52917,-0.17639 -0.52917,-4.7625 z m 16.18711,4.31753 c -0.48318,-0.2381 -1.19756,-0.8512 -1.5875,-1.36244 -0.62806,-0.82343 -0.70898,-1.16372 -0.70898,-2.98124 0,-2.19783 0.326,-2.94185 1.75719,-4.01039 1.59531,-1.19107 4.57637,-1.08478 5.78939,0.20642 0.85995,0.91538 0.39352,1.34483 -0.57526,0.52966 -0.43682,-0.36756 -1.1125,-0.68625 -1.50152,-0.70819 -2.30536,-0.13005 -3.51438,0.4444 -4.2848,2.03588 -0.8925,1.84367 -0.55022,3.79255 0.90119,5.13115 0.52724,0.48626 1.07241,0.67111 2.21691,0.75169 1.2941,0.0911 1.66281,0.008 2.50239,-0.56561 0.9959,-0.68014 1.61735,-0.51679 0.97562,0.25645 -0.97469,1.17443 -3.80512,1.54425 -5.48463,0.71662 z m 10.86207,-6.36455 c 0.0647,-6.24238 0.10918,-6.81693 0.53364,-6.89857 0.43141,-0.083 0.46302,0.38192 0.46302,6.80952 0,6.74143 -0.0122,6.89857 -0.53364,6.89857 -0.52313,0 -0.53224,-0.13405 -0.46302,-6.80952 z m 8.72198,6.36692 c -1.44517,-0.71222 -1.74561,-1.61425 -1.85746,-5.57667 -0.0964,-3.41543 -0.0846,-3.50573 0.45618,-3.50573 0.53406,0 0.55512,0.12503 0.55512,3.29484 0,1.99099 0.12509,3.56938 0.3161,3.98859 0.41979,0.92134 1.50413,1.44782 2.98194,1.44782 1.00583,0 1.37282,-0.15125 2.19595,-0.90504 l 0.9883,-0.90504 0.0872,-3.46059 c 0.0808,-3.2062 0.12452,-3.46058 0.59531,-3.46058 0.48231,0 0.50814,0.24208 0.50814,4.7625 0,4.58611 -0.0196,4.7625 -0.52917,4.7625 -0.41803,0 -0.52916,-0.17639 -0.52916,-0.83987 v -0.83987 l -0.59532,0.54222 c -0.32742,0.29822 -0.85537,0.67617 -1.17323,0.83987 -0.83852,0.43187 -2.98747,0.35399 -3.99988,-0.14495 z m 12.45201,-0.0782 c -0.77355,-0.35113 -1.07528,-0.62994 -0.97227,-0.89837 0.12785,-0.33318 0.30843,-0.31701 1.25392,0.11226 0.66916,0.30382 1.709,0.5038 2.63794,0.50732 1.27973,0.005 1.64081,-0.10162 2.18281,-0.64362 1.31723,-1.31724 0.53122,-2.28032 -2.39181,-2.93063 -2.51461,-0.55945 -3.41459,-1.24752 -3.41459,-2.61058 0,-1.71208 2.24419,-3.10249 4.28082,-2.65223 1.70265,0.37644 2.4396,0.70541 2.4396,1.08904 0,0.29957 -0.15737,0.35933 -0.59532,0.22609 -2.45252,-0.74617 -3.40306,-0.7411 -4.6302,0.0247 -0.73263,0.45719 -0.79746,1.68185 -0.12142,2.29366 0.26065,0.23588 1.29252,0.61872 2.29305,0.85076 3.39258,0.78679 4.18991,1.67891 3.28181,3.67197 -0.66563,1.4609 -4.00838,1.97462 -6.24434,0.95964 z m 11.30808,-4.24173 c 0,-4.05695 0.0588,-4.7625 0.39688,-4.7625 0.33808,0 0.39687,0.70555 0.39687,4.7625 0,4.05694 -0.0588,4.7625 -0.39687,4.7625 -0.33808,0 -0.39688,-0.70556 -0.39688,-4.7625 z m 8.58584,4.39034 c -2.49713,-1.08769 -3.46984,-4.74102 -1.88289,-7.07183 2.00999,-2.95215 6.01537,-2.95215 8.02536,0 1.60595,2.35872 0.60241,6.02026 -1.94131,7.08309 -1.08671,0.45406 -3.14553,0.44854 -4.20116,-0.0113 z m 4.36795,-1.11457 c 1.10544,-0.93017 1.5983,-1.95791 1.5983,-3.33291 0,-2.2973 -1.63298,-3.99981 -3.83646,-3.99981 -2.2264,0 -3.83646,1.7026 -3.83646,4.05695 0,2.41501 1.5159,3.96399 3.8823,3.967 1.09215,0.001 1.5352,-0.13829 2.19232,-0.69123 z m 7.68371,-3.27577 c 0,-4.05695 0.0588,-4.7625 0.39688,-4.7625 0.2817,0 0.39687,0.28582 0.39687,0.98491 0,0.96795 0.007,0.97476 0.41294,0.39536 0.97804,-1.39635 4.08544,-1.96092 5.54157,-1.00682 1.4537,0.9525 1.71634,1.8159 1.71742,5.64582 8.1e-4,2.85541 -0.0688,3.50573 -0.37539,3.50573 -0.30255,0 -0.39337,-0.69975 -0.46302,-3.56754 l -0.0866,-3.56755 -0.82937,-0.82861 c -0.71743,-0.71677 -1.01586,-0.82861 -2.21112,-0.82861 -1.61101,0 -2.54005,0.55347 -3.24296,1.93195 -0.35915,0.70434 -0.4627,1.5729 -0.46302,3.88379 -3.4e-4,2.46927 -0.0681,2.97657 -0.39728,2.97657 -0.33808,0 -0.39688,-0.70556 -0.39688,-4.7625 z m -20.59738,-7.3782 c -0.5231,-0.33113 -0.26047,-1.22076 0.36038,-1.22076 0.37936,0 0.52554,0.17786 0.52554,0.63941 0,0.70567 -0.33857,0.92785 -0.88592,0.58135 z M 15.266782,113.5007 C 12.386621,112.84589 9.7407439,111.383 7.6378419,109.28273 5.5151527,107.16269 4.5564217,105.48112 3.8128975,102.57397 3.1934753,100.15206 3.1375149,96.048368 3.6884573,93.448528 4.7887553,88.256335 8.4926836,84.220802 13.752085,82.483923 c 1.833028,-0.605344 2.57758,-0.701343 5.55625,-0.716398 3.842954,-0.01942 5.454421,0.330898 8.194659,1.781466 4.575308,2.421977 7.194081,7.63216 7.351099,14.625389 l 0.06466,2.87979 -10.384896,0.0692 c -8.046167,0.0536 -10.383587,0.14301 -10.379085,0.39688 0.01057,0.59616 0.968536,2.4361 1.526808,2.9325 1.957901,1.74093 6.568723,1.59725 8.373359,-0.26093 l 0.863103,-0.88871 h 4.674667 4.674667 l -0.162529,0.72761 c -0.08939,0.40018 -0.566099,1.59935 -1.059352,2.66482 -1.531344,3.30785 -4.228398,5.45563 -8.226412,6.55103 -2.156209,0.59078 -7.451891,0.73166 -9.5523,0.25412 z m 8.845579,-20.179392 c -0.216283,-1.332799 -0.902615,-2.204692 -2.29589,-2.916621 -2.164925,-1.106222 -5.342704,-0.541707 -6.528738,1.159794 -0.431676,0.619288 -1.138773,2.26475 -1.138773,2.650001 0,0.05105 2.277766,0.09281 5.061702,0.09281 h 5.061703 z m 94.633159,20.305412 c -2.94853,-0.62738 -5.45341,-2.56977 -6.68054,-5.18037 -1.23468,-2.62668 -1.33504,-3.79033 -1.33919,-15.528121 l -0.004,-11.046354 h 5.55625 5.55625 l 0.004,9.855729 c 0.004,9.711246 0.013,9.870836 0.59531,10.886516 0.74003,1.29081 2.05847,2.01192 3.67846,2.01192 2.1805,0 3.70762,-0.95519 4.74194,-2.96602 0.46897,-0.91173 0.50494,-1.65137 0.50494,-10.384896 v -9.403249 h 5.55625 5.55625 v 15.742708 15.742707 h -5.55625 -5.55625 l -0.008,-2.57969 -0.008,-2.57968 -0.57009,0.79375 c -1.0997,1.53111 -3.00057,3.12596 -4.65881,3.90878 -1.37536,0.64927 -2.08298,0.80541 -3.96875,0.87572 -1.26223,0.0471 -2.79198,-0.0202 -3.39944,-0.14945 z m 39.40878,-0.10351 c -5.21983,-1.32868 -9.1466,-5.42654 -10.55397,-11.01384 -0.58934,-2.33969 -0.58723,-7.245333 0.004,-9.524995 1.00347,-3.868532 2.88193,-6.705366 5.79448,-8.750771 4.60326,-3.232742 10.36268,-3.381283 13.8943,-0.358347 l 1.09914,0.940816 0.0705,-7.094494 0.0705,-7.094495 5.49011,-0.07151 5.4901,-0.07151 V 91.920682 113.3573 h -5.55625 -5.55625 v -1.46441 -1.46442 l -0.81177,0.92456 c -1.27047,1.44698 -3.39032,2.31624 -5.92138,2.42811 -1.23059,0.0544 -2.7146,-0.0546 -3.51359,-0.25792 z m 7.41097,-8.99687 c 1.10415,-0.47244 2.16765,-1.61924 2.71357,-2.92611 0.67094,-1.606147 0.79356,-4.479088 0.2774,-6.499188 -0.75882,-2.969774 -2.48995,-4.496724 -5.09891,-4.497506 -3.65457,-0.0011 -5.50133,2.405412 -5.48183,7.143339 0.0143,3.479645 0.93592,5.532085 2.96526,6.603855 1.16687,0.61626 3.39673,0.70094 4.62451,0.17561 z m 47.68265,8.94558 c -2.64212,-0.52043 -5.84334,-2.17902 -7.6041,-3.93978 -2.8655,-2.86551 -4.2416,-6.62647 -4.26371,-11.652974 -0.0232,-5.273685 1.23014,-8.736034 4.25254,-11.747663 2.84875,-2.838598 5.97363,-4.135516 10.65798,-4.423373 4.09196,-0.251455 7.88955,0.828768 10.5353,2.996762 2.06538,1.692418 3.85169,5.057446 4.43026,8.345629 l 0.17458,0.992187 h -5.06484 c -3.8286,0 -5.08628,-0.08072 -5.15271,-0.330729 -0.59216,-2.228546 -1.31706,-2.875382 -3.41761,-3.049576 -3.64129,-0.301964 -5.71302,2.230052 -5.73185,7.005303 -0.014,3.546304 0.8895,5.613954 2.896,6.627604 2.72675,1.37751 6.03127,0.17819 6.54175,-2.37422 l 0.14693,-0.73463 h 4.99401 c 5.67641,0 5.26995,-0.21994 4.5746,2.47535 -1.96197,7.6048 -9.1745,11.54243 -17.96913,9.81011 z m 29.35778,0.0632 c -3.19941,-0.8197 -5.49866,-2.59574 -6.68392,-5.16297 -0.60528,-1.311 -0.69161,-1.84247 -0.69443,-4.27524 -0.004,-3.31013 0.51417,-4.667992 2.42113,-6.346566 1.80725,-1.590802 3.24151,-2.031306 12.49659,-3.838069 3.09194,-0.603605 3.98097,-1.006635 3.98097,-1.80472 0,-1.54048 -1.996,-2.763725 -3.96644,-2.430821 -1.2751,0.215426 -2.20217,0.908091 -2.64443,1.975797 l -0.33249,0.802717 h -5.25957 c -2.89276,0 -5.25781,-0.0893 -5.25566,-0.198437 0.002,-0.109141 0.1839,-0.962029 0.40389,-1.895308 1.4386,-6.103165 6.63131,-9.090914 15.07033,-8.671077 1.60073,0.07964 3.56526,0.284623 4.36562,0.455527 3.3331,0.711727 6.06692,2.652814 7.39067,5.24758 1.10638,2.168696 1.36965,4.078562 1.51833,11.01484 0.15184,7.083187 0.23605,7.522887 1.55604,8.124307 0.63397,0.28886 0.64746,0.36048 0.64746,3.43584 0,2.74245 -0.0587,3.16495 -0.46302,3.33097 -0.25466,0.10457 -1.89177,0.18719 -3.63802,0.18359 -2.92814,-0.006 -3.29285,-0.0639 -4.69074,-0.74416 -1.4576,-0.70933 -3.11447,-2.31261 -3.11447,-3.01375 0,-0.5465 -0.36244,-0.38623 -0.88598,0.39178 -0.7122,1.05838 -2.58268,2.40737 -4.19311,3.02407 -1.77155,0.6784 -6.09144,0.89045 -8.02875,0.3941 z m 9.08144,-7.99703 c 0.54103,-0.226 1.31112,-0.72453 1.7113,-1.10784 0.6863,-0.65736 0.7276,-0.82967 0.7276,-3.03546 v -2.338548 l -0.7691,0.397717 c -0.423,0.218744 -1.70292,0.648981 -2.84427,0.956091 -2.59113,0.69719 -3.95333,1.54262 -4.18498,2.59733 -0.19393,0.88294 0.36854,2.21954 1.11762,2.65584 0.70247,0.40915 3.13455,0.33741 4.24183,-0.12513 z m -185.416268,7.88059 -5.95413,-0.0709 -2.49865,-3.98063 c -1.374258,-2.18935 -2.584649,-4.03379 -2.689759,-4.09875 -0.105109,-0.065 -1.338703,1.72849 -2.74132,3.98544 l -2.550212,4.10354 h -6.060001 -6.06 l 4.661872,-6.94531 c 2.564029,-3.81992 5.060326,-7.511786 5.547325,-8.20414 l 0.885454,-1.258827 -4.779817,-7.16248 c -2.6289,-3.939363 -4.845632,-7.33399 -4.926072,-7.543613 -0.125167,-0.326179 0.72346,-0.37087 5.885527,-0.309944 l 6.031782,0.07119 1.914957,3.264239 c 1.053227,1.795332 1.972094,3.321375 2.041926,3.391208 0.06983,0.06983 1.043426,-1.428841 2.163541,-3.330385 l 2.036571,-3.457354 h 6.075162 c 4.788907,0 6.033413,0.07002 5.877976,0.330729 -0.108453,0.181901 -2.326619,3.526739 -4.929259,7.432973 -2.888265,4.334921 -4.672992,7.256205 -4.580445,7.49738 0.0834,0.217325 2.551739,3.957474 5.485209,8.311434 2.933469,4.35397 5.284736,7.9453 5.225037,7.98075 -0.0597,0.0354 -2.787903,0.0325 -6.062674,-0.007 z M -38.767706,92.190625 V 71.023959 l 5.886979,0.0056 5.886979,0.0056 6.614584,11.278648 c 3.63802,6.203256 6.759625,11.469258 6.936897,11.702225 0.254928,0.33502 0.324074,-2.02419 0.33073,-11.284234 l 0.0084,-11.707812 h 5.9531253 5.9531249 v 21.166666 21.166668 l -6.1515624,-0.0108 -6.1515628,-0.0108 -6.614583,-11.30015 -6.614583,-11.300156 -0.06899,11.310936 -0.06899,11.31094 h -5.950285 -5.950284 z m 115.358333,0 V 71.023959 h 5.951091 5.951091 l 0.06818,16.205729 0.06818,16.205732 8.863542,0.0555 8.863539,0.0555 0.072,4.9054 0.072,4.9054 H 91.545423 76.590627 Z M 185.59896,97.614583 V 81.871875 h 5.55625 5.55625 v 15.742708 15.742707 h -5.55625 -5.55625 z m 0,-23.151041 v -3.96875 h 5.55625 5.55625 v 3.96875 3.96875 h -5.55625 -5.55625 z M 55.556252,60.958556 C 55.119689,60.815907 53.393283,60.337471 51.719794,59.895365 46.040407,58.394972 41.806512,57.216008 38.764663,56.287898 36.259364,55.523497 35.56182,55.192824 34.757085,54.388089 33.900086,53.53109 33.761114,53.207606 33.602974,51.701676 33.50409,50.760025 33.462031,44.334115 33.50951,37.421876 l 0.08633,-12.567708 0.608772,-0.8108 c 0.901843,-1.201132 1.600919,-1.506641 6.534978,-2.855911 2.473854,-0.676501 6.283854,-1.721784 8.466667,-2.32285 8.814601,-2.427216 9.44134,-2.480075 14.022917,-1.18269 1.309687,0.37087 5.46557,1.510992 9.235296,2.533604 7.817754,2.120719 9.430156,2.75684 10.203642,4.025516 0.519513,0.852108 0.535154,1.291671 0.536114,15.067164 l 9.89e-4,14.18945 -1.005632,1.024092 c -0.910049,0.926754 -1.356426,1.119595 -4.696354,2.028898 -2.029897,0.552644 -6.488691,1.787373 -9.908431,2.743841 -5.240066,1.465596 -6.612925,1.753531 -8.731249,1.831235 -1.382448,0.05071 -2.87073,-0.02451 -3.307292,-0.167161 z m 3.823494,-14.932907 c 0.335682,-9.179482 0.517185,-10.600336 1.503899,-11.77298 1.059827,-1.259532 1.979883,-1.640139 14.744806,-6.099595 3.246026,-1.134007 3.956379,-1.579114 2.520132,-1.579114 -1.148887,0 -3.523075,0.614057 -10.790371,2.79081 -7.381745,2.211034 -8.313358,2.388625 -10.557213,2.012499 -0.975653,-0.163544 -4.92907,-1.250448 -8.785372,-2.415343 -7.150095,-2.15987 -7.830049,-2.327097 -7.537516,-1.853768 0.299619,0.484792 2.706822,1.567172 6.812149,3.063027 7.32238,2.668051 8.338929,3.235775 9.113575,5.089763 0.441486,1.056625 0.852182,7.903304 0.864376,14.409933 0.0078,4.150826 0.01254,4.18392 0.700643,4.872025 0.552985,0.552985 0.734047,0.617307 0.897132,0.318703 0.112376,-0.20576 0.343569,-4.181941 0.51376,-8.83596 z m 49.754634,13.927633 c -3.1287,-0.69163 -5.93378,-1.392761 -6.23351,-1.558069 -0.29972,-0.165308 -1.79821,-2.064669 -3.329972,-4.220803 -5.62401,-7.916464 -5.379172,-7.468643 -6.565021,-12.007735 -1.631076,-6.243293 -1.73634,-5.704068 2.538499,-13.003745 4.244863,-7.248489 4.979874,-8.360581 5.742844,-8.689132 0.77748,-0.334797 13.33148,-3.689422 13.80691,-3.689422 0.20886,0 3.6861,0.886144 7.72719,1.969208 5.8745,1.574443 7.42699,2.083234 7.74431,2.538005 0.21828,0.312839 2.21257,3.622175 4.43177,7.354081 2.98459,5.019034 4.03489,7.009183 4.03489,7.645426 0,0.47308 -0.48671,2.88759 -1.08157,5.365578 l -1.08158,4.505435 -3.31061,4.691862 c -3.83013,5.428133 -4.90861,6.796947 -5.83194,7.401938 -0.63327,0.41493 -9.59245,2.552596 -11.84534,2.826303 -0.69819,0.08482 -2.99408,-0.299339 -6.74687,-1.12893 z m 6.75475,-1.37749 c 0.0943,-0.152533 0.27324,-2.177208 0.39772,-4.499277 0.12447,-2.32207 0.30274,-4.345613 0.39616,-4.496763 0.29714,-0.480785 9.71323,-7.46548 10.4279,-7.735236 0.60443,-0.228148 1.036,-0.03547 3.64642,1.628043 3.0903,1.969311 3.77705,2.221395 3.77705,1.386449 0,-0.318491 -1.05821,-1.352036 -2.91125,-2.843407 -1.61752,-1.301814 -3.08279,-2.704527 -3.29725,-3.156484 -0.41061,-0.865297 -2.80238,-8.478343 -3.46557,-11.030987 -0.48347,-1.86086 -0.3663,-2.124403 1.60668,-3.614019 0.81591,-0.616017 1.43694,-1.259791 1.38007,-1.430611 -0.20944,-0.629054 -1.04587,-0.457628 -2.99996,0.614843 l -2.00219,1.098862 -7.71516,-0.178314 -7.71517,-0.178315 -1.87236,-0.945883 c -1.8005,-0.909578 -2.93253,-1.026648 -2.59894,-0.26877 0.0825,0.18741 0.85439,0.910155 1.71533,1.606101 1.08854,0.879923 1.56535,1.450334 1.56535,1.872631 0,0.6246 -3.06578,10.670693 -3.77132,12.35804 -0.27161,0.649568 -1.12718,1.508295 -2.743459,2.753588 -3.416951,2.632649 -4.118154,3.332234 -3.765656,3.756968 0.160084,0.192889 0.425312,0.351834 0.589394,0.353211 0.164083,0.0014 1.635189,-0.905151 3.269124,-2.014506 2.275347,-1.544841 3.111497,-1.979562 3.571877,-1.857042 0.85527,0.227614 10.17791,6.935285 10.62492,7.64467 0.24334,0.386152 0.45781,2.014294 0.62075,4.712349 0.13693,2.267292 0.33502,4.261589 0.4402,4.431771 0.23736,0.384054 0.60307,0.398204 0.82934,0.03209 z m -2.14934,-11.892587 c -0.85949,-0.581582 -3.22958,-2.280443 -5.26687,-3.775247 -3.42569,-2.513501 -3.70993,-2.787075 -3.78078,-3.638933 -0.0889,-1.068709 3.20165,-11.807127 3.80904,-12.430482 0.32306,-0.331546 1.4583,-0.396875 6.89663,-0.396875 h 6.50991 l 0.48496,0.661458 c 0.26672,0.363802 1.25155,3.219351 2.18851,6.345665 1.27775,4.263419 1.63866,5.805468 1.44392,6.169343 -0.41211,0.770038 -9.94345,8.122492 -10.52958,8.122492 -0.10617,0 -0.89625,-0.47584 -1.75574,-1.057421 z M 162.42087,60.9831 c -1.47247,-0.08902 -2.57998,-0.288588 -2.85011,-0.51357 -0.84429,-0.703185 -12.03189,-18.652323 -12.83497,-20.592141 -0.32389,-0.782349 -0.28905,-0.987231 0.42752,-2.513542 0.61671,-1.313602 9.03687,-15.563497 11.09476,-18.776257 0.25024,-0.39068 0.93442,-0.926462 1.5204,-1.190625 0.97489,-0.43949 2.01025,-0.480297 12.18618,-0.480297 6.11642,0 11.44489,0.09074 11.84105,0.201641 1.0522,0.294561 1.47803,0.825432 5.56847,6.942109 2.04362,3.055937 3.81616,5.595937 3.93898,5.644444 0.12282,0.04851 0.22331,0.191905 0.22331,0.318662 0,0.126758 0.75655,1.396758 1.68123,2.822223 3.49802,5.392465 3.63763,6.196575 1.66528,9.591103 -1.43608,2.471569 -9.85213,15.4579 -11.10838,17.140721 -0.56918,0.762446 -1.14983,1.208979 -1.81425,1.395214 -1.00563,0.281874 -16.92164,0.289496 -21.53947,0.01031 z m 19.73851,-2.428692 c 0,-0.410496 -2.2324,-1.689084 -8.55519,-4.899908 -5.31465,-2.698879 -6.01777,-3.127588 -5.61386,-3.422934 0.59478,-0.434909 16.53325,-9.278792 17.14561,-9.513691 0.62647,-0.240312 0.61174,0.372302 -0.17969,7.473585 -0.81221,7.2877 -0.90073,8.858811 -0.50681,8.995497 0.51686,0.179348 0.84211,-1.360036 1.93702,-9.167756 0.61558,-4.389633 1.19524,-7.664383 1.39077,-7.857136 0.19453,-0.191758 1.72032,-0.449759 3.63461,-0.614584 1.81464,-0.156246 3.39895,-0.383687 3.52069,-0.505425 0.12174,-0.121739 -1.06531,-0.362283 -2.63788,-0.534543 -3.24931,-0.355929 -4.46704,-0.676762 -4.68055,-1.233174 -0.0816,-0.212589 -0.58131,-3.570345 -1.1105,-7.461681 -0.99945,-7.34924 -1.31218,-8.803336 -1.93748,-9.008737 -0.43552,-0.143062 -0.32917,1.828615 0.51642,9.574521 0.63787,5.843033 0.65773,6.88969 0.12685,6.685973 -0.56889,-0.218304 -15.4306,-8.572279 -16.66875,-9.369737 l -1.05103,-0.67694 7.26313,-3.595327 c 3.99472,-1.977429 7.30532,-3.744092 7.35689,-3.925916 0.1516,-0.534579 -0.73617,-0.704053 -1.76952,-0.3378 -0.52737,0.186918 -3.57906,1.55646 -6.78154,3.043429 -7.09686,3.295207 -7.68125,3.517667 -8.27811,3.151205 -0.24821,-0.152396 -1.28473,-1.511972 -2.30338,-3.02128 -1.7403,-2.578572 -2.51354,-3.383103 -2.51354,-2.615258 0,0.181873 0.65942,1.750485 1.46537,3.485804 0.80595,1.735319 1.40154,3.352608 1.32352,3.593974 -0.078,0.241367 -2.46486,2.561969 -5.30412,5.156893 -5.40403,4.938984 -6.01614,5.623244 -5.28229,5.904851 0.50053,0.192071 1.23539,-0.314024 4.44914,-3.064111 1.28708,-1.101394 3.31115,-2.826961 4.49791,-3.834594 l 2.15776,-1.832059 0.21733,1.567476 c 0.19736,1.423478 0.005,17.043288 -0.21205,17.260808 -0.20347,0.203471 -1.32589,-0.62045 -5.32112,-3.906004 -4.27339,-3.514304 -5.61516,-4.401338 -6.03022,-3.986531 -0.43505,0.434772 0.0584,1.006066 3.32438,3.848991 6.32235,5.503367 7.36023,6.497303 7.36023,7.048617 0,0.296195 -0.65485,1.997032 -1.45521,3.779639 -1.56364,3.482601 -1.66489,3.847997 -1.06626,3.847997 0.47083,0 0.99338,-0.692782 2.99354,-3.96875 1.33907,-2.193215 1.6221,-2.507721 2.22085,-2.467869 0.37741,0.02512 3.76567,1.501236 7.52945,3.280256 3.76379,1.779021 7.14091,3.317764 7.50471,3.41943 0.73458,0.205279 1.32292,0.0731 1.32292,-0.297201 z m -15.9633,-9.931939 c -0.097,-0.09696 -0.17629,-4.561756 -0.17629,-9.921774 0,-8.904304 0.0379,-9.745485 0.43927,-9.745485 0.39015,0 4.1343,2.037041 14.48321,7.879729 1.73169,0.977659 3.14713,1.896625 3.14543,2.042145 -0.002,0.145521 -2.78776,1.793252 -6.19123,3.661625 -9.82901,5.395737 -11.51287,6.271281 -11.70039,6.08376 z"
       id="path1" /></g></svg>
